<svg width="300" height="274" viewBox="0 0 300 274" fill="none" xmlns="http://www.w3.org/2000/svg">
<rect y="74" width="300" height="200" fill="#8957F4"/>
<rect width="110" height="60" fill="#F899A3"/>
<rect x="124" width="176" height="60" fill="#53F4B6"/>
<path d="M40 142.44C36.5867 142.44 33.8933 141.72 31.92 140.28C29.9733 138.84 29 136.84 29 134.28C29 132.253 29.6 130.587 30.8 129.28C32 127.947 33.52 127.173 35.36 126.96V128.12C33.7067 127.773 32.36 126.973 31.32 125.72C30.28 124.44 29.76 122.893 29.76 121.08C29.76 118.68 30.68 116.8 32.52 115.44C34.36 114.053 36.8533 113.36 40 113.36C43.1733 113.36 45.68 114.053 47.52 115.44C49.36 116.8 50.28 118.68 50.28 121.08C50.28 122.92 49.7733 124.48 48.76 125.76C47.7467 127.04 46.4267 127.813 44.8 128.08V126.96C46.64 127.227 48.1333 128.027 49.28 129.36C50.4267 130.667 51 132.307 51 134.28C51 136.84 50.0267 138.84 48.08 140.28C46.1333 141.72 43.44 142.44 40 142.44ZM40 136.92C41.44 136.92 42.52 136.653 43.24 136.12C43.9867 135.56 44.36 134.76 44.36 133.72C44.36 132.653 43.9867 131.853 43.24 131.32C42.52 130.787 41.44 130.52 40 130.52C38.5867 130.52 37.5067 130.787 36.76 131.32C36.0133 131.853 35.64 132.653 35.64 133.72C35.64 134.76 36.0133 135.56 36.76 136.12C37.5067 136.653 38.5867 136.92 40 136.92ZM40 124.96C41.1467 124.96 42.0267 124.693 42.64 124.16C43.28 123.6 43.6 122.853 43.6 121.92C43.6 120.987 43.28 120.253 42.64 119.72C42.0267 119.16 41.1467 118.88 40 118.88C38.8533 118.88 37.96 119.16 37.32 119.72C36.7067 120.253 36.4 120.987 36.4 121.92C36.4 122.853 36.7067 123.6 37.32 124.16C37.96 124.693 38.8533 124.96 40 124.96ZM55.6244 142V136H61.9444V119.92H65.3044L56.3044 125.04V118.24L64.0644 113.8H69.3044V136H75.1844V142H55.6244ZM90.0088 142H84.0888L100.569 113.8H106.489L90.0088 142ZM84.6888 130.6C82.2888 130.6 80.4221 129.813 79.0888 128.24C77.7554 126.64 77.0888 124.533 77.0888 121.92C77.0888 119.28 77.7554 117.2 79.0888 115.68C80.4488 114.133 82.3154 113.36 84.6888 113.36C87.0621 113.36 88.9154 114.147 90.2488 115.72C91.5821 117.293 92.2488 119.36 92.2488 121.92C92.2488 124.533 91.5821 126.64 90.2488 128.24C88.9154 129.813 87.0621 130.6 84.6888 130.6ZM84.6888 126.28C85.3021 126.28 85.7688 125.96 86.0888 125.32C86.4354 124.653 86.6088 123.52 86.6088 121.92C86.6088 120.32 86.4354 119.213 86.0888 118.6C85.7421 117.987 85.2754 117.68 84.6888 117.68C84.0488 117.68 83.5688 117.973 83.2488 118.56C82.9288 119.147 82.7688 120.267 82.7688 121.92C82.7688 123.573 82.9288 124.72 83.2488 125.36C83.5688 125.973 84.0488 126.28 84.6888 126.28ZM105.889 142.44C103.515 142.44 101.662 141.653 100.329 140.08C98.9954 138.48 98.3288 136.373 98.3288 133.76C98.3288 131.12 98.9954 129.04 100.329 127.52C101.689 125.973 103.542 125.2 105.889 125.2C108.289 125.2 110.142 125.987 111.449 127.56C112.782 129.133 113.449 131.2 113.449 133.76C113.449 136.373 112.782 138.48 111.449 140.08C110.142 141.653 108.289 142.44 105.889 142.44ZM105.889 138.12C106.529 138.12 107.009 137.8 107.329 137.16C107.649 136.493 107.809 135.36 107.809 133.76C107.809 132.16 107.635 131.053 107.289 130.44C106.969 129.827 106.502 129.52 105.889 129.52C105.275 129.52 104.795 129.827 104.449 130.44C104.129 131.027 103.969 132.133 103.969 133.76C103.969 135.413 104.129 136.56 104.449 137.2C104.795 137.813 105.275 138.12 105.889 138.12Z" fill="white"/>
</svg>
