<svg width="160" height="160" viewBox="0 0 160 160" fill="none" xmlns="http://www.w3.org/2000/svg">
<g clip-path="url(#clip0_451_739)">
<path d="M136.667 40.0002C119.267 44.6668 98.8667 46.6668 80 46.6668C61.1333 46.6668 40.7333 44.6668 23.3333 40.0002L20 53.3335C32.4 56.6668 46.6667 58.8668 60 60.0002V146.667H73.3333V106.667H86.6667V146.667H100V60.0002C113.333 58.8668 127.6 56.6668 140 53.3335L136.667 40.0002ZM80 40.0002C87.3333 40.0002 93.3333 34.0002 93.3333 26.6668C93.3333 19.3335 87.3333 13.3335 80 13.3335C72.6667 13.3335 66.6667 19.3335 66.6667 26.6668C66.6667 34.0002 72.6667 40.0002 80 40.0002Z" fill="#21383E"/>
</g>
<defs>
<clipPath id="clip0_451_739">
<rect width="160" height="160" fill="white"/>
</clipPath>
</defs>
</svg>
