<svg width="60" height="60" viewBox="0 0 60 60" fill="none" xmlns="http://www.w3.org/2000/svg">
<path d="M13.875 44.0625C16.5 42.2292 19.1042 40.8229 21.6875 39.8438C24.2708 38.8646 27.0417 38.375 30 38.375C32.9583 38.375 35.7396 38.8646 38.3438 39.8438C40.9479 40.8229 43.5625 42.2292 46.1875 44.0625C48.0208 41.8125 49.3229 39.5417 50.0938 37.25C50.8646 34.9583 51.25 32.5417 51.25 30C51.25 23.9583 49.2188 18.9062 45.1562 14.8438C41.0938 10.7812 36.0417 8.75 30 8.75C23.9583 8.75 18.9062 10.7812 14.8438 14.8438C10.7812 18.9062 8.75 23.9583 8.75 30C8.75 32.5417 9.14583 34.9583 9.9375 37.25C10.7292 39.5417 12.0417 41.8125 13.875 44.0625ZM29.9884 31.875C27.5795 31.875 25.5521 31.0482 23.9062 29.3946C22.2604 27.741 21.4375 25.7098 21.4375 23.3009C21.4375 20.892 22.2643 18.8646 23.9179 17.2188C25.5715 15.5729 27.6027 14.75 30.0116 14.75C32.4205 14.75 34.4479 15.5768 36.0938 17.2304C37.7396 18.884 38.5625 20.9152 38.5625 23.3241C38.5625 25.733 37.7357 27.7604 36.0821 29.4062C34.4285 31.0521 32.3973 31.875 29.9884 31.875ZM30.0292 55C26.5931 55 23.3542 54.3438 20.3125 53.0312C17.2708 51.7188 14.6146 49.9271 12.3438 47.6562C10.0729 45.3854 8.28125 42.734 6.96875 39.7021C5.65625 36.6702 5 33.4306 5 29.9834C5 26.5361 5.65625 23.3021 6.96875 20.2812C8.28125 17.2604 10.0729 14.6146 12.3438 12.3438C14.6146 10.0729 17.266 8.28125 20.2979 6.96875C23.3298 5.65625 26.5694 5 30.0166 5C33.4639 5 36.6979 5.65625 39.7188 6.96875C42.7396 8.28125 45.3854 10.0729 47.6562 12.3438C49.9271 14.6146 51.7188 17.2611 53.0312 20.2833C54.3438 23.3054 55 26.5346 55 29.9707C55 33.4069 54.3438 36.6458 53.0312 39.6875C51.7188 42.7292 49.9271 45.3854 47.6562 47.6562C45.3854 49.9271 42.7389 51.7188 39.7168 53.0312C36.6946 54.3438 33.4654 55 30.0292 55ZM30 51.25C32.2917 51.25 34.5312 50.9167 36.7188 50.25C38.9062 49.5833 41.0625 48.4167 43.1875 46.75C41.0625 45.25 38.8958 44.1042 36.6875 43.3125C34.4792 42.5208 32.25 42.125 30 42.125C27.75 42.125 25.5208 42.5208 23.3125 43.3125C21.1042 44.1042 18.9375 45.25 16.8125 46.75C18.9375 48.4167 21.0938 49.5833 23.2812 50.25C25.4688 50.9167 27.7083 51.25 30 51.25ZM30 28.125C31.4167 28.125 32.5729 27.6771 33.4688 26.7812C34.3646 25.8854 34.8125 24.7292 34.8125 23.3125C34.8125 21.8958 34.3646 20.7396 33.4688 19.8438C32.5729 18.9479 31.4167 18.5 30 18.5C28.5833 18.5 27.4271 18.9479 26.5312 19.8438C25.6354 20.7396 25.1875 21.8958 25.1875 23.3125C25.1875 24.7292 25.6354 25.8854 26.5312 26.7812C27.4271 27.6771 28.5833 28.125 30 28.125Z" fill="#C1DB29"/>
</svg>
