<svg width="60" height="60" viewBox="0 0 60 60" fill="none" xmlns="http://www.w3.org/2000/svg">
<g clip-path="url(#clip0_410_5721)">
<path d="M26 1C32.0751 1 37 5.92487 37 12V39H36.9291C36.4439 42.3923 33.5265 45 30 45C26.4735 45 23.5561 42.3923 23.0709 39H23V14H28V38C28 39.1046 28.8954 40 30 40C31.1046 40 32 39.1046 32 38V12C32 8.68629 29.3137 6 26 6C22.6863 6 20 8.68629 20 12V46H15V12C15 5.92487 19.9249 1 26 1Z" fill="#21383E"/>
<path d="M40 14H45V44.8914L45.0002 44.9263L45.0004 45C45.0004 45.0362 45.0003 45.0725 45 45.1086V46H40V14Z" fill="#21383E"/>
<path d="M30.0004 55C35.1857 55 39.4492 51.0534 39.951 46.0002H44.9676C44.4529 53.8181 37.9486 60 30.0004 60C22.0522 60 15.5479 53.8181 15.0332 46.0002H20.0498C20.5516 51.0534 24.8151 55 30.0004 55Z" fill="#21383E"/>
<path d="M30.0004 30L30.0809 30.0002H29.9198L30.0004 30Z" fill="#21383E"/>
</g>
<defs>
<clipPath id="clip0_410_5721">
<rect width="60" height="60" fill="white"/>
</clipPath>
</defs>
</svg>
