<svg width="60" height="60" viewBox="0 0 60 60" fill="none" xmlns="http://www.w3.org/2000/svg">
<g clip-path="url(#clip0_202_2924)">
<path d="M41.25 15V43.75C41.25 49.275 36.775 53.75 31.25 53.75C25.725 53.75 21.25 49.275 21.25 43.75V12.5C21.25 9.05 24.05 6.25 27.5 6.25C30.95 6.25 33.75 9.05 33.75 12.5V38.75C33.75 40.125 32.625 41.25 31.25 41.25C29.875 41.25 28.75 40.125 28.75 38.75V15H25V38.75C25 42.2 27.8 45 31.25 45C34.7 45 37.5 42.2 37.5 38.75V12.5C37.5 6.975 33.025 2.5 27.5 2.5C21.975 2.5 17.5 6.975 17.5 12.5V43.75C17.5 51.35 23.65 57.5 31.25 57.5C38.85 57.5 45 51.35 45 43.75V15H41.25Z" fill="#C1DB29"/>
</g>
<defs>
<clipPath id="clip0_202_2924">
<rect width="60" height="60" fill="white"/>
</clipPath>
</defs>
</svg>
