<svg width="410" height="410" viewBox="0 0 410 410" fill="none" xmlns="http://www.w3.org/2000/svg">
<circle cx="67" cy="126" r="3" fill="#DBFF00"/>
<circle cx="67" cy="138" r="3" fill="#DBFF00"/>
<circle cx="67" cy="150" r="3" fill="#DBFF00"/>
<circle cx="67" cy="162" r="3" fill="#DBFF00"/>
<circle cx="67" cy="174" r="3" fill="#DBFF00"/>
<circle cx="67" cy="186" r="3" fill="#DBFF00"/>
<circle cx="67" cy="198" r="3" fill="#DBFF00"/>
<circle cx="79" cy="114" r="3" fill="#DBFF00"/>
<circle cx="79" cy="126" r="3" fill="#DBFF00"/>
<circle cx="79" cy="138" r="3" fill="#DBFF00"/>
<circle cx="79" cy="150" r="3" fill="#DBFF00"/>
<circle cx="79" cy="162" r="3" fill="#DBFF00"/>
<circle cx="79" cy="174" r="3" fill="#DBFF00"/>
<circle cx="79" cy="186" r="3" fill="#DBFF00"/>
<circle cx="79" cy="198" r="3" fill="#DBFF00"/>
<circle cx="79" cy="210" r="3" fill="#DBFF00"/>
<circle cx="79" cy="222" r="3" fill="#DBFF00"/>
<circle cx="91" cy="106" r="3" fill="#DBFF00"/>
<circle cx="91" cy="118" r="3" fill="#DBFF00"/>
<circle cx="91" cy="130" r="3" fill="#DBFF00"/>
<circle cx="91" cy="142" r="3" fill="#DBFF00"/>
<circle cx="91" cy="154" r="3" fill="#DBFF00"/>
<circle cx="91" cy="166" r="3" fill="#DBFF00"/>
<circle cx="91" cy="178" r="3" fill="#DBFF00"/>
<circle cx="91" cy="190" r="3" fill="#DBFF00"/>
<circle cx="91" cy="202" r="3" fill="#DBFF00"/>
<circle cx="91" cy="214" r="3" fill="#DBFF00"/>
<circle cx="91" cy="226" r="3" fill="#DBFF00"/>
<circle cx="91" cy="238" r="3" fill="#DBFF00"/>
<circle cx="103" cy="106" r="3" fill="#DBFF00"/>
<circle cx="103" cy="118" r="3" fill="#DBFF00"/>
<circle cx="103" cy="130" r="3" fill="#DBFF00"/>
<circle cx="103" cy="142" r="3" fill="#DBFF00"/>
<circle cx="103" cy="154" r="3" fill="#DBFF00"/>
<circle cx="103" cy="166" r="3" fill="#DBFF00"/>
<circle cx="103" cy="178" r="3" fill="#DBFF00"/>
<circle cx="103" cy="190" r="3" fill="#DBFF00"/>
<circle cx="103" cy="202" r="3" fill="#DBFF00"/>
<circle cx="103" cy="214" r="3" fill="#DBFF00"/>
<circle cx="103" cy="226" r="3" fill="#DBFF00"/>
<circle cx="103" cy="238" r="3" fill="#DBFF00"/>
<circle cx="103" cy="250" r="3" fill="#DBFF00"/>
<circle cx="115" cy="112" r="3" fill="#DBFF00"/>
<circle cx="115" cy="124" r="3" fill="#DBFF00"/>
<circle cx="115" cy="136" r="3" fill="#DBFF00"/>
<circle cx="115" cy="148" r="3" fill="#DBFF00"/>
<circle cx="115" cy="160" r="3" fill="#DBFF00"/>
<circle cx="115" cy="172" r="3" fill="#DBFF00"/>
<circle cx="115" cy="184" r="3" fill="#DBFF00"/>
<circle cx="115" cy="196" r="3" fill="#DBFF00"/>
<circle cx="115" cy="208" r="3" fill="#DBFF00"/>
<circle cx="115" cy="220" r="3" fill="#DBFF00"/>
<circle cx="115" cy="232" r="3" fill="#DBFF00"/>
<circle cx="115" cy="244" r="3" fill="#DBFF00"/>
<circle cx="115" cy="256" r="3" fill="#DBFF00"/>
<circle cx="127" cy="118" r="3" fill="#DBFF00"/>
<circle cx="127" cy="130" r="3" fill="#DBFF00"/>
<circle cx="127" cy="142" r="3" fill="#DBFF00"/>
<circle cx="127" cy="154" r="3" fill="#DBFF00"/>
<circle cx="127" cy="166" r="3" fill="#DBFF00"/>
<circle cx="127" cy="178" r="3" fill="#DBFF00"/>
<circle cx="127" cy="190" r="3" fill="#DBFF00"/>
<circle cx="127" cy="202" r="3" fill="#DBFF00"/>
<circle cx="127" cy="214" r="3" fill="#DBFF00"/>
<circle cx="127" cy="226" r="3" fill="#DBFF00"/>
<circle cx="127" cy="238" r="3" fill="#DBFF00"/>
<circle cx="127" cy="250" r="3" fill="#DBFF00"/>
<circle cx="127" cy="262" r="3" fill="#DBFF00"/>
<circle cx="139" cy="124" r="3" fill="#DBFF00"/>
<circle cx="139" cy="136" r="3" fill="#DBFF00"/>
<circle cx="139" cy="148" r="3" fill="#DBFF00"/>
<circle cx="139" cy="160" r="3" fill="#DBFF00"/>
<circle cx="139" cy="172" r="3" fill="#DBFF00"/>
<circle cx="139" cy="184" r="3" fill="#DBFF00"/>
<circle cx="139" cy="196" r="3" fill="#DBFF00"/>
<circle cx="139" cy="208" r="3" fill="#DBFF00"/>
<circle cx="139" cy="220" r="3" fill="#DBFF00"/>
<circle cx="139" cy="232" r="3" fill="#DBFF00"/>
<circle cx="139" cy="244" r="3" fill="#DBFF00"/>
<circle cx="139" cy="256" r="3" fill="#DBFF00"/>
<circle cx="139" cy="268" r="3" fill="#DBFF00"/>
<circle cx="151" cy="132" r="3" fill="#DBFF00"/>
<circle cx="151" cy="144" r="3" fill="#DBFF00"/>
<circle cx="151" cy="156" r="3" fill="#DBFF00"/>
<circle cx="151" cy="168" r="3" fill="#DBFF00"/>
<circle cx="151" cy="180" r="3" fill="#DBFF00"/>
<circle cx="151" cy="192" r="3" fill="#DBFF00"/>
<circle cx="151" cy="204" r="3" fill="#DBFF00"/>
<circle cx="151" cy="216" r="3" fill="#DBFF00"/>
<circle cx="151" cy="228" r="3" fill="#DBFF00"/>
<circle cx="151" cy="240" r="3" fill="#DBFF00"/>
<circle cx="151" cy="252" r="3" fill="#DBFF00"/>
<circle cx="151" cy="264" r="3" fill="#DBFF00"/>
<circle cx="151" cy="276" r="3" fill="#DBFF00"/>
<circle cx="163" cy="133" r="3" fill="#DBFF00"/>
<circle cx="163" cy="145" r="3" fill="#DBFF00"/>
<circle cx="163" cy="157" r="3" fill="#DBFF00"/>
<circle cx="163" cy="169" r="3" fill="#DBFF00"/>
<circle cx="163" cy="181" r="3" fill="#DBFF00"/>
<circle cx="163" cy="193" r="3" fill="#DBFF00"/>
<circle cx="163" cy="205" r="3" fill="#DBFF00"/>
<circle cx="163" cy="217" r="3" fill="#DBFF00"/>
<circle cx="163" cy="229" r="3" fill="#DBFF00"/>
<circle cx="163" cy="241" r="3" fill="#DBFF00"/>
<circle cx="163" cy="253" r="3" fill="#DBFF00"/>
<circle cx="163" cy="265" r="3" fill="#DBFF00"/>
<circle cx="163" cy="277" r="3" fill="#DBFF00"/>
<circle cx="175" cy="135" r="3" fill="#DBFF00"/>
<circle cx="175" cy="147" r="3" fill="#DBFF00"/>
<circle cx="175" cy="159" r="3" fill="#DBFF00"/>
<circle cx="175" cy="171" r="3" fill="#DBFF00"/>
<circle cx="175" cy="183" r="3" fill="#DBFF00"/>
<circle cx="175" cy="195" r="3" fill="#DBFF00"/>
<circle cx="175" cy="207" r="3" fill="#DBFF00"/>
<circle cx="175" cy="219" r="3" fill="#DBFF00"/>
<circle cx="175" cy="231" r="3" fill="#DBFF00"/>
<circle cx="175" cy="243" r="3" fill="#DBFF00"/>
<circle cx="175" cy="255" r="3" fill="#DBFF00"/>
<circle cx="175" cy="267" r="3" fill="#DBFF00"/>
<circle cx="175" cy="279" r="3" fill="#DBFF00"/>
<circle cx="187" cy="135" r="3" fill="#DBFF00"/>
<circle cx="187" cy="147" r="3" fill="#DBFF00"/>
<circle cx="187" cy="159" r="3" fill="#DBFF00"/>
<circle cx="187" cy="171" r="3" fill="#DBFF00"/>
<circle cx="187" cy="183" r="3" fill="#DBFF00"/>
<circle cx="187" cy="195" r="3" fill="#DBFF00"/>
<circle cx="187" cy="207" r="3" fill="#DBFF00"/>
<circle cx="187" cy="219" r="3" fill="#DBFF00"/>
<circle cx="187" cy="231" r="3" fill="#DBFF00"/>
<circle cx="187" cy="243" r="3" fill="#DBFF00"/>
<circle cx="187" cy="255" r="3" fill="#DBFF00"/>
<circle cx="187" cy="267" r="3" fill="#DBFF00"/>
<circle cx="187" cy="279" r="3" fill="#DBFF00"/>
<circle cx="199" cy="147" r="3" fill="#DBFF00"/>
<circle cx="199" cy="159" r="3" fill="#DBFF00"/>
<circle cx="199" cy="171" r="3" fill="#DBFF00"/>
<circle cx="199" cy="183" r="3" fill="#DBFF00"/>
<circle cx="199" cy="195" r="3" fill="#DBFF00"/>
<circle cx="199" cy="207" r="3" fill="#DBFF00"/>
<circle cx="199" cy="219" r="3" fill="#DBFF00"/>
<circle cx="199" cy="231" r="3" fill="#DBFF00"/>
<circle cx="199" cy="243" r="3" fill="#DBFF00"/>
<circle cx="199" cy="255" r="3" fill="#DBFF00"/>
<circle cx="199" cy="267" r="3" fill="#DBFF00"/>
<circle cx="199" cy="279" r="3" fill="#DBFF00"/>
<circle cx="211" cy="147" r="3" fill="#DBFF00"/>
<circle cx="211" cy="159" r="3" fill="#DBFF00"/>
<circle cx="211" cy="171" r="3" fill="#DBFF00"/>
<circle cx="211" cy="183" r="3" fill="#DBFF00"/>
<circle cx="211" cy="195" r="3" fill="#DBFF00"/>
<circle cx="211" cy="207" r="3" fill="#DBFF00"/>
<circle cx="211" cy="219" r="3" fill="#DBFF00"/>
<circle cx="211" cy="231" r="3" fill="#DBFF00"/>
<circle cx="211" cy="243" r="3" fill="#DBFF00"/>
<circle cx="211" cy="255" r="3" fill="#DBFF00"/>
<circle cx="211" cy="267" r="3" fill="#DBFF00"/>
<circle cx="211" cy="279" r="3" fill="#DBFF00"/>
<circle cx="223" cy="147" r="3" fill="#DBFF00"/>
<circle cx="223" cy="159" r="3" fill="#DBFF00"/>
<circle cx="223" cy="171" r="3" fill="#DBFF00"/>
<circle cx="223" cy="183" r="3" fill="#DBFF00"/>
<circle cx="223" cy="195" r="3" fill="#DBFF00"/>
<circle cx="223" cy="207" r="3" fill="#DBFF00"/>
<circle cx="223" cy="219" r="3" fill="#DBFF00"/>
<circle cx="223" cy="231" r="3" fill="#DBFF00"/>
<circle cx="223" cy="243" r="3" fill="#DBFF00"/>
<circle cx="223" cy="255" r="3" fill="#DBFF00"/>
<circle cx="223" cy="267" r="3" fill="#DBFF00"/>
<circle cx="223" cy="279" r="3" fill="#DBFF00"/>
<circle cx="235" cy="154" r="3" fill="#DBFF00"/>
<circle cx="235" cy="166" r="3" fill="#DBFF00"/>
<circle cx="235" cy="178" r="3" fill="#DBFF00"/>
<circle cx="235" cy="190" r="3" fill="#DBFF00"/>
<circle cx="235" cy="202" r="3" fill="#DBFF00"/>
<circle cx="235" cy="214" r="3" fill="#DBFF00"/>
<circle cx="235" cy="226" r="3" fill="#DBFF00"/>
<circle cx="235" cy="238" r="3" fill="#DBFF00"/>
<circle cx="235" cy="250" r="3" fill="#DBFF00"/>
<circle cx="235" cy="262" r="3" fill="#DBFF00"/>
<circle cx="235" cy="274" r="3" fill="#DBFF00"/>
<circle cx="247" cy="154" r="3" fill="#DBFF00"/>
<circle cx="247" cy="166" r="3" fill="#DBFF00"/>
<circle cx="247" cy="178" r="3" fill="#DBFF00"/>
<circle cx="247" cy="190" r="3" fill="#DBFF00"/>
<circle cx="247" cy="202" r="3" fill="#DBFF00"/>
<circle cx="247" cy="214" r="3" fill="#DBFF00"/>
<circle cx="247" cy="226" r="3" fill="#DBFF00"/>
<circle cx="247" cy="238" r="3" fill="#DBFF00"/>
<circle cx="247" cy="250" r="3" fill="#DBFF00"/>
<circle cx="247" cy="262" r="3" fill="#DBFF00"/>
<circle cx="247" cy="274" r="3" fill="#DBFF00"/>
<circle cx="259" cy="154" r="3" fill="#DBFF00"/>
<circle cx="259" cy="166" r="3" fill="#DBFF00"/>
<circle cx="259" cy="178" r="3" fill="#DBFF00"/>
<circle cx="259" cy="190" r="3" fill="#DBFF00"/>
<circle cx="259" cy="202" r="3" fill="#DBFF00"/>
<circle cx="259" cy="214" r="3" fill="#DBFF00"/>
<circle cx="259" cy="226" r="3" fill="#DBFF00"/>
<circle cx="259" cy="238" r="3" fill="#DBFF00"/>
<circle cx="259" cy="250" r="3" fill="#DBFF00"/>
<circle cx="259" cy="262" r="3" fill="#DBFF00"/>
<circle cx="259" cy="274" r="3" fill="#DBFF00"/>
<circle cx="271" cy="162" r="3" fill="#DBFF00"/>
<circle cx="271" cy="174" r="3" fill="#DBFF00"/>
<circle cx="271" cy="186" r="3" fill="#DBFF00"/>
<circle cx="271" cy="198" r="3" fill="#DBFF00"/>
<circle cx="271" cy="210" r="3" fill="#DBFF00"/>
<circle cx="271" cy="222" r="3" fill="#DBFF00"/>
<circle cx="271" cy="234" r="3" fill="#DBFF00"/>
<circle cx="271" cy="246" r="3" fill="#DBFF00"/>
<circle cx="271" cy="258" r="3" fill="#DBFF00"/>
<circle cx="271" cy="270" r="3" fill="#DBFF00"/>
<circle cx="283" cy="157" r="3" fill="#DBFF00"/>
<circle cx="283" cy="169" r="3" fill="#DBFF00"/>
<circle cx="283" cy="181" r="3" fill="#DBFF00"/>
<circle cx="283" cy="193" r="3" fill="#DBFF00"/>
<circle cx="283" cy="205" r="3" fill="#DBFF00"/>
<circle cx="283" cy="217" r="3" fill="#DBFF00"/>
<circle cx="283" cy="229" r="3" fill="#DBFF00"/>
<circle cx="283" cy="241" r="3" fill="#DBFF00"/>
<circle cx="283" cy="253" r="3" fill="#DBFF00"/>
<circle cx="283" cy="265" r="3" fill="#DBFF00"/>
<circle cx="295" cy="163" r="3" fill="#DBFF00"/>
<circle cx="295" cy="175" r="3" fill="#DBFF00"/>
<circle cx="295" cy="187" r="3" fill="#DBFF00"/>
<circle cx="295" cy="199" r="3" fill="#DBFF00"/>
<circle cx="295" cy="211" r="3" fill="#DBFF00"/>
<circle cx="295" cy="223" r="3" fill="#DBFF00"/>
<circle cx="295" cy="235" r="3" fill="#DBFF00"/>
<circle cx="295" cy="247" r="3" fill="#DBFF00"/>
<circle cx="295" cy="259" r="3" fill="#DBFF00"/>
<circle cx="307" cy="166" r="3" fill="#DBFF00"/>
<circle cx="307" cy="178" r="3" fill="#DBFF00"/>
<circle cx="307" cy="190" r="3" fill="#DBFF00"/>
<circle cx="307" cy="202" r="3" fill="#DBFF00"/>
<circle cx="307" cy="214" r="3" fill="#DBFF00"/>
<circle cx="307" cy="226" r="3" fill="#DBFF00"/>
<circle cx="307" cy="238" r="3" fill="#DBFF00"/>
<circle cx="307" cy="250" r="3" fill="#DBFF00"/>
<circle cx="319" cy="172" r="3" fill="#DBFF00"/>
<circle cx="319" cy="184" r="3" fill="#DBFF00"/>
<circle cx="319" cy="196" r="3" fill="#DBFF00"/>
<circle cx="319" cy="208" r="3" fill="#DBFF00"/>
<circle cx="319" cy="220" r="3" fill="#DBFF00"/>
<circle cx="319" cy="232" r="3" fill="#DBFF00"/>
<circle cx="319" cy="244" r="3" fill="#DBFF00"/>
<circle cx="331" cy="178" r="3" fill="#DBFF00"/>
<circle cx="331" cy="190" r="3" fill="#DBFF00"/>
<circle cx="331" cy="202" r="3" fill="#DBFF00"/>
<circle cx="331" cy="214" r="3" fill="#DBFF00"/>
<circle cx="331" cy="226" r="3" fill="#DBFF00"/>
<circle cx="331" cy="238" r="3" fill="#DBFF00"/>
<circle cx="343" cy="181" r="3" fill="#DBFF00"/>
<circle cx="343" cy="193" r="3" fill="#DBFF00"/>
<circle cx="343" cy="205" r="3" fill="#DBFF00"/>
<circle cx="343" cy="217" r="3" fill="#DBFF00"/>
<circle cx="343" cy="229" r="3" fill="#DBFF00"/>
</svg>
