<svg width="410" height="410" viewBox="0 0 410 410" fill="none" xmlns="http://www.w3.org/2000/svg">
<circle cx="91" cy="151" r="3" fill="#DBFF00"/>
<circle cx="91" cy="163" r="3" fill="#DBFF00"/>
<circle cx="91" cy="175" r="3" fill="#DBFF00"/>
<circle cx="91" cy="187" r="3" fill="#DBFF00"/>
<circle cx="91" cy="199" r="3" fill="#DBFF00"/>
<circle cx="91" cy="211" r="3" fill="#DBFF00"/>
<circle cx="91" cy="223" r="3" fill="#DBFF00"/>
<circle cx="91" cy="235" r="3" fill="#DBFF00"/>
<circle cx="91" cy="247" r="3" fill="#DBFF00"/>
<circle cx="91" cy="259" r="3" fill="#DBFF00"/>
<circle cx="103" cy="145" r="3" fill="#DBFF00"/>
<circle cx="103" cy="157" r="3" fill="#DBFF00"/>
<circle cx="103" cy="169" r="3" fill="#DBFF00"/>
<circle cx="103" cy="181" r="3" fill="#DBFF00"/>
<circle cx="103" cy="193" r="3" fill="#DBFF00"/>
<circle cx="103" cy="205" r="3" fill="#DBFF00"/>
<circle cx="103" cy="217" r="3" fill="#DBFF00"/>
<circle cx="103" cy="229" r="3" fill="#DBFF00"/>
<circle cx="103" cy="241" r="3" fill="#DBFF00"/>
<circle cx="103" cy="253" r="3" fill="#DBFF00"/>
<circle cx="103" cy="265" r="3" fill="#DBFF00"/>
<circle cx="115" cy="139" r="3" fill="#DBFF00"/>
<circle cx="115" cy="151" r="3" fill="#DBFF00"/>
<circle cx="115" cy="163" r="3" fill="#DBFF00"/>
<circle cx="115" cy="175" r="3" fill="#DBFF00"/>
<circle cx="115" cy="187" r="3" fill="#DBFF00"/>
<circle cx="115" cy="199" r="3" fill="#DBFF00"/>
<circle cx="115" cy="211" r="3" fill="#DBFF00"/>
<circle cx="115" cy="223" r="3" fill="#DBFF00"/>
<circle cx="115" cy="235" r="3" fill="#DBFF00"/>
<circle cx="115" cy="247" r="3" fill="#DBFF00"/>
<circle cx="115" cy="259" r="3" fill="#DBFF00"/>
<circle cx="115" cy="271" r="3" fill="#DBFF00"/>
<circle cx="127" cy="133" r="3" fill="#DBFF00"/>
<circle cx="127" cy="145" r="3" fill="#DBFF00"/>
<circle cx="127" cy="157" r="3" fill="#DBFF00"/>
<circle cx="127" cy="169" r="3" fill="#DBFF00"/>
<circle cx="127" cy="181" r="3" fill="#DBFF00"/>
<circle cx="127" cy="193" r="3" fill="#DBFF00"/>
<circle cx="127" cy="205" r="3" fill="#DBFF00"/>
<circle cx="127" cy="217" r="3" fill="#DBFF00"/>
<circle cx="127" cy="229" r="3" fill="#DBFF00"/>
<circle cx="127" cy="241" r="3" fill="#DBFF00"/>
<circle cx="127" cy="253" r="3" fill="#DBFF00"/>
<circle cx="127" cy="265" r="3" fill="#DBFF00"/>
<circle cx="127" cy="277" r="3" fill="#DBFF00"/>
<circle cx="139" cy="127" r="3" fill="#DBFF00"/>
<circle cx="139" cy="139" r="3" fill="#DBFF00"/>
<circle cx="139" cy="151" r="3" fill="#DBFF00"/>
<circle cx="139" cy="163" r="3" fill="#DBFF00"/>
<circle cx="139" cy="175" r="3" fill="#DBFF00"/>
<circle cx="139" cy="187" r="3" fill="#DBFF00"/>
<circle cx="139" cy="199" r="3" fill="#DBFF00"/>
<circle cx="139" cy="211" r="3" fill="#DBFF00"/>
<circle cx="139" cy="223" r="3" fill="#DBFF00"/>
<circle cx="139" cy="235" r="3" fill="#DBFF00"/>
<circle cx="139" cy="247" r="3" fill="#DBFF00"/>
<circle cx="139" cy="259" r="3" fill="#DBFF00"/>
<circle cx="139" cy="271" r="3" fill="#DBFF00"/>
<circle cx="139" cy="283" r="3" fill="#DBFF00"/>
<circle cx="151" cy="121" r="3" fill="#DBFF00"/>
<circle cx="151" cy="133" r="3" fill="#DBFF00"/>
<circle cx="151" cy="145" r="3" fill="#DBFF00"/>
<circle cx="151" cy="157" r="3" fill="#DBFF00"/>
<circle cx="151" cy="169" r="3" fill="#DBFF00"/>
<circle cx="151" cy="181" r="3" fill="#DBFF00"/>
<circle cx="151" cy="193" r="3" fill="#DBFF00"/>
<circle cx="151" cy="205" r="3" fill="#DBFF00"/>
<circle cx="151" cy="217" r="3" fill="#DBFF00"/>
<circle cx="151" cy="229" r="3" fill="#DBFF00"/>
<circle cx="151" cy="241" r="3" fill="#DBFF00"/>
<circle cx="151" cy="253" r="3" fill="#DBFF00"/>
<circle cx="151" cy="265" r="3" fill="#DBFF00"/>
<circle cx="151" cy="277" r="3" fill="#DBFF00"/>
<circle cx="151" cy="289" r="3" fill="#DBFF00"/>
<circle cx="163" cy="115" r="3" fill="#DBFF00"/>
<circle cx="163" cy="127" r="3" fill="#DBFF00"/>
<circle cx="163" cy="139" r="3" fill="#DBFF00"/>
<circle cx="163" cy="151" r="3" fill="#DBFF00"/>
<circle cx="163" cy="163" r="3" fill="#DBFF00"/>
<circle cx="163" cy="175" r="3" fill="#DBFF00"/>
<circle cx="163" cy="187" r="3" fill="#DBFF00"/>
<circle cx="163" cy="199" r="3" fill="#DBFF00"/>
<circle cx="163" cy="211" r="3" fill="#DBFF00"/>
<circle cx="163" cy="223" r="3" fill="#DBFF00"/>
<circle cx="163" cy="235" r="3" fill="#DBFF00"/>
<circle cx="163" cy="247" r="3" fill="#DBFF00"/>
<circle cx="163" cy="259" r="3" fill="#DBFF00"/>
<circle cx="163" cy="271" r="3" fill="#DBFF00"/>
<circle cx="163" cy="283" r="3" fill="#DBFF00"/>
<circle cx="163" cy="295" r="3" fill="#DBFF00"/>
<circle cx="175" cy="109" r="3" fill="#DBFF00"/>
<circle cx="175" cy="121" r="3" fill="#DBFF00"/>
<circle cx="175" cy="133" r="3" fill="#DBFF00"/>
<circle cx="175" cy="145" r="3" fill="#DBFF00"/>
<circle cx="175" cy="157" r="3" fill="#DBFF00"/>
<circle cx="175" cy="169" r="3" fill="#DBFF00"/>
<circle cx="175" cy="181" r="3" fill="#DBFF00"/>
<circle cx="175" cy="193" r="3" fill="#DBFF00"/>
<circle cx="175" cy="205" r="3" fill="#DBFF00"/>
<circle cx="175" cy="217" r="3" fill="#DBFF00"/>
<circle cx="175" cy="229" r="3" fill="#DBFF00"/>
<circle cx="175" cy="241" r="3" fill="#DBFF00"/>
<circle cx="175" cy="253" r="3" fill="#DBFF00"/>
<circle cx="175" cy="265" r="3" fill="#DBFF00"/>
<circle cx="175" cy="277" r="3" fill="#DBFF00"/>
<circle cx="175" cy="289" r="3" fill="#DBFF00"/>
<circle cx="175" cy="301" r="3" fill="#DBFF00"/>
<circle cx="187" cy="103" r="3" fill="#DBFF00"/>
<circle cx="187" cy="115" r="3" fill="#DBFF00"/>
<circle cx="187" cy="127" r="3" fill="#DBFF00"/>
<circle cx="187" cy="139" r="3" fill="#DBFF00"/>
<circle cx="187" cy="151" r="3" fill="#DBFF00"/>
<circle cx="187" cy="163" r="3" fill="#DBFF00"/>
<circle cx="187" cy="175" r="3" fill="#DBFF00"/>
<circle cx="187" cy="187" r="3" fill="#DBFF00"/>
<circle cx="187" cy="199" r="3" fill="#DBFF00"/>
<circle cx="187" cy="211" r="3" fill="#DBFF00"/>
<circle cx="187" cy="223" r="3" fill="#DBFF00"/>
<circle cx="187" cy="235" r="3" fill="#DBFF00"/>
<circle cx="187" cy="247" r="3" fill="#DBFF00"/>
<circle cx="187" cy="259" r="3" fill="#DBFF00"/>
<circle cx="187" cy="271" r="3" fill="#DBFF00"/>
<circle cx="187" cy="283" r="3" fill="#DBFF00"/>
<circle cx="187" cy="295" r="3" fill="#DBFF00"/>
<circle cx="187" cy="307" r="3" fill="#DBFF00"/>
<circle cx="199" cy="97" r="3" fill="#DBFF00"/>
<circle cx="199" cy="109" r="3" fill="#DBFF00"/>
<circle cx="199" cy="121" r="3" fill="#DBFF00"/>
<circle cx="199" cy="133" r="3" fill="#DBFF00"/>
<circle cx="199" cy="145" r="3" fill="#DBFF00"/>
<circle cx="199" cy="157" r="3" fill="#DBFF00"/>
<circle cx="199" cy="169" r="3" fill="#DBFF00"/>
<circle cx="199" cy="181" r="3" fill="#DBFF00"/>
<circle cx="199" cy="193" r="3" fill="#DBFF00"/>
<circle cx="199" cy="205" r="3" fill="#DBFF00"/>
<circle cx="199" cy="217" r="3" fill="#DBFF00"/>
<circle cx="199" cy="229" r="3" fill="#DBFF00"/>
<circle cx="199" cy="241" r="3" fill="#DBFF00"/>
<circle cx="199" cy="253" r="3" fill="#DBFF00"/>
<circle cx="199" cy="265" r="3" fill="#DBFF00"/>
<circle cx="199" cy="277" r="3" fill="#DBFF00"/>
<circle cx="199" cy="289" r="3" fill="#DBFF00"/>
<circle cx="199" cy="301" r="3" fill="#DBFF00"/>
<circle cx="199" cy="313" r="3" fill="#DBFF00"/>
<circle cx="211" cy="97" r="3" fill="#DBFF00"/>
<circle cx="211" cy="109" r="3" fill="#DBFF00"/>
<circle cx="211" cy="121" r="3" fill="#DBFF00"/>
<circle cx="211" cy="133" r="3" fill="#DBFF00"/>
<circle cx="211" cy="145" r="3" fill="#DBFF00"/>
<circle cx="211" cy="157" r="3" fill="#DBFF00"/>
<circle cx="211" cy="169" r="3" fill="#DBFF00"/>
<circle cx="211" cy="181" r="3" fill="#DBFF00"/>
<circle cx="211" cy="193" r="3" fill="#DBFF00"/>
<circle cx="211" cy="205" r="3" fill="#DBFF00"/>
<circle cx="211" cy="217" r="3" fill="#DBFF00"/>
<circle cx="211" cy="229" r="3" fill="#DBFF00"/>
<circle cx="211" cy="241" r="3" fill="#DBFF00"/>
<circle cx="211" cy="253" r="3" fill="#DBFF00"/>
<circle cx="211" cy="265" r="3" fill="#DBFF00"/>
<circle cx="211" cy="277" r="3" fill="#DBFF00"/>
<circle cx="211" cy="289" r="3" fill="#DBFF00"/>
<circle cx="211" cy="301" r="3" fill="#DBFF00"/>
<circle cx="211" cy="313" r="3" fill="#DBFF00"/>
<circle cx="223" cy="103" r="3" fill="#DBFF00"/>
<circle cx="223" cy="115" r="3" fill="#DBFF00"/>
<circle cx="223" cy="127" r="3" fill="#DBFF00"/>
<circle cx="223" cy="139" r="3" fill="#DBFF00"/>
<circle cx="223" cy="151" r="3" fill="#DBFF00"/>
<circle cx="223" cy="163" r="3" fill="#DBFF00"/>
<circle cx="223" cy="175" r="3" fill="#DBFF00"/>
<circle cx="223" cy="187" r="3" fill="#DBFF00"/>
<circle cx="223" cy="199" r="3" fill="#DBFF00"/>
<circle cx="223" cy="211" r="3" fill="#DBFF00"/>
<circle cx="223" cy="223" r="3" fill="#DBFF00"/>
<circle cx="223" cy="235" r="3" fill="#DBFF00"/>
<circle cx="223" cy="247" r="3" fill="#DBFF00"/>
<circle cx="223" cy="259" r="3" fill="#DBFF00"/>
<circle cx="223" cy="271" r="3" fill="#DBFF00"/>
<circle cx="223" cy="283" r="3" fill="#DBFF00"/>
<circle cx="223" cy="295" r="3" fill="#DBFF00"/>
<circle cx="223" cy="307" r="3" fill="#DBFF00"/>
<circle cx="235" cy="109" r="3" fill="#DBFF00"/>
<circle cx="235" cy="121" r="3" fill="#DBFF00"/>
<circle cx="235" cy="133" r="3" fill="#DBFF00"/>
<circle cx="235" cy="145" r="3" fill="#DBFF00"/>
<circle cx="235" cy="157" r="3" fill="#DBFF00"/>
<circle cx="235" cy="169" r="3" fill="#DBFF00"/>
<circle cx="235" cy="181" r="3" fill="#DBFF00"/>
<circle cx="235" cy="193" r="3" fill="#DBFF00"/>
<circle cx="235" cy="205" r="3" fill="#DBFF00"/>
<circle cx="235" cy="217" r="3" fill="#DBFF00"/>
<circle cx="235" cy="229" r="3" fill="#DBFF00"/>
<circle cx="235" cy="241" r="3" fill="#DBFF00"/>
<circle cx="235" cy="253" r="3" fill="#DBFF00"/>
<circle cx="235" cy="265" r="3" fill="#DBFF00"/>
<circle cx="235" cy="277" r="3" fill="#DBFF00"/>
<circle cx="235" cy="289" r="3" fill="#DBFF00"/>
<circle cx="235" cy="301" r="3" fill="#DBFF00"/>
<circle cx="247" cy="115" r="3" fill="#DBFF00"/>
<circle cx="247" cy="127" r="3" fill="#DBFF00"/>
<circle cx="247" cy="139" r="3" fill="#DBFF00"/>
<circle cx="247" cy="151" r="3" fill="#DBFF00"/>
<circle cx="247" cy="163" r="3" fill="#DBFF00"/>
<circle cx="247" cy="175" r="3" fill="#DBFF00"/>
<circle cx="247" cy="187" r="3" fill="#DBFF00"/>
<circle cx="247" cy="199" r="3" fill="#DBFF00"/>
<circle cx="247" cy="211" r="3" fill="#DBFF00"/>
<circle cx="247" cy="223" r="3" fill="#DBFF00"/>
<circle cx="247" cy="235" r="3" fill="#DBFF00"/>
<circle cx="247" cy="247" r="3" fill="#DBFF00"/>
<circle cx="247" cy="259" r="3" fill="#DBFF00"/>
<circle cx="247" cy="271" r="3" fill="#DBFF00"/>
<circle cx="247" cy="283" r="3" fill="#DBFF00"/>
<circle cx="247" cy="295" r="3" fill="#DBFF00"/>
<circle cx="259" cy="121" r="3" fill="#DBFF00"/>
<circle cx="259" cy="133" r="3" fill="#DBFF00"/>
<circle cx="259" cy="145" r="3" fill="#DBFF00"/>
<circle cx="259" cy="157" r="3" fill="#DBFF00"/>
<circle cx="259" cy="169" r="3" fill="#DBFF00"/>
<circle cx="259" cy="181" r="3" fill="#DBFF00"/>
<circle cx="259" cy="193" r="3" fill="#DBFF00"/>
<circle cx="259" cy="205" r="3" fill="#DBFF00"/>
<circle cx="259" cy="217" r="3" fill="#DBFF00"/>
<circle cx="259" cy="229" r="3" fill="#DBFF00"/>
<circle cx="259" cy="241" r="3" fill="#DBFF00"/>
<circle cx="259" cy="253" r="3" fill="#DBFF00"/>
<circle cx="259" cy="265" r="3" fill="#DBFF00"/>
<circle cx="259" cy="277" r="3" fill="#DBFF00"/>
<circle cx="259" cy="289" r="3" fill="#DBFF00"/>
<circle cx="271" cy="127" r="3" fill="#DBFF00"/>
<circle cx="271" cy="139" r="3" fill="#DBFF00"/>
<circle cx="271" cy="151" r="3" fill="#DBFF00"/>
<circle cx="271" cy="163" r="3" fill="#DBFF00"/>
<circle cx="271" cy="175" r="3" fill="#DBFF00"/>
<circle cx="271" cy="187" r="3" fill="#DBFF00"/>
<circle cx="271" cy="199" r="3" fill="#DBFF00"/>
<circle cx="271" cy="211" r="3" fill="#DBFF00"/>
<circle cx="271" cy="223" r="3" fill="#DBFF00"/>
<circle cx="271" cy="235" r="3" fill="#DBFF00"/>
<circle cx="271" cy="247" r="3" fill="#DBFF00"/>
<circle cx="271" cy="259" r="3" fill="#DBFF00"/>
<circle cx="271" cy="271" r="3" fill="#DBFF00"/>
<circle cx="271" cy="283" r="3" fill="#DBFF00"/>
<circle cx="283" cy="133" r="3" fill="#DBFF00"/>
<circle cx="283" cy="145" r="3" fill="#DBFF00"/>
<circle cx="283" cy="157" r="3" fill="#DBFF00"/>
<circle cx="283" cy="169" r="3" fill="#DBFF00"/>
<circle cx="283" cy="181" r="3" fill="#DBFF00"/>
<circle cx="283" cy="193" r="3" fill="#DBFF00"/>
<circle cx="283" cy="205" r="3" fill="#DBFF00"/>
<circle cx="283" cy="217" r="3" fill="#DBFF00"/>
<circle cx="283" cy="229" r="3" fill="#DBFF00"/>
<circle cx="283" cy="241" r="3" fill="#DBFF00"/>
<circle cx="283" cy="253" r="3" fill="#DBFF00"/>
<circle cx="283" cy="265" r="3" fill="#DBFF00"/>
<circle cx="283" cy="277" r="3" fill="#DBFF00"/>
<circle cx="295" cy="139" r="3" fill="#DBFF00"/>
<circle cx="295" cy="151" r="3" fill="#DBFF00"/>
<circle cx="295" cy="163" r="3" fill="#DBFF00"/>
<circle cx="295" cy="175" r="3" fill="#DBFF00"/>
<circle cx="295" cy="187" r="3" fill="#DBFF00"/>
<circle cx="295" cy="199" r="3" fill="#DBFF00"/>
<circle cx="295" cy="211" r="3" fill="#DBFF00"/>
<circle cx="295" cy="223" r="3" fill="#DBFF00"/>
<circle cx="295" cy="235" r="3" fill="#DBFF00"/>
<circle cx="295" cy="247" r="3" fill="#DBFF00"/>
<circle cx="295" cy="259" r="3" fill="#DBFF00"/>
<circle cx="295" cy="271" r="3" fill="#DBFF00"/>
<circle cx="307" cy="145" r="3" fill="#DBFF00"/>
<circle cx="307" cy="157" r="3" fill="#DBFF00"/>
<circle cx="307" cy="169" r="3" fill="#DBFF00"/>
<circle cx="307" cy="181" r="3" fill="#DBFF00"/>
<circle cx="307" cy="193" r="3" fill="#DBFF00"/>
<circle cx="307" cy="205" r="3" fill="#DBFF00"/>
<circle cx="307" cy="217" r="3" fill="#DBFF00"/>
<circle cx="307" cy="229" r="3" fill="#DBFF00"/>
<circle cx="307" cy="241" r="3" fill="#DBFF00"/>
<circle cx="307" cy="253" r="3" fill="#DBFF00"/>
<circle cx="307" cy="265" r="3" fill="#DBFF00"/>
<circle cx="319" cy="151" r="3" fill="#DBFF00"/>
<circle cx="319" cy="163" r="3" fill="#DBFF00"/>
<circle cx="319" cy="175" r="3" fill="#DBFF00"/>
<circle cx="319" cy="187" r="3" fill="#DBFF00"/>
<circle cx="319" cy="199" r="3" fill="#DBFF00"/>
<circle cx="319" cy="211" r="3" fill="#DBFF00"/>
<circle cx="319" cy="223" r="3" fill="#DBFF00"/>
<circle cx="319" cy="235" r="3" fill="#DBFF00"/>
<circle cx="319" cy="247" r="3" fill="#DBFF00"/>
<circle cx="319" cy="259" r="3" fill="#DBFF00"/>
</svg>
