<svg width="60" height="60" viewBox="0 0 60 60" fill="none" xmlns="http://www.w3.org/2000/svg">
<path d="M15 35H45V31.25H15V35ZM15 26.875H45V23.125H15V26.875ZM15 18.75H45V15H15V18.75ZM55 55L45 45H8.75C7.79167 45 6.92708 44.6146 6.15625 43.8438C5.38542 43.0729 5 42.2083 5 41.25V8.75C5 7.79167 5.38542 6.92708 6.15625 6.15625C6.92708 5.38542 7.79167 5 8.75 5H51.25C52.25 5 53.125 5.38542 53.875 6.15625C54.625 6.92708 55 7.79167 55 8.75V55ZM8.75 8.75V41.25H46.5625L51.25 45.9375V8.75H8.75Z" fill="#C1DB29"/>
</svg>
