<svg width="60" height="60" viewBox="0 0 60 60" fill="none" xmlns="http://www.w3.org/2000/svg">
<path d="M30 27.5C23.2917 27.5 17.8646 26.4792 13.7188 24.4375C9.57292 22.3958 7.5 20.0833 7.5 17.5C7.5 14.875 9.57292 12.5521 13.7188 10.5312C17.8646 8.51042 23.2917 7.5 30 7.5C36.7083 7.5 42.1354 8.51042 46.2812 10.5312C50.4271 12.5521 52.5 14.875 52.5 17.5C52.5 20.0833 50.4271 22.3958 46.2812 24.4375C42.1354 26.4792 36.7083 27.5 30 27.5ZM30 40C23.9167 40 18.6458 39.0833 14.1875 37.25C9.72917 35.4167 7.5 33.2083 7.5 30.625V24.375C7.5 26 8.28125 27.4062 9.84375 28.5938C11.4062 29.7812 13.3438 30.7604 15.6562 31.5312C17.9688 32.3021 20.4271 32.8646 23.0312 33.2188C25.6354 33.5729 27.9583 33.75 30 33.75C32.0833 33.75 34.4167 33.5729 37 33.2188C39.5833 32.8646 42.0312 32.3125 44.3438 31.5625C46.6562 30.8125 48.5938 29.8438 50.1562 28.6562C51.7188 27.4688 52.5 26.0417 52.5 24.375V30.625C52.5 33.2083 50.2708 35.4167 45.8125 37.25C41.3542 39.0833 36.0833 40 30 40ZM30 52.5C23.9167 52.5 18.6458 51.5833 14.1875 49.75C9.72917 47.9167 7.5 45.7083 7.5 43.125V36.875C7.5 38.5 8.28125 39.9062 9.84375 41.0938C11.4062 42.2812 13.3438 43.2604 15.6562 44.0312C17.9688 44.8021 20.4271 45.3646 23.0312 45.7188C25.6354 46.0729 27.9583 46.25 30 46.25C32.0833 46.25 34.4167 46.0729 37 45.7188C39.5833 45.3646 42.0312 44.8125 44.3438 44.0625C46.6562 43.3125 48.5938 42.3438 50.1562 41.1562C51.7188 39.9688 52.5 38.5417 52.5 36.875V43.125C52.5 45.7083 50.2708 47.9167 45.8125 49.75C41.3542 51.5833 36.0833 52.5 30 52.5Z" fill="#05171B" fill-opacity="0.7"/>
</svg>
