<svg width="60" height="60" viewBox="0 0 60 60" fill="none" xmlns="http://www.w3.org/2000/svg">
<path d="M14.8972 25.4257H26.2715C26.5534 26.3856 26.9254 28.5177 24.9935 29.4057C24.2716 29.5577 23.7155 30.1718 23.7155 30.9398C23.7155 31.8177 24.4314 32.5359 25.3116 32.5359H34.3819C35.2598 32.5359 35.978 31.8201 35.978 30.9398C35.978 30.1677 35.4178 29.5537 34.6879 29.4037C32.76 28.5157 33.13 26.3856 33.4119 25.4257H43.4422C44.3241 25.4257 45.0442 24.7078 45.0442 23.8255V4.10011C45.0442 3.2182 44.3264 2.5 43.4422 2.5H14.8984C14.0165 2.5 13.3003 3.21786 13.3003 4.10011V23.8238C13.3006 24.7077 14.0185 25.4257 14.8984 25.4257H14.8972ZM34.045 30.8699C34.139 30.9117 34.2348 30.9258 34.3309 30.9318L25.3232 30.9399C25.4313 30.9379 25.5391 30.9158 25.6453 30.8699C28.1872 29.7178 28.3292 27.214 27.9234 25.426H31.7675C31.3614 27.2139 31.5013 29.7177 34.0453 30.8699H34.045ZM43.4427 4.0996L43.4447 23.8233L43.4427 24.6232V23.8233H32.8424H32.8364H14.8981V4.0996H43.4427Z" fill="#05171B" fill-opacity="0.7"/>
<path d="M12.8003 23.8238L12.8003 23.824C12.8007 24.9826 13.7408 25.925 14.8972 25.9257C14.8976 25.9257 14.898 25.9257 14.8984 25.9257H25.8845C25.9783 26.3456 26.0426 26.8669 25.9681 27.3693C25.8764 27.988 25.5801 28.5682 24.8299 28.9301C23.9266 29.1477 23.2155 29.9365 23.2155 30.9398C23.2155 32.0934 24.1547 33.0359 25.3116 33.0359H34.3819C35.5354 33.0359 36.478 32.0967 36.478 30.9398C36.478 29.9308 35.7611 29.1426 34.8507 28.9276C34.1032 28.5658 33.8075 27.9864 33.7158 27.3683C33.6413 26.8662 33.7054 26.3454 33.7989 25.9257H43.4422C44.5993 25.9257 45.5442 24.9848 45.5442 23.8255V4.10011C45.5442 2.94173 44.6022 2 43.4422 2H14.8984C13.7396 2 12.8003 2.94245 12.8003 4.10011L12.8003 23.8238ZM31.3217 28.5319C31.5323 29.2241 31.9037 29.8814 32.4878 30.4335L27.197 30.4382C27.7838 29.8852 28.1567 29.2261 28.368 28.5321C28.6348 27.656 28.6404 26.74 28.5239 25.926H31.1668C31.05 26.7399 31.0552 27.6558 31.3217 28.5319ZM42.9427 4.5996L42.9446 23.3233H32.8424H32.8364H15.3981V4.5996H42.9427Z" stroke="#05171B" stroke-opacity="0.7"/>
<path d="M51.3097 36.9316H8.39597C7.48791 36.9316 6.75 37.5976 6.75 38.4136V54.0398C6.75 54.8558 7.48795 55.5218 8.39597 55.5218H51.308C52.216 55.5218 52.956 54.8558 52.956 54.0398V38.4136C52.958 37.5979 52.2177 36.9316 51.3097 36.9316ZM51.3097 53.9216L8.3514 54.0415L8.39727 38.5335L51.3556 38.4136L51.4054 53.8994C51.3977 53.9054 51.3656 53.9216 51.3097 53.9216Z" fill="#05171B" fill-opacity="0.7"/>
<path d="M53.456 38.4148C53.4588 37.2732 52.4423 36.4316 51.3097 36.4316H8.39597C7.26208 36.4316 6.25 37.2737 6.25 38.4136V54.0398C6.25 55.1797 7.26212 56.0218 8.39597 56.0218H51.308C52.441 56.0218 53.456 55.1805 53.456 54.0398V38.4148ZM53.456 38.4148L52.956 38.4136H53.456V38.4148ZM50.8572 38.915L50.9039 53.4228L8.85289 53.5401L8.8958 39.0321L50.8572 38.915ZM8.85141 54.0401L8.3514 54.0415L8.35288 53.5415L8.85141 54.0401Z" stroke="#05171B" stroke-opacity="0.7"/>
<path d="M46.3374 42.2393H35.3077C34.8657 42.2393 34.5078 42.5992 34.5078 43.0391C34.5078 43.4791 34.8677 43.839 35.3077 43.839H46.3374C46.7794 43.839 47.1373 43.4791 47.1373 43.0391C47.1376 42.5992 46.7794 42.2393 46.3374 42.2393Z" fill="#05171B" fill-opacity="0.7"/>
<path d="M47.6373 43.0395C47.6378 42.3236 47.056 41.7393 46.3374 41.7393H35.3077C34.5888 41.7393 34.0078 42.3239 34.0078 43.0391C34.0078 43.7552 34.5916 44.339 35.3077 44.339H46.3374C47.0562 44.339 47.6371 43.7546 47.6373 43.0395ZM47.6373 43.0395L47.1373 43.0391H47.6373C47.6373 43.0393 47.6373 43.0394 47.6373 43.0395Z" stroke="#05171B" stroke-opacity="0.7"/>
<path d="M44.7458 47.2397H36.9019C36.46 47.2397 36.1021 47.5997 36.1021 48.0396C36.1021 48.4796 36.462 48.8395 36.9019 48.8395H44.7458C45.1878 48.8395 45.5457 48.4796 45.5457 48.0396C45.546 47.5997 45.1881 47.2397 44.7458 47.2397Z" fill="#05171B" fill-opacity="0.7"/>
<path d="M46.0457 48.04C46.0463 47.3242 45.4649 46.7397 44.7458 46.7397H36.9019C36.183 46.7397 35.6021 47.3244 35.6021 48.0396C35.6021 48.7557 36.1858 49.3395 36.9019 49.3395H44.7458C45.4646 49.3395 46.0455 48.7551 46.0457 48.04ZM46.0457 48.04L45.5457 48.0396H46.0457C46.0457 48.0398 46.0457 48.0399 46.0457 48.04Z" stroke="#05171B" stroke-opacity="0.7"/>
<path d="M15.3762 44.0418C15.3762 44.9573 14.6339 45.6996 13.7181 45.6996C12.8023 45.6996 12.0601 44.9573 12.0601 44.0418C12.0601 43.1261 12.8024 42.3838 13.7181 42.3838C14.6339 42.3838 15.3762 43.1261 15.3762 44.0418Z" fill="#05171B" fill-opacity="0.7"/>
<path d="M13.7181 46.1996C14.9099 46.1996 15.8762 45.2335 15.8762 44.0418C15.8762 42.85 14.91 41.8838 13.7181 41.8838C12.5262 41.8838 11.5601 42.8499 11.5601 44.0418C11.5601 45.2335 12.5263 46.1996 13.7181 46.1996Z" stroke="#05171B" stroke-opacity="0.7"/>
</svg>
