<svg width="60" height="60" viewBox="0 0 60 60" fill="none" xmlns="http://www.w3.org/2000/svg">
<path d="M12.8008 23.8238L12.8008 23.824C12.8012 24.9826 13.7413 25.925 14.8977 25.9257C14.8981 25.9257 14.8985 25.9257 14.8989 25.9257H25.885C25.9787 26.3456 26.0431 26.8669 25.9686 27.3693C25.8769 27.988 25.5806 28.5682 24.8304 28.9301C23.9271 29.1477 23.216 29.9365 23.216 30.9398C23.216 32.0934 24.1552 33.0359 25.3121 33.0359H34.3824C35.5359 33.0359 36.4785 32.0967 36.4785 30.9398C36.4785 29.9308 35.7616 29.1426 34.8512 28.9276C34.1037 28.5658 33.808 27.9864 33.7163 27.3683C33.6418 26.8662 33.7059 26.3454 33.7994 25.9257H43.4426C44.5998 25.9257 45.5447 24.9848 45.5447 23.8255V4.10011C45.5447 2.94173 44.6027 2 43.4426 2H14.8989C13.7401 2 12.8008 2.94245 12.8008 4.10011L12.8008 23.8238ZM31.3222 28.5319C31.5328 29.2241 31.9042 29.8814 32.4883 30.4335L27.1975 30.4382C27.7842 29.8852 28.1572 29.2261 28.3685 28.5321C28.6353 27.656 28.6409 26.74 28.5244 25.926H31.1673C31.0505 26.7399 31.0557 27.6558 31.3222 28.5319ZM42.9432 4.5996L42.9451 23.3233H32.8429H32.8368H15.3986V4.5996H42.9432Z" fill="#C1DB29" stroke="#C1DB29"/>
<path d="M53.456 38.4148C53.4588 37.2732 52.4423 36.4316 51.3097 36.4316H8.39597C7.26208 36.4316 6.25 37.2737 6.25 38.4136V54.0398C6.25 55.1797 7.26212 56.0218 8.39597 56.0218H51.308C52.441 56.0218 53.456 55.1805 53.456 54.0398V38.4148ZM53.456 38.4148L52.956 38.4136H53.456V38.4148ZM50.8572 38.915L50.9039 53.4228L8.85289 53.5401L8.8958 39.0321L50.8572 38.915ZM8.85141 54.0401L8.3514 54.0415L8.35288 53.5415L8.85141 54.0401Z" fill="#C1DB29" stroke="#C1DB29"/>
<path d="M47.6373 43.0395C47.6378 42.3236 47.056 41.7393 46.3374 41.7393H35.3077C34.5888 41.7393 34.0078 42.3239 34.0078 43.0391C34.0078 43.7552 34.5916 44.339 35.3077 44.339H46.3374C47.0562 44.339 47.6371 43.7546 47.6373 43.0395ZM47.6373 43.0395L47.1373 43.0391H47.6373C47.6373 43.0393 47.6373 43.0394 47.6373 43.0395Z" fill="#C1DB29" stroke="#C1DB29"/>
<path d="M46.0452 48.04C46.0458 47.3242 45.4644 46.7397 44.7453 46.7397H36.9014C36.1825 46.7397 35.6016 47.3244 35.6016 48.0396C35.6016 48.7557 36.1854 49.3395 36.9014 49.3395H44.7453C45.4641 49.3395 46.045 48.7551 46.0452 48.04ZM46.0452 48.04L45.5453 48.0396H46.0452C46.0452 48.0398 46.0452 48.0399 46.0452 48.04Z" fill="#C1DB29" stroke="#C1DB29"/>
<path d="M13.7186 46.1996C14.9104 46.1996 15.8767 45.2335 15.8767 44.0418C15.8767 42.85 14.9105 41.8838 13.7186 41.8838C12.5267 41.8838 11.5605 42.8499 11.5605 44.0418C11.5605 45.2335 12.5268 46.1996 13.7186 46.1996Z" fill="#C1DB29" stroke="#C1DB29"/>
</svg>
