<svg width="820" height="580" viewBox="0 0 820 580" fill="none" xmlns="http://www.w3.org/2000/svg">
<g clip-path="url(#clip0_511_11590)">
<mask id="path-1-outside-1_511_11590" maskUnits="userSpaceOnUse" x="2.00977" y="109" width="572" height="373" fill="black">
<rect fill="white" x="2.00977" y="109" width="572" height="373"/>
<path fill-rule="evenodd" clip-rule="evenodd" d="M563.326 314.37L563.323 314.369C541.182 302.916 519.064 291.474 499.835 280.373C406.098 226.253 304.206 198.502 221.437 188.93C180.054 184.144 144.372 184.013 117.636 187.008C66.1924 192.773 78.2043 219.136 104.2 254.647C260.005 408.5 214.009 466 47.718 295.996C29.5114 271.125 16.0978 245.63 10.6576 221.474C5.24195 197.428 6.79755 168.601 28.0838 147.315C38.4779 136.921 52.2411 130.645 64.7851 126.56C77.9836 122.263 93.3017 119.297 109.841 117.444C142.98 113.731 184.111 114.147 229.479 119.394C320.212 129.886 431.572 160.132 534.835 219.751L563.326 314.37ZM291.01 426C281.362 459.572 269.01 478.814 242.51 474.5C216.01 470.186 212.659 452.692 212.659 431.429C212.659 415.902 221.851 402.521 235.09 396.432C237.69 390.478 251.73 385.929 268.659 385.929C287.437 385.929 302.659 391.525 302.659 398.429C302.659 402.973 296.064 406.95 286.202 409.139C289.254 413.82 291.01 419.463 291.01 426Z"/>
</mask>
<path fill-rule="evenodd" clip-rule="evenodd" d="M563.326 314.37L563.323 314.369C541.182 302.916 519.064 291.474 499.835 280.373C406.098 226.253 304.206 198.502 221.437 188.93C180.054 184.144 144.372 184.013 117.636 187.008C66.1924 192.773 78.2043 219.136 104.2 254.647C260.005 408.5 214.009 466 47.718 295.996C29.5114 271.125 16.0978 245.63 10.6576 221.474C5.24195 197.428 6.79755 168.601 28.0838 147.315C38.4779 136.921 52.2411 130.645 64.7851 126.56C77.9836 122.263 93.3017 119.297 109.841 117.444C142.98 113.731 184.111 114.147 229.479 119.394C320.212 129.886 431.572 160.132 534.835 219.751L563.326 314.37ZM291.01 426C281.362 459.572 269.01 478.814 242.51 474.5C216.01 470.186 212.659 452.692 212.659 431.429C212.659 415.902 221.851 402.521 235.09 396.432C237.69 390.478 251.73 385.929 268.659 385.929C287.437 385.929 302.659 391.525 302.659 398.429C302.659 402.973 296.064 406.95 286.202 409.139C289.254 413.82 291.01 419.463 291.01 426Z" fill="#DBFF00"/>
<path d="M563.323 314.369L566.088 309.044L566.08 309.04L563.323 314.369ZM563.326 314.37L560.561 319.695L573.166 326.24L569.071 312.64L563.326 314.37ZM499.835 280.373L502.835 275.177L502.835 275.177L499.835 280.373ZM221.437 188.93L220.748 194.89L220.748 194.89L221.437 188.93ZM117.636 187.008L116.968 181.046L116.968 181.046L117.636 187.008ZM104.2 254.647L99.3591 258.191L99.6428 258.578L99.9846 258.916L104.2 254.647ZM47.718 295.996L42.8767 299.54L43.1295 299.885L43.4288 300.191L47.718 295.996ZM10.6576 221.474L16.511 220.156L16.511 220.156L10.6576 221.474ZM28.0838 147.315L23.8412 143.072L23.8412 143.072L28.0838 147.315ZM64.7851 126.56L62.9275 120.855L62.9275 120.855L64.7851 126.56ZM109.841 117.444L109.173 111.481L109.173 111.481L109.841 117.444ZM229.479 119.394L228.789 125.354L229.479 119.394ZM534.835 219.751L540.58 218.021L539.895 215.744L537.835 214.555L534.835 219.751ZM242.51 474.5L241.546 480.422L241.546 480.422L242.51 474.5ZM291.01 426L296.777 427.658L297.01 426.845V426H291.01ZM235.09 396.432L237.597 401.883L239.674 400.928L240.589 398.833L235.09 396.432ZM286.202 409.139L284.902 403.281L276.445 405.158L281.176 412.415L286.202 409.139ZM560.558 319.694L560.561 319.695L566.09 309.045L566.088 309.044L560.558 319.694ZM496.835 285.569C516.207 296.753 538.456 308.261 560.566 319.698L566.08 309.04C543.907 297.57 521.92 286.195 502.835 275.177L496.835 285.569ZM220.748 194.89C302.834 204.383 403.914 231.921 496.835 285.569L502.835 275.177C408.281 220.586 305.578 192.62 222.127 182.97L220.748 194.89ZM118.304 192.971C144.491 190.037 179.706 190.144 220.748 194.89L222.127 182.97C180.402 178.145 144.253 177.988 116.968 181.046L118.304 192.971ZM109.042 251.102C102.589 242.287 97.1747 234.267 93.4074 227.112C89.584 219.851 87.8115 214.127 87.8776 209.764C87.9358 205.917 89.4025 202.769 93.5279 199.993C98.0442 196.954 105.803 194.372 118.304 192.971L116.968 181.046C103.747 182.527 93.7158 185.402 86.8283 190.037C79.5499 194.935 75.9986 201.679 75.879 209.582C75.7671 216.969 78.6567 224.854 82.7893 232.703C86.9781 240.659 92.8141 249.25 99.3591 258.191L109.042 251.102ZM43.4288 300.191C85.1693 342.864 119.584 371.497 145.381 387.95C158.241 396.152 169.252 401.518 178.152 403.973C186.634 406.312 195.264 406.533 200.91 401.086C206.585 395.612 206.56 387.025 204.462 378.7C202.259 369.962 197.246 359.2 189.599 346.776C174.257 321.849 147.558 289.029 108.416 250.377L99.9846 258.916C138.745 297.191 164.723 329.253 179.38 353.066C186.733 365.012 191.049 374.585 192.826 381.633C194.706 389.095 193.309 391.746 192.579 392.45C191.821 393.181 189.013 394.52 181.343 392.404C174.091 390.404 164.235 385.742 151.834 377.833C127.106 362.061 93.412 334.13 52.0073 291.8L43.4288 300.191ZM4.80423 222.793C10.4913 248.044 24.3988 274.299 42.8767 299.54L52.5594 292.451C34.624 267.952 21.7044 243.216 16.511 220.156L4.80423 222.793ZM23.8412 143.072C0.515607 166.398 -0.845731 197.706 4.80423 222.793L16.511 220.156C11.3296 197.15 13.0795 170.804 32.3264 151.557L23.8412 143.072ZM62.9275 120.855C49.9959 125.066 35.2018 131.712 23.8412 143.072L32.3264 151.557C41.754 142.13 54.4863 136.224 66.6427 132.265L62.9275 120.855ZM109.173 111.481C92.3642 113.365 76.6234 116.396 62.9275 120.855L66.6427 132.265C79.3439 128.13 94.2392 125.23 110.509 123.407L109.173 111.481ZM230.168 113.433C184.459 108.147 142.86 107.706 109.173 111.481L110.509 123.407C143.099 119.755 183.764 120.147 228.789 125.354L230.168 113.433ZM537.835 214.555C433.756 154.465 321.583 124.005 230.168 113.433L228.789 125.354C318.84 135.767 429.389 165.8 531.835 224.947L537.835 214.555ZM569.071 312.64L540.58 218.021L529.09 221.481L557.58 316.1L569.071 312.64ZM241.546 480.422C248.956 481.629 255.718 481.238 261.853 479.14C268.001 477.038 273.165 473.341 277.543 468.467C286.119 458.92 291.915 444.575 296.777 427.658L285.244 424.343C280.458 440.997 275.254 453.059 268.616 460.448C265.388 464.041 261.892 466.445 257.97 467.786C254.035 469.132 249.315 469.529 243.475 468.578L241.546 480.422ZM206.659 431.429C206.659 442.118 207.439 453.182 212.386 462.205C217.617 471.747 226.908 478.039 241.546 480.422L243.475 468.578C231.613 466.647 225.978 462.036 222.908 456.436C219.554 450.318 218.659 442.003 218.659 431.429H206.659ZM232.583 390.981C217.294 398.013 206.659 413.473 206.659 431.429H218.659C218.659 418.331 226.408 407.03 237.597 401.883L232.583 390.981ZM240.589 398.833C240.585 398.842 240.886 398.242 242.319 397.311C243.682 396.426 245.677 395.501 248.31 394.669C253.566 393.007 260.681 391.929 268.659 391.929V379.929C259.708 379.929 251.339 381.126 244.692 383.227C241.375 384.276 238.314 385.604 235.784 387.247C233.324 388.844 230.895 391.046 229.592 394.031L240.589 398.833ZM268.659 391.929C277.53 391.929 285.297 393.261 290.63 395.222C293.32 396.211 295.077 397.246 296.051 398.092C297.039 398.951 296.659 399.083 296.659 398.429H308.659C308.659 394.323 306.376 391.167 303.923 389.035C301.456 386.89 298.233 385.232 294.771 383.959C287.798 381.395 278.565 379.929 268.659 379.929V391.929ZM296.659 398.429C296.659 397.579 297.213 398.136 294.905 399.607C292.825 400.932 289.448 402.273 284.902 403.281L287.502 414.996C292.819 413.817 297.67 412.074 301.353 409.727C304.807 407.526 308.659 403.823 308.659 398.429H296.659ZM297.01 426C297.01 418.342 294.938 411.553 291.229 405.862L281.176 412.415C283.569 416.087 285.01 420.585 285.01 426H297.01Z" fill="#05171B" mask="url(#path-1-outside-1_511_11590)"/>
<path fill-rule="evenodd" clip-rule="evenodd" d="M1015.68 184.18C1004.75 175.487 989.269 175.487 978.338 184.18L934.83 218.78C902.037 244.859 855.585 244.859 822.792 218.78L779.284 184.18C768.353 175.487 752.869 175.487 741.938 184.18L698.43 218.78C665.637 244.859 619.185 244.859 586.392 218.78L542.884 184.18C531.953 175.487 516.469 175.487 505.538 184.18L424.684 248.48C411.716 258.793 392.843 256.641 382.531 243.673C372.218 230.705 374.37 211.832 387.338 201.52L468.192 137.219C500.985 111.14 547.437 111.14 580.23 137.219L623.738 171.82C634.669 180.513 650.153 180.513 661.084 171.82L704.592 137.219C737.385 111.14 783.837 111.14 816.63 137.219L860.138 171.82C871.069 180.513 886.553 180.513 897.484 171.82L940.992 137.219C973.785 111.14 1020.24 111.14 1053.03 137.219L1133.88 201.52C1146.85 211.832 1149 230.705 1138.69 243.673C1128.38 256.641 1109.51 258.793 1096.54 248.48L1015.68 184.18Z" fill="#DBFF00" stroke="#05171B" stroke-width="6" stroke-linecap="round" stroke-linejoin="round"/>
<path fill-rule="evenodd" clip-rule="evenodd" d="M1123.69 195.18C1112.75 186.487 1097.27 186.487 1086.34 195.18L1042.83 229.78C1010.04 255.859 963.587 255.859 930.794 229.78L887.286 195.18C876.355 186.487 860.871 186.487 849.94 195.18L806.432 229.78C773.639 255.859 727.187 255.859 694.394 229.78L650.886 195.18C639.955 186.487 624.471 186.487 613.54 195.18L532.686 259.48C519.718 269.793 500.845 267.641 490.533 254.673C480.22 241.705 482.372 222.832 495.34 212.52L576.194 148.219C608.987 122.14 655.439 122.14 688.232 148.219L731.74 182.82C742.671 191.513 758.155 191.513 769.086 182.82L812.594 148.219C845.387 122.14 891.839 122.14 924.632 148.219L968.14 182.82C979.071 191.513 994.555 191.513 1005.49 182.82L1048.99 148.219C1081.79 122.14 1128.24 122.14 1161.03 148.219L1241.89 212.52C1254.85 222.832 1257.01 241.705 1246.69 254.673C1236.38 267.641 1217.51 269.793 1204.54 259.48L1123.69 195.18Z" fill="#8957F4" stroke="#05171B" stroke-width="6" stroke-linecap="round" stroke-linejoin="round"/>
<path d="M515.325 118.934L583.259 236.599L515.325 354.264L379.457 354.264L311.523 236.599L379.457 118.934L515.325 118.934Z" fill="#DBFF00" stroke="#05171B" stroke-width="6" stroke-linejoin="round"/>
<path d="M164.688 149.211L198.899 208.467L164.688 267.723L96.2647 267.723L62.0533 208.467L96.2647 149.211L164.688 149.211Z" fill="#FFBB63" stroke="#05171B" stroke-width="6" stroke-linejoin="round"/>
<path d="M370.51 281L451.483 421.25H289.536L370.51 281Z" fill="#8957F4" stroke="#05171B" stroke-width="6" stroke-linejoin="round"/>
<path d="M497.041 198.236L504.541 211.227L497.041 224.217L482.041 224.217L474.541 211.227L482.041 198.236L497.041 198.236Z" fill="#F899A3" stroke="#05171B" stroke-width="6" stroke-linejoin="round"/>
<path d="M373.002 198.236L380.502 211.227L373.002 224.217L358.002 224.217L350.502 211.227L358.002 198.236L373.002 198.236Z" fill="#F899A3" stroke="#05171B" stroke-width="6" stroke-linejoin="round"/>
<circle cx="398.237" cy="177.385" r="11.3853" fill="#05171B"/>
<path d="M441.5 213.059C441.5 221.862 434.364 228.998 425.56 228.998C416.757 228.998 409.621 221.862 409.621 213.059" stroke="black" stroke-width="6" stroke-linecap="round"/>
<circle cx="452.887" cy="177.385" r="11.3853" fill="#05171B"/>
<path fill-rule="evenodd" clip-rule="evenodd" d="M1123.69 139.52C1112.76 130.827 1097.27 130.827 1086.34 139.52L1042.83 174.12C1010.04 200.199 963.588 200.199 930.795 174.12L887.286 139.52C876.355 130.827 860.872 130.827 849.941 139.52L806.432 174.12C773.639 200.199 727.188 200.199 694.395 174.12L650.886 139.52C639.955 130.827 624.472 130.827 613.541 139.52L563.387 174.12C550.419 184.433 531.547 182.281 521.234 169.313C510.921 156.345 513.073 137.473 526.041 127.16L576.195 92.5593C608.988 66.4802 655.439 66.4802 688.232 92.5593L731.741 127.16C742.672 135.853 758.156 135.853 769.087 127.16L812.595 92.5593C845.388 66.4802 891.839 66.4802 924.632 92.5593L968.141 127.16C979.072 135.853 994.556 135.853 1005.49 127.16L1048.99 92.5593C1081.79 66.4802 1128.24 66.4802 1161.03 92.5593L1241.89 156.86C1254.85 167.172 1257.01 186.045 1246.69 199.013C1236.38 211.98 1217.51 214.133 1204.54 203.82L1123.69 139.52Z" fill="#ABD0D6" stroke="#05171B" stroke-width="6" stroke-linecap="round" stroke-linejoin="round"/>
<path fill-rule="evenodd" clip-rule="evenodd" d="M1015.68 128.52C1004.75 119.827 989.27 119.827 978.339 128.52L934.83 163.12C902.037 189.199 855.586 189.199 822.793 163.12L779.285 128.52C768.354 119.827 752.87 119.827 741.939 128.52L698.43 163.12C665.637 189.199 619.186 189.199 586.393 163.12L542.884 128.52C531.953 119.827 516.469 119.827 505.538 128.52L487.01 138.5C474.042 148.813 455.17 146.66 444.857 133.693C434.544 120.725 436.696 101.852 449.664 91.5395L468.193 81.5593C500.986 55.4802 547.437 55.4802 580.23 81.5593L623.739 116.16C634.67 124.853 650.154 124.853 661.085 116.16L704.593 81.5593C737.386 55.4802 783.837 55.4802 816.63 81.5593L860.139 116.16C871.07 124.853 886.554 124.853 897.485 116.16L940.993 81.5593C973.786 55.4802 1020.24 55.4802 1053.03 81.5593L1133.88 145.86C1146.85 156.172 1149.01 175.045 1138.69 188.013C1128.38 200.98 1109.51 203.133 1096.54 192.82L1015.68 128.52Z" fill="#FFBB63" stroke="#05171B" stroke-width="6" stroke-linecap="round" stroke-linejoin="round"/>
<path fill-rule="evenodd" clip-rule="evenodd" d="M1015.44 70.5198C1004.51 61.8267 989.026 61.8267 978.095 70.5198L934.587 105.12C901.794 131.199 855.342 131.199 822.549 105.12L779.041 70.5198C768.11 61.8268 752.626 61.8267 741.695 70.5198L698.187 105.12C665.394 131.199 618.942 131.199 586.149 105.12L542.641 70.5198C531.71 61.8267 516.226 61.8267 505.295 70.5198L424.441 134.82C411.473 145.133 392.601 142.98 382.288 130.013C371.975 117.045 379.912 86.4802 402.012 62C442.889 16.719 526.037 -19.3454 579.987 23.5593L623.495 58.1598C634.426 66.8528 649.91 66.8528 660.841 58.1598L704.349 23.5593C737.142 -2.51975 783.594 -2.51977 816.387 23.5593L859.895 58.1598C870.826 66.8528 886.31 66.8528 897.241 58.1598L940.749 23.5593C973.542 -2.51976 1019.99 -2.51978 1052.79 23.5593L1133.64 87.8595C1146.61 98.1723 1148.76 117.045 1138.45 130.013C1128.14 142.98 1109.26 145.133 1096.3 134.82L1015.44 70.5198Z" fill="#F899A3" stroke="#05171B" stroke-width="6" stroke-linecap="round" stroke-linejoin="round"/>
<path fill-rule="evenodd" clip-rule="evenodd" d="M1123.69 80.5198C1112.76 71.8267 1097.27 71.8267 1086.34 80.5198L1042.83 115.12C1010.04 141.199 963.589 141.199 930.796 115.12L887.288 80.5198C876.357 71.8268 860.873 71.8267 849.942 80.5198L806.434 115.12C773.641 141.199 727.189 141.199 694.396 115.12L650.888 80.5198C639.957 71.8267 624.473 71.8267 613.542 80.5198L532.688 144.82C519.72 155.133 500.847 152.98 490.535 140.013C480.222 127.045 482.374 108.172 495.342 97.8595L576.196 33.5593C608.989 7.48023 655.441 7.48024 688.234 33.5593L731.742 68.1598C742.673 76.8528 758.157 76.8528 769.088 68.1598L812.596 33.5593C845.389 7.48025 891.841 7.48023 924.634 33.5593L968.142 68.1598C979.073 76.8528 994.557 76.8528 1005.49 68.1598L1049 33.5593C1081.79 7.48024 1128.24 7.48022 1161.03 33.5593L1241.89 97.8595C1254.86 108.172 1257.01 127.045 1246.7 140.013C1236.38 152.98 1217.51 155.133 1204.54 144.82L1123.69 80.5198Z" fill="#53F4B6" stroke="#05171B" stroke-width="6" stroke-linecap="round" stroke-linejoin="round"/>
<path fill-rule="evenodd" clip-rule="evenodd" d="M546.809 154.063C541.256 163.028 531.33 169 520.01 169C510.76 169 502.442 165.013 496.679 158.665C494.007 159.689 491.105 160.25 488.072 160.25C474.783 160.25 464.01 149.477 464.01 136.188C464.01 122.898 474.783 112.125 488.072 112.125C491.806 112.125 495.341 112.975 498.494 114.493C504.125 109.225 511.691 106 520.01 106C527.534 106 534.442 108.638 539.859 113.04C542.489 111.889 545.393 111.25 548.447 111.25C560.287 111.25 569.885 120.848 569.885 132.688C569.885 144.527 560.287 154.125 548.447 154.125C547.896 154.125 547.35 154.104 546.809 154.063Z" fill="#53F4B6"/>
<path d="M546.809 154.063L547.035 151.072C545.918 150.987 544.848 151.532 544.258 152.484L546.809 154.063ZM496.679 158.665L498.901 156.649C498.069 155.733 496.761 155.421 495.606 155.864L496.679 158.665ZM498.494 114.493L497.193 117.196C498.309 117.733 499.639 117.529 500.544 116.684L498.494 114.493ZM539.859 113.04L537.967 115.368C538.839 116.076 540.033 116.238 541.062 115.788L539.859 113.04ZM520.01 172C532.412 172 543.282 165.454 549.359 155.643L544.258 152.484C539.23 160.603 530.249 166 520.01 166V172ZM494.458 160.681C500.765 167.63 509.879 172 520.01 172V166C511.641 166 504.119 162.397 498.901 156.649L494.458 160.681ZM488.072 163.25C491.478 163.25 494.743 162.62 497.753 161.466L495.606 155.864C493.271 156.758 490.732 157.25 488.072 157.25V163.25ZM461.01 136.188C461.01 151.134 473.126 163.25 488.072 163.25V157.25C476.44 157.25 467.01 147.82 467.01 136.188H461.01ZM488.072 109.125C473.126 109.125 461.01 121.241 461.01 136.188H467.01C467.01 124.555 476.44 115.125 488.072 115.125V109.125ZM499.795 111.79C496.245 110.081 492.266 109.125 488.072 109.125V115.125C491.346 115.125 494.437 115.87 497.193 117.196L499.795 111.79ZM520.01 103C510.9 103 502.609 106.535 496.444 112.302L500.544 116.684C505.641 111.915 512.481 109 520.01 109V103ZM541.751 110.711C535.818 105.891 528.248 103 520.01 103V109C526.82 109 533.065 111.385 537.967 115.368L541.751 110.711ZM541.062 115.788C543.319 114.8 545.815 114.25 548.447 114.25V108.25C544.971 108.25 541.658 108.977 538.656 110.291L541.062 115.788ZM548.447 114.25C558.63 114.25 566.885 122.505 566.885 132.688H572.885C572.885 119.191 561.944 108.25 548.447 108.25V114.25ZM566.885 132.688C566.885 142.87 558.63 151.125 548.447 151.125V157.125C561.944 157.125 572.885 146.184 572.885 132.688H566.885ZM548.447 151.125C547.971 151.125 547.5 151.107 547.035 151.072L546.583 157.055C547.199 157.101 547.82 157.125 548.447 157.125V151.125Z" fill="#05171B"/>
<path fill-rule="evenodd" clip-rule="evenodd" d="M449.079 73.8947C441.912 68.9173 433.207 66 423.82 66C410.803 66 399.097 71.6103 390.987 80.5448C387.226 79.1035 383.142 78.3139 378.873 78.3139C360.171 78.3139 345.01 93.4751 345.01 112.177C345.01 130.88 360.171 146.041 378.873 146.041C384.128 146.041 389.103 144.844 393.54 142.709C401.465 150.122 412.113 154.661 423.82 154.661C434.883 154.661 444.999 150.609 452.765 143.908C457.448 145.899 462.6 147 468.01 147C489.549 147 507.01 129.539 507.01 108C507.01 86.4609 489.549 69 468.01 69C461.14 69 454.685 70.7763 449.079 73.8947Z" fill="#F899A3"/>
<path d="M449.079 73.8947L450.537 76.5164C449.537 77.0728 448.307 77.0116 447.367 76.3587L449.079 73.8947ZM390.987 80.5448L393.208 82.5611C392.377 83.477 391.069 83.7888 389.913 83.3462L390.987 80.5448ZM393.54 142.709L392.239 140.005C393.355 139.469 394.686 139.672 395.59 140.518L393.54 142.709ZM452.765 143.908L450.806 141.637C451.671 140.89 452.887 140.7 453.939 141.147L452.765 143.908ZM423.82 63C433.838 63 443.137 66.1156 450.79 71.4307L447.367 76.3587C440.687 71.719 432.576 69 423.82 69V63ZM388.766 78.5284C397.42 68.9939 409.922 63 423.82 63V69C411.685 69 400.774 74.2267 393.208 82.5611L388.766 78.5284ZM378.873 75.3139C383.514 75.3139 387.962 76.1729 392.06 77.7434L389.913 83.3462C386.489 82.0342 382.769 81.3139 378.873 81.3139V75.3139ZM342.01 112.177C342.01 91.8183 358.514 75.3139 378.873 75.3139V81.3139C361.828 81.3139 348.01 95.132 348.01 112.177H342.01ZM378.873 149.041C358.514 149.041 342.01 132.537 342.01 112.177H348.01C348.01 129.223 361.828 143.041 378.873 143.041V149.041ZM394.841 145.412C390.007 147.739 384.588 149.041 378.873 149.041V143.041C383.668 143.041 388.199 141.95 392.239 140.005L394.841 145.412ZM423.82 157.661C411.322 157.661 399.949 152.813 391.491 144.899L395.59 140.518C402.981 147.432 412.903 151.661 423.82 151.661V157.661ZM454.725 146.18C446.435 153.333 435.629 157.661 423.82 157.661V151.661C434.137 151.661 443.563 147.885 450.806 141.637L454.725 146.18ZM453.939 141.147C458.257 142.983 463.011 144 468.01 144V150C462.19 150 456.639 148.815 451.592 146.669L453.939 141.147ZM468.01 144C487.892 144 504.01 127.882 504.01 108H510.01C510.01 131.196 491.206 150 468.01 150V144ZM504.01 108C504.01 88.1177 487.892 72 468.01 72V66C491.206 66 510.01 84.804 510.01 108H504.01ZM468.01 72C461.663 72 455.708 73.6397 450.537 76.5164L447.62 71.2731C453.661 67.9129 460.616 66 468.01 66V72Z" fill="#05171B"/>
<ellipse cx="233" cy="199" rx="97" ry="42" fill="#53F4B6" stroke="#05171B" stroke-width="6" stroke-linejoin="round"/>
<rect x="192.262" y="192" width="123.408" height="123.408" transform="rotate(45 192.262 192)" fill="#ABD0D6" stroke="#05171B" stroke-width="6" stroke-linejoin="round"/>
<circle cx="275" cy="307" r="96" fill="#F899A3" stroke="#05171B" stroke-width="6" stroke-linejoin="round"/>
<path fill-rule="evenodd" clip-rule="evenodd" d="M62.0001 213C65.1595 217.316 68.498 222.066 72.0885 227.175C102.062 269.822 149.598 337.458 257.07 385.891C259.916 385.606 262.91 385.455 266 385.455C284.778 385.455 300 391.051 300 397.955C300 402.499 293.406 406.476 283.544 408.665C286.595 413.346 288.352 418.989 288.352 425.526C278.704 459.097 266.352 478.34 239.852 474.026C216.799 470.273 211.264 456.546 210.214 439.04C135.885 393.903 79.4991 342.565 45.0596 295.521C26.853 270.651 16.9383 249.156 11.498 225L62.0001 213Z" fill="#DBFF00"/>
<path d="M62 208.5C92 260.5 149.598 337.458 257.07 385.89C259.916 385.606 262.91 385.455 266 385.455C284.778 385.455 300 391.051 300 397.955C300 402.498 293.406 406.476 283.544 408.664C286.595 413.346 288.352 418.989 288.352 425.526C278.704 459.097 266.352 478.34 239.852 474.026C216.799 470.273 211.264 456.545 210.214 439.039C135.885 393.902 79.4991 342.565 45.0596 295.521C26.853 270.651 13.4402 246.656 8 222.5" stroke="#05171B" stroke-width="6"/>
<mask id="path-26-outside-2_511_11590" maskUnits="userSpaceOnUse" x="241" y="237.849" width="539" height="339" fill="black">
<rect fill="white" x="241" y="237.849" width="539" height="339"/>
<path fill-rule="evenodd" clip-rule="evenodd" d="M669.111 492.253C643.929 500.302 606.263 502.837 558.591 497.639C492.841 490.471 413.372 469.192 332.236 434.508C329.144 428.926 324.607 423.072 318.899 417.644C303.572 403.067 285.601 397.081 278.761 404.273C276.024 407.151 275.484 411.703 276.803 417.062C260.579 418.946 250.27 426.792 247.377 453.873C243.893 486.496 265.108 500.751 287.493 500.751C292.332 500.751 296.973 499.523 301.276 497.392C389.344 535.405 476.79 559.135 551.004 567.227C603.466 572.947 652.126 571.171 690.423 558.93C694.647 557.58 698.718 556.383 702.638 555.23C734.657 545.812 756.685 539.333 770.732 476.513C786.499 406 725.473 346.418 671.435 309.864C642.763 290.468 606.245 265.828 575.999 250.001C526.056 223.866 478.499 287.5 547.988 319.198C577.898 334.85 607.012 350.796 632.214 367.844C685.926 404.178 702.232 439.39 698.499 462C697.07 470.657 686.182 486.797 669.111 492.253Z"/>
</mask>
<path fill-rule="evenodd" clip-rule="evenodd" d="M669.111 492.253C643.929 500.302 606.263 502.837 558.591 497.639C492.841 490.471 413.372 469.192 332.236 434.508C329.144 428.926 324.607 423.072 318.899 417.644C303.572 403.067 285.601 397.081 278.761 404.273C276.024 407.151 275.484 411.703 276.803 417.062C260.579 418.946 250.27 426.792 247.377 453.873C243.893 486.496 265.108 500.751 287.493 500.751C292.332 500.751 296.973 499.523 301.276 497.392C389.344 535.405 476.79 559.135 551.004 567.227C603.466 572.947 652.126 571.171 690.423 558.93C694.647 557.58 698.718 556.383 702.638 555.23C734.657 545.812 756.685 539.333 770.732 476.513C786.499 406 725.473 346.418 671.435 309.864C642.763 290.468 606.245 265.828 575.999 250.001C526.056 223.866 478.499 287.5 547.988 319.198C577.898 334.85 607.012 350.796 632.214 367.844C685.926 404.178 702.232 439.39 698.499 462C697.07 470.657 686.182 486.797 669.111 492.253Z" fill="#DBFF00"/>
<path d="M558.591 497.639L559.242 491.675L559.242 491.675L558.591 497.639ZM669.111 492.253L670.938 497.968L670.938 497.968L669.111 492.253ZM332.236 434.508L326.988 437.416L327.986 439.216L329.878 440.025L332.236 434.508ZM318.899 417.644L323.034 413.296L323.034 413.296L318.899 417.644ZM278.761 404.273L283.109 408.408L283.109 408.408L278.761 404.273ZM276.803 417.062L277.495 423.022L284.255 422.237L282.629 415.628L276.803 417.062ZM247.377 453.873L241.411 453.236L241.411 453.236L247.377 453.873ZM301.276 497.392L303.654 491.883L301.102 490.781L298.612 492.015L301.276 497.392ZM551.004 567.227L550.354 573.192L550.354 573.192L551.004 567.227ZM690.423 558.93L688.597 553.215L688.597 553.215L690.423 558.93ZM702.638 555.23L700.945 549.473L700.945 549.473L702.638 555.23ZM770.732 476.513L764.877 475.204L764.877 475.204L770.732 476.513ZM671.435 309.864L668.074 314.834L668.074 314.834L671.435 309.864ZM575.999 250.001L573.217 255.317L573.217 255.317L575.999 250.001ZM547.988 319.198L550.77 313.882L550.626 313.806L550.478 313.739L547.988 319.198ZM632.214 367.844L628.852 372.814L628.852 372.814L632.214 367.844ZM698.499 462L692.58 461.023L692.58 461.023L698.499 462ZM557.941 503.604C606.023 508.847 644.631 506.377 670.938 497.968L667.285 486.538C643.227 494.228 606.504 496.828 559.242 491.675L557.941 503.604ZM329.878 440.025C411.457 474.898 491.503 496.36 557.941 503.604L559.242 491.675C494.18 484.581 415.287 463.485 334.595 428.99L329.878 440.025ZM337.484 431.599C334.064 425.427 329.134 419.097 323.034 413.296L314.764 421.991C320.081 427.047 324.223 432.425 326.988 437.416L337.484 431.599ZM323.034 413.296C314.878 405.54 305.816 399.858 297.544 397.102C289.771 394.513 280.382 393.862 274.413 400.138L283.109 408.408C283.98 407.491 286.997 406.237 293.751 408.487C300.006 410.571 307.593 415.171 314.764 421.991L323.034 413.296ZM274.413 400.138C269.614 405.185 269.449 412.288 270.977 418.496L282.629 415.628C281.519 411.118 282.434 409.117 283.109 408.408L274.413 400.138ZM276.111 411.102C267.201 412.137 258.923 414.934 252.608 422.03C246.44 428.963 242.916 439.15 241.411 453.236L253.344 454.511C254.732 441.515 257.808 434.239 261.573 430.007C265.193 425.94 270.18 423.872 277.495 423.022L276.111 411.102ZM241.411 453.236C239.513 471.008 244.317 484.643 253.498 493.795C262.542 502.809 275.109 506.751 287.493 506.751V494.751C277.492 494.751 268.259 491.565 261.97 485.296C255.818 479.165 251.757 469.362 253.344 454.511L241.411 453.236ZM287.493 506.751C293.368 506.751 298.915 505.258 303.94 502.768L298.612 492.015C295.032 493.789 291.297 494.751 287.493 494.751V506.751ZM551.654 561.262C478.133 553.246 391.27 529.701 303.654 491.883L298.898 502.9C387.418 541.109 475.447 565.024 550.354 573.192L551.654 561.262ZM688.597 553.215C651.423 565.097 603.705 566.938 551.654 561.262L550.354 573.192C603.226 578.957 652.829 577.245 692.25 564.645L688.597 553.215ZM700.945 549.473C697.033 550.624 692.897 551.84 688.597 553.215L692.25 564.645C696.397 563.32 700.402 562.141 704.331 560.986L700.945 549.473ZM764.877 475.204C757.962 506.128 749.302 522.085 739.303 531.537C729.251 541.04 717.183 544.697 700.945 549.473L704.331 560.986C720.112 556.344 735.068 552.054 747.546 540.257C760.078 528.411 769.455 509.718 776.587 477.822L764.877 475.204ZM668.074 314.834C694.787 332.904 722.906 356.464 742.365 383.923C761.782 411.323 772.273 442.125 764.877 475.204L776.587 477.822C784.958 440.388 772.82 406.143 752.156 376.985C731.535 347.886 702.122 323.378 674.797 304.894L668.074 314.834ZM573.217 255.317C603.103 270.956 639.324 295.385 668.074 314.834L674.797 304.894C646.202 285.55 609.387 260.7 578.781 244.684L573.217 255.317ZM550.478 313.739C533.972 306.21 525.249 297.163 521.492 288.864C517.788 280.681 518.603 272.592 522.422 265.879C530.14 252.312 550.871 243.623 573.217 255.317L578.781 244.684C551.185 230.243 523.165 240.304 511.991 259.945C506.365 269.836 505.198 281.966 510.56 293.812C515.869 305.543 527.26 316.337 545.498 324.657L550.478 313.739ZM635.576 362.874C610.076 345.625 580.708 329.548 550.77 313.882L545.206 324.514C575.088 340.151 603.948 355.967 628.852 372.814L635.576 362.874ZM704.419 462.978C708.752 436.736 689.799 399.554 635.576 362.874L628.852 372.814C682.054 408.802 695.713 442.045 692.58 461.023L704.419 462.978ZM670.938 497.968C680.739 494.836 688.613 488.698 694.202 482.26C699.686 475.943 703.465 468.754 704.419 462.978L692.58 461.023C692.104 463.903 689.725 469.113 685.14 474.394C680.66 479.554 674.554 484.214 667.285 486.538L670.938 497.968Z" fill="#05171B" mask="url(#path-26-outside-2_511_11590)"/>
<path d="M539.219 290.825L588.044 375.394L539.219 459.962L441.568 459.962L392.742 375.394L441.568 290.825L539.219 290.825Z" fill="#FFBB63" stroke="#05171B" stroke-width="6" stroke-linejoin="round"/>
<path d="M510.435 403L569.69 505.634H451.179L510.435 403Z" fill="#8957F4" stroke="#05171B" stroke-width="6" stroke-linejoin="round"/>
<ellipse cx="590" cy="356.5" rx="83" ry="46.5" fill="#53F4B6" stroke="#05171B" stroke-width="6" stroke-linejoin="round"/>
<rect x="583.982" y="375.018" width="99.6652" height="99.6652" transform="rotate(45 583.982 375.018)" fill="#ABD0D6" stroke="#05171B" stroke-width="6" stroke-linejoin="round"/>
<ellipse cx="389" cy="423.5" rx="80" ry="34.5" fill="#53F4B6" stroke="#05171B" stroke-width="6" stroke-linejoin="round"/>
<circle cx="647.5" cy="452.5" r="63.5" fill="#F899A3" stroke="#05171B" stroke-width="6" stroke-linejoin="round"/>
<circle cx="437.5" cy="470.5" r="39.5" fill="#F899A3" stroke="#05171B" stroke-width="6" stroke-linejoin="round"/>
<mask id="path-35-outside-3_511_11590" maskUnits="userSpaceOnUse" x="241" y="395.229" width="537" height="182" fill="black">
<rect fill="white" x="241" y="395.229" width="537" height="182"/>
<path fill-rule="evenodd" clip-rule="evenodd" d="M332.236 434.507C329.143 428.926 324.607 423.072 318.899 417.644C303.572 403.067 285.601 397.081 278.761 404.273C276.024 407.151 275.484 411.703 276.803 417.062C260.579 418.946 250.27 426.792 247.377 453.873C243.893 486.496 265.108 500.751 287.493 500.751C292.332 500.751 296.974 499.523 301.276 497.391C389.344 535.405 476.79 559.135 551.004 567.227C603.466 572.947 652.126 571.171 690.424 558.93C690.867 558.788 691.311 558.646 691.753 558.505C729.91 546.317 762.827 535.802 771 474.5C777.312 427.149 725.411 458.997 692.247 479.348C681.977 485.65 673.503 490.849 669.112 492.253C643.929 500.302 606.264 502.837 558.591 497.639C492.841 490.47 413.372 469.191 332.236 434.507Z"/>
</mask>
<path fill-rule="evenodd" clip-rule="evenodd" d="M332.236 434.507C329.143 428.926 324.607 423.072 318.899 417.644C303.572 403.067 285.601 397.081 278.761 404.273C276.024 407.151 275.484 411.703 276.803 417.062C260.579 418.946 250.27 426.792 247.377 453.873C243.893 486.496 265.108 500.751 287.493 500.751C292.332 500.751 296.974 499.523 301.276 497.391C389.344 535.405 476.79 559.135 551.004 567.227C603.466 572.947 652.126 571.171 690.424 558.93C690.867 558.788 691.311 558.646 691.753 558.505C729.91 546.317 762.827 535.802 771 474.5C777.312 427.149 725.411 458.997 692.247 479.348C681.977 485.65 673.503 490.849 669.112 492.253C643.929 500.302 606.264 502.837 558.591 497.639C492.841 490.47 413.372 469.191 332.236 434.507Z" fill="#DBFF00"/>
<path d="M332.236 434.507L326.988 437.415L327.985 439.215L329.878 440.024L332.236 434.507ZM318.899 417.644L323.034 413.296L318.899 417.644ZM278.761 404.273L283.109 408.408L283.109 408.408L278.761 404.273ZM276.803 417.062L277.495 423.022L284.255 422.237L282.629 415.629L276.803 417.062ZM247.377 453.873L253.344 454.511L247.377 453.873ZM301.276 497.391L303.654 491.883L301.103 490.781L298.612 492.015L301.276 497.391ZM551.004 567.227L550.354 573.192L550.354 573.192L551.004 567.227ZM690.424 558.93L688.597 553.215L688.597 553.215L690.424 558.93ZM691.753 558.505L693.579 564.22L693.579 564.22L691.753 558.505ZM771 474.5L765.052 473.707L765.052 473.707L771 474.5ZM692.247 479.348L689.109 474.234L689.109 474.234L692.247 479.348ZM669.112 492.253L670.938 497.968L670.938 497.968L669.112 492.253ZM558.591 497.639L559.242 491.675L559.242 491.675L558.591 497.639ZM337.484 431.599C334.064 425.426 329.134 419.097 323.034 413.296L314.764 421.992C320.08 427.047 324.223 432.425 326.988 437.415L337.484 431.599ZM323.034 413.296C314.878 405.54 305.816 399.858 297.544 397.103C289.771 394.513 280.382 393.862 274.413 400.138L283.109 408.408C283.98 407.492 286.997 406.238 293.751 408.487C300.006 410.571 307.593 415.171 314.764 421.992L323.034 413.296ZM274.413 400.138C269.614 405.185 269.449 412.288 270.977 418.496L282.629 415.629C281.519 411.118 282.434 409.117 283.109 408.408L274.413 400.138ZM276.111 411.102C267.201 412.137 258.923 414.934 252.608 422.031C246.44 428.963 242.916 439.151 241.411 453.236L253.344 454.511C254.732 441.515 257.808 434.239 261.573 430.007C265.193 425.94 270.18 423.872 277.495 423.022L276.111 411.102ZM241.411 453.236C239.513 471.008 244.317 484.643 253.498 493.795C262.542 502.809 275.109 506.751 287.493 506.751V494.751C277.492 494.751 268.259 491.565 261.97 485.296C255.818 479.165 251.757 469.362 253.344 454.511L241.411 453.236ZM287.493 506.751C293.368 506.751 298.915 505.258 303.94 502.768L298.612 492.015C295.032 493.789 291.297 494.751 287.493 494.751V506.751ZM551.655 561.262C478.133 553.246 391.27 529.701 303.654 491.883L298.899 502.9C387.419 541.109 475.447 565.024 550.354 573.192L551.655 561.262ZM688.597 553.215C651.423 565.096 603.705 566.937 551.655 561.262L550.354 573.192C603.227 578.956 652.829 577.245 692.25 564.645L688.597 553.215ZM689.928 552.789C689.485 552.931 689.041 553.072 688.597 553.215L692.25 564.645C692.694 564.503 693.136 564.362 693.579 564.22L689.928 552.789ZM765.052 473.707C761.111 503.267 751.364 519.705 738.754 530.332C725.804 541.245 709.25 546.617 689.927 552.789L693.579 564.22C712.413 558.204 731.396 552.225 746.487 539.508C761.918 526.505 772.715 507.034 776.947 475.293L765.052 473.707ZM695.385 484.462C712.25 474.113 732.707 461.621 748.049 457.312C755.979 455.085 760.368 455.688 762.433 457.228C764.161 458.518 766.565 462.358 765.052 473.707L776.947 475.293C778.59 462.966 776.874 453.031 769.609 447.611C762.682 442.441 753.206 443.4 744.805 445.759C727.483 450.624 705.408 464.232 689.109 474.234L695.385 484.462ZM670.938 497.968C673.818 497.048 677.545 495.084 681.457 492.844C685.503 490.526 690.275 487.597 695.385 484.462L689.109 474.234C683.948 477.4 679.348 480.222 675.493 482.431C671.503 484.716 668.797 486.054 667.285 486.538L670.938 497.968ZM557.941 503.604C606.023 508.846 644.631 506.377 670.938 497.968L667.285 486.538C643.227 494.227 606.504 496.828 559.242 491.675L557.941 503.604ZM329.878 440.024C411.457 474.898 491.503 496.36 557.941 503.604L559.242 491.675C494.18 484.581 415.287 463.485 334.594 428.99L329.878 440.024Z" fill="#05171B" mask="url(#path-35-outside-3_511_11590)"/>
<path d="M773.005 454.5C773.005 507.5 746.193 502.5 731.005 502.5C702.003 503.999 700 483.5 710.5 467.5C721 451.5 697.504 425.999 745.505 429C760.693 429 773.005 433.5 773.005 454.5Z" fill="#DBFF00"/>
</g>
<defs>
<clipPath id="clip0_511_11590">
<rect width="820" height="580" fill="white"/>
</clipPath>
</defs>
</svg>
