<svg width="160" height="160" viewBox="0 0 160 160" fill="none" xmlns="http://www.w3.org/2000/svg">
<g clip-path="url(#clip0_451_736)">
<path d="M79.934 13.3335C43.134 13.3335 13.334 43.2002 13.334 80.0002C13.334 116.8 43.134 146.667 79.934 146.667C116.801 146.667 146.667 116.8 146.667 80.0002C146.667 43.2002 116.801 13.3335 79.934 13.3335ZM126.134 53.3335H106.467C104.334 45.0002 101.267 37.0002 97.2673 29.6002C109.534 33.8002 119.734 42.3335 126.134 53.3335ZM80.0006 26.9335C85.534 34.9335 89.8673 43.8002 92.734 53.3335H67.2673C70.134 43.8002 74.4673 34.9335 80.0006 26.9335ZM28.4007 93.3335C27.334 89.0668 26.6673 84.6002 26.6673 80.0002C26.6673 75.4002 27.334 70.9335 28.4007 66.6668H50.934C50.4006 71.0668 50.0007 75.4668 50.0007 80.0002C50.0007 84.5335 50.4006 88.9335 50.934 93.3335H28.4007ZM33.8673 106.667H53.534C55.6673 115 58.734 123 62.734 130.4C50.4673 126.2 40.2673 117.733 33.8673 106.667ZM53.534 53.3335H33.8673C40.2673 42.2668 50.4673 33.8002 62.734 29.6002C58.734 37.0002 55.6673 45.0002 53.534 53.3335ZM80.0006 133.067C74.4673 125.067 70.134 116.2 67.2673 106.667H92.734C89.8673 116.2 85.534 125.067 80.0006 133.067ZM95.6007 93.3335H64.4006C63.8006 88.9335 63.334 84.5335 63.334 80.0002C63.334 75.4668 63.8006 71.0002 64.4006 66.6668H95.6007C96.2007 71.0002 96.6673 75.4668 96.6673 80.0002C96.6673 84.5335 96.2007 88.9335 95.6007 93.3335ZM97.2673 130.4C101.267 123 104.334 115 106.467 106.667H126.134C119.734 117.667 109.534 126.2 97.2673 130.4ZM109.067 93.3335C109.601 88.9335 110.001 84.5335 110.001 80.0002C110.001 75.4668 109.601 71.0668 109.067 66.6668H131.601C132.667 70.9335 133.334 75.4002 133.334 80.0002C133.334 84.6002 132.667 89.0668 131.601 93.3335H109.067Z" fill="#21383E"/>
</g>
<defs>
<clipPath id="clip0_451_736">
<rect width="160" height="160" fill="white"/>
</clipPath>
</defs>
</svg>
