<svg width="60" height="60" viewBox="0 0 60 60" fill="none" xmlns="http://www.w3.org/2000/svg">
<path d="M28.125 42.5H17.5C14.0417 42.5 11.0938 41.2812 8.65625 38.8438C6.21875 36.4062 5 33.4583 5 30C5 26.5417 6.21875 23.5938 8.65625 21.1562C11.0938 18.7188 14.0417 17.5 17.5 17.5H28.125V21.25H17.5C15.0695 21.25 13.0035 22.0993 11.3021 23.7978C9.60069 25.4963 8.75 27.5588 8.75 29.9853C8.75 32.4118 9.60069 34.4792 11.3021 36.1875C13.0035 37.8958 15.0695 38.75 17.5 38.75H28.125V42.5ZM20.3125 31.875V28.125H39.6875V31.875H20.3125ZM31.875 42.5V38.75H42.5C44.9305 38.75 46.9965 37.9007 48.6979 36.2022C50.3993 34.5037 51.25 32.4412 51.25 30.0147C51.25 27.5882 50.3993 25.5208 48.6979 23.8125C46.9965 22.1042 44.9305 21.25 42.5 21.25H31.875V17.5H42.5C45.9583 17.5 48.9062 18.7188 51.3438 21.1562C53.7812 23.5938 55 26.5417 55 30C55 33.4583 53.7812 36.4062 51.3438 38.8438C48.9062 41.2812 45.9583 42.5 42.5 42.5H31.875Z" fill="#05171B" fill-opacity="0.7"/>
</svg>
