<svg width="60" height="60" viewBox="0 0 60 60" fill="none" xmlns="http://www.w3.org/2000/svg">
<g clip-path="url(#clip0_326_263)">
<path d="M42.5 17.5H32.5V22.5H42.5C46.625 22.5 50 25.875 50 30C50 34.125 46.625 37.5 42.5 37.5H32.5V42.5H42.5C49.4 42.5 55 36.9 55 30C55 23.1 49.4 17.5 42.5 17.5ZM27.5 37.5H17.5C13.375 37.5 10 34.125 10 30C10 25.875 13.375 22.5 17.5 22.5H27.5V17.5H17.5C10.6 17.5 5 23.1 5 30C5 36.9 10.6 42.5 17.5 42.5H27.5V37.5ZM20 27.5H40V32.5H20V27.5Z" fill="#05171B" fill-opacity="0.7"/>
</g>
<defs>
<clipPath id="clip0_326_263">
<rect width="60" height="60" fill="white"/>
</clipPath>
</defs>
</svg>
