<svg width="1440" height="1979" viewBox="0 0 1440 1979" fill="none" xmlns="http://www.w3.org/2000/svg">
<g clip-path="url(#clip0_492_3231)">
<path d="M-255 236L-227 208L-199 236L-171 208L-143 236L-115 208L-87 236L-59 208L-31 236L-3 208L25 236L53 208L81 236L109 208L137 236L165 208L193 236L221 208L249 236L277 208L305 236L333 208L361 236L389 208L417 236L445 208L473 236L501 208L529 236L557 208" stroke="#DBFF00" stroke-width="6" stroke-linecap="round"/>
<path d="M-255 180L-227 152L-199 180L-171 152L-143 180L-115 152L-87 180L-59 152L-31 180L-3 152L25 180L53 152L81 180L109 152L137 180L165 152L193 180L221 152L249 180L277 152L305 180L333 152L361 180L389 152L417 180L445 152L473 180L501 152L529 180L557 152" stroke="#DBFF00" stroke-width="6" stroke-linecap="round"/>
<path d="M-255 208L-227 180L-199 208L-171 180L-143 208L-115 180L-87 208L-59 180L-31 208L-3 180L25 208L53 180L81 208L109 180L137 208L165 180L193 208L221 180L249 208L277 180L305 208L333 180L361 208L389 180L417 208L445 180L473 208L501 180L529 208L557 180" stroke="#DBFF00" stroke-width="6" stroke-linecap="round"/>
<path d="M1197.74 768.046L1232.03 748.247L1251.83 782.54L1286.13 762.741L1305.93 797.034L1340.22 777.235L1360.02 811.528L1394.31 791.729L1414.11 826.021" stroke="#DBFF00" stroke-width="6" stroke-linecap="round"/>
<path d="M1190.5 795.092L1224.79 775.293L1244.59 809.586L1278.88 789.787L1298.68 824.08L1332.97 804.281L1352.77 838.573L1387.06 818.774L1406.86 853.067" stroke="#DBFF00" stroke-width="6" stroke-linecap="round"/>
<path d="M1183.25 822.138L1217.54 802.339L1237.34 836.632L1271.63 816.833L1291.43 851.125L1325.72 831.326L1345.52 865.619L1379.82 845.82L1399.61 880.113" stroke="#DBFF00" stroke-width="6" stroke-linecap="round"/>
<path d="M1176 849.184L1210.29 829.385L1230.09 863.677L1264.39 843.878L1284.18 878.171L1318.48 858.372L1338.28 892.665L1372.57 872.866L1392.37 907.159" stroke="#DBFF00" stroke-width="6" stroke-linecap="round"/>
<path d="M-91.7531 1817.02L-71.9541 1782.73L-37.6612 1802.53L-17.8622 1768.23L16.4306 1788.03L36.2296 1753.74L70.5225 1773.54L90.3215 1739.25L124.614 1759.05" stroke="#DBFF00" stroke-width="6" stroke-linecap="round"/>
<path d="M-84.507 1844.07L-64.708 1809.77L-30.4151 1829.57L-10.6161 1795.28L23.6767 1815.08L43.4757 1780.79L77.7686 1800.59L97.5676 1766.29L131.86 1786.09" stroke="#DBFF00" stroke-width="6" stroke-linecap="round"/>
<path d="M-77.2589 1871.11L-57.4599 1836.82L-23.1671 1856.62L-3.36809 1822.33L30.9248 1842.13L50.7238 1807.83L85.0166 1827.63L104.816 1793.34L139.108 1813.14" stroke="#DBFF00" stroke-width="6" stroke-linecap="round"/>
<path d="M-70.0128 1898.16L-50.2138 1863.87L-15.921 1883.67L3.878 1849.37L38.1709 1869.17L57.9698 1834.88L92.2627 1854.68L112.062 1820.38L146.355 1840.18" stroke="#DBFF00" stroke-width="6" stroke-linecap="round"/>
<path d="M913 1398L941 1426L913 1454L941 1482L913 1510L941 1538" stroke="#DBFF00" stroke-width="6" stroke-linecap="round"/>
<path d="M885 1398L913 1426L885 1454L913 1482L885 1510L913 1538" stroke="#DBFF00" stroke-width="6" stroke-linecap="round"/>
<path d="M857 1398L885 1426L857 1454L885 1482L857 1510L885 1538" stroke="#DBFF00" stroke-width="6" stroke-linecap="round"/>
<rect x="51.8095" y="706.835" width="28.853" height="19.37" transform="rotate(-124 51.8095 706.835)" stroke="#DBFF00" stroke-width="6"/>
<rect x="1159.18" y="1243.27" width="124.588" height="26.9444" transform="rotate(-101 1159.18 1243.27)" stroke="#DBFF00" stroke-width="6"/>
<rect x="1389.35" y="1456.26" width="64.9962" height="19.1286" transform="rotate(28 1389.35 1456.26)" stroke="#DBFF00" stroke-width="6"/>
<rect x="1008.08" y="1968.99" width="115.648" height="15.7181" transform="rotate(-79 1008.08 1968.99)" stroke="#DBFF00" stroke-width="6"/>
<rect x="292.844" y="1876.29" width="21.0181" height="14.5358" transform="rotate(45 292.844 1876.29)" stroke="#DBFF00" stroke-width="6"/>
<rect x="492.537" y="1135.3" width="25.432" height="14.2537" transform="rotate(-136 492.537 1135.3)" stroke="#DBFF00" stroke-width="6"/>
<rect x="1405.68" y="1246.79" width="20.6577" height="19.1286" transform="rotate(-34 1405.68 1246.79)" stroke="#DBFF00" stroke-width="6"/>
<rect x="235.995" y="1610.1" width="27.8756" height="22.222" transform="rotate(-72 235.995 1610.1)" stroke="#DBFF00" stroke-width="6"/>
<rect x="1008.45" y="1592.12" width="37.1558" height="10.8796" transform="rotate(19 1008.45 1592.12)" stroke="#DBFF00" stroke-width="6"/>
<rect x="1348.34" y="55.388" width="39.853" height="13.37" transform="rotate(-83 1348.34 55.388)" stroke="#DBFF00" stroke-width="6"/>
<rect x="957.993" y="289.181" width="53.3101" height="45.2169" transform="rotate(176 957.993 289.181)" stroke="#DBFF00" stroke-width="6"/>
<rect x="125.732" y="817.469" width="129.03" height="36.6323" transform="rotate(115 125.732 817.469)" stroke="#DBFF00" stroke-width="6"/>
<rect x="379.536" y="1374.04" width="29.9379" height="16.0352" transform="rotate(-121 379.536 1374.04)" stroke="#DBFF00" stroke-width="6"/>
<rect x="832.525" y="1898.22" width="13.9246" height="23.9939" transform="rotate(-59 832.525 1898.22)" stroke="#DBFF00" stroke-width="6"/>
<rect x="835.887" y="1819.62" width="64.7617" height="18.0826" transform="rotate(-67 835.887 1819.62)" stroke="#DBFF00" stroke-width="6"/>
<rect x="441.177" y="1657.54" width="51.7471" height="50.1848" transform="rotate(-32 441.177 1657.54)" stroke="#DBFF00" stroke-width="6"/>
<rect x="603.327" y="460.875" width="74.2763" height="9.84842" transform="rotate(-177 603.327 460.875)" stroke="#DBFF00" stroke-width="6"/>
<path d="M803 1581C803 1588.27 797.314 1594 790.5 1594C783.686 1594 778 1588.27 778 1581C778 1573.73 783.686 1568 790.5 1568C797.314 1568 803 1573.73 803 1581Z" stroke="#DBFF00" stroke-width="6"/>
<circle cx="628" cy="652" r="102" stroke="#DBFF00" stroke-width="6"/>
<path d="M681 1747.5C681 1752.08 677.092 1756 672 1756C666.908 1756 663 1752.08 663 1747.5C663 1742.92 666.908 1739 672 1739C677.092 1739 681 1742.92 681 1747.5Z" stroke="#DBFF00" stroke-width="6"/>
<path d="M1336 1584C1336 1589.42 1331.41 1594 1325.5 1594C1319.59 1594 1315 1589.42 1315 1584C1315 1578.58 1319.59 1574 1325.5 1574C1331.41 1574 1336 1578.58 1336 1584Z" stroke="#DBFF00" stroke-width="6"/>
<circle cx="542" cy="1496" r="8" stroke="#DBFF00" stroke-width="6"/>
<circle cx="304" cy="1732" r="8" stroke="#DBFF00" stroke-width="6"/>
<circle cx="1299" cy="1094" r="11" stroke="#DBFF00" stroke-width="6"/>
<circle cx="777" cy="324" r="15" stroke="#DBFF00" stroke-width="6"/>
<circle cx="566.5" cy="1873.5" r="14.5" stroke="#DBFF00" stroke-width="6"/>
<circle cx="1344.45" cy="168.447" r="10.4475" stroke="#DBFF00" stroke-width="6"/>
<circle cx="211" cy="489" r="4" stroke="#DBFF00" stroke-width="6"/>
<path d="M376 399C376 401.018 374.184 403 371.5 403C368.816 403 367 401.018 367 399C367 396.982 368.816 395 371.5 395C374.184 395 376 396.982 376 399Z" stroke="#DBFF00" stroke-width="6"/>
<circle cx="1226" cy="253" r="14" stroke="#DBFF00" stroke-width="6"/>
<circle cx="1230.45" cy="133.447" r="3.4475" stroke="#DBFF00" stroke-width="6"/>
<path d="M453 895C453 899.856 448.863 904 443.5 904C438.137 904 434 899.856 434 895C434 890.144 438.137 886 443.5 886C448.863 886 453 890.144 453 895Z" stroke="#DBFF00" stroke-width="6"/>
<circle cx="70.5" cy="1253.5" r="43.5" stroke="#DBFF00" stroke-width="6"/>
<path d="M968.375 1018.3L977.634 1014.37L984.234 1021.96L979.053 1030.59L969.251 1028.32L968.375 1018.3Z" stroke="#DBFF00" stroke-width="6"/>
<path d="M722.697 1113.46L727.778 1016.52L809.196 1069.39L722.697 1113.46Z" stroke="#DBFF00" stroke-width="6"/>
<path d="M310.098 640.291L311.554 656.928L296.181 663.454L285.224 650.85L293.826 636.535L310.098 640.291Z" stroke="#DBFF00" stroke-width="6"/>
<path d="M1306.71 962.915L1330.46 981.477L1326.27 1011.33L1298.31 1022.63L1274.55 1004.07L1278.75 974.209L1306.71 962.915Z" stroke="#DBFF00" stroke-width="6"/>
<path d="M1357.63 1798.59L1325.25 1762.63L1361.21 1730.25L1393.59 1766.21L1357.63 1798.59Z" stroke="#DBFF00" stroke-width="6"/>
<path d="M1122.11 1356.37L1130.32 1343.22L1145.82 1343.76L1153.1 1357.45L1144.88 1370.6L1129.38 1370.06L1122.11 1356.37Z" stroke="#DBFF00" stroke-width="6"/>
<path d="M1216.08 1744.84L1208.14 1763.54L1187.97 1766.02L1175.74 1749.79L1183.68 1731.08L1203.85 1728.61L1216.08 1744.84Z" stroke="#DBFF00" stroke-width="6"/>
<path d="M1325.48 508.95L1350.37 512.448L1354.73 537.196L1332.54 548.994L1314.46 531.537L1325.48 508.95Z" stroke="#DBFF00" stroke-width="6"/>
<path d="M1075.32 827.374L1021.99 801.362L1017.85 742.17L1067.04 708.99L1120.37 735.001L1124.51 794.193L1075.32 827.374Z" stroke="#DBFF00" stroke-width="6"/>
<path d="M292.757 798.688L295.302 814.757L279.234 817.302L276.689 801.233L292.757 798.688Z" stroke="#DBFF00" stroke-width="6"/>
<path d="M662.897 1411.18L655.259 1396.19L664.422 1382.08L681.221 1382.96L688.858 1397.95L679.696 1412.06L662.897 1411.18Z" stroke="#DBFF00" stroke-width="6"/>
<path d="M894.581 768.118L880.369 770.624L871.093 759.57L876.029 746.009L890.24 743.503L899.516 754.558L894.581 768.118Z" stroke="#DBFF00" stroke-width="6"/>
<path d="M943.479 1325.32L926.641 1303.77L948.192 1286.94L965.03 1308.49L943.479 1325.32Z" stroke="#DBFF00" stroke-width="6"/>
<path d="M631.411 1245.66L632.746 1260.92L618.864 1254.44L631.411 1245.66Z" stroke="#DBFF00" stroke-width="6"/>
<path d="M146.929 1445.21L132.39 1499.47L92.6711 1459.75L146.929 1445.21Z" stroke="#DBFF00" stroke-width="6"/>
<path d="M306.794 92.2384L290.353 71.1945L300.357 46.434L326.802 42.7173L343.243 63.7613L333.239 88.5218L306.794 92.2384Z" stroke="#DBFF00" stroke-width="6"/>
<path d="M316.543 1107.15L272.984 1110.96L291.463 1071.33L316.543 1107.15Z" stroke="#DBFF00" stroke-width="6"/>
<path d="M1380.5 304.058L1389.76 308.373L1381.39 314.229L1380.5 304.058Z" stroke="#DBFF00" stroke-width="6"/>
<path d="M1097 -273L1111 -259C1118.73 -251.268 1118.73 -238.732 1111 -231V-231C1103.27 -223.268 1103.27 -210.732 1111 -203V-203C1118.73 -195.268 1118.73 -182.732 1111 -175V-175C1103.27 -167.268 1103.27 -154.732 1111 -147V-147C1118.73 -139.268 1118.73 -126.732 1111 -119V-119C1103.27 -111.268 1103.27 -98.732 1111 -91V-91C1118.73 -83.268 1118.73 -70.732 1111 -63V-63C1103.27 -55.268 1103.27 -42.732 1111 -35V-35C1118.73 -27.268 1118.73 -14.732 1111 -7V-7C1103.27 0.731986 1103.27 13.268 1111 21V21C1118.73 28.732 1118.73 41.268 1111 49V49C1103.27 56.732 1103.27 69.268 1111 77V77C1118.73 84.732 1118.73 97.268 1111 105V105C1103.27 112.732 1103.27 125.268 1111 133V133C1118.73 140.732 1118.73 153.268 1111 161V161C1103.27 168.732 1103.27 181.268 1111 189V189C1118.73 196.732 1118.73 209.268 1111 217V217C1103.27 224.732 1103.27 237.268 1111 245V245C1118.73 252.732 1118.73 265.268 1111 273V273C1103.27 280.732 1103.27 293.268 1111 301V301C1118.73 308.732 1118.73 321.268 1111 329V329C1103.27 336.732 1103.27 349.268 1111 357V357C1118.73 364.732 1118.73 377.268 1111 385V385C1103.27 392.732 1103.27 405.268 1111 413V413C1118.73 420.732 1118.73 433.268 1111 441V441C1103.27 448.732 1103.27 461.268 1111 469V469C1118.73 476.732 1118.73 489.268 1111 497V497C1103.27 504.732 1103.27 517.268 1111 525L1125 539" stroke="#DBFF00" stroke-width="6" stroke-linecap="round"/>
<path d="M1069 -273L1083 -259C1090.73 -251.268 1090.73 -238.732 1083 -231V-231C1075.27 -223.268 1075.27 -210.732 1083 -203V-203C1090.73 -195.268 1090.73 -182.732 1083 -175V-175C1075.27 -167.268 1075.27 -154.732 1083 -147V-147C1090.73 -139.268 1090.73 -126.732 1083 -119V-119C1075.27 -111.268 1075.27 -98.732 1083 -91V-91C1090.73 -83.268 1090.73 -70.732 1083 -63V-63C1075.27 -55.268 1075.27 -42.732 1083 -35V-35C1090.73 -27.268 1090.73 -14.732 1083 -7V-7C1075.27 0.731986 1075.27 13.268 1083 21V21C1090.73 28.732 1090.73 41.268 1083 49V49C1075.27 56.732 1075.27 69.268 1083 77V77C1090.73 84.732 1090.73 97.268 1083 105V105C1075.27 112.732 1075.27 125.268 1083 133V133C1090.73 140.732 1090.73 153.268 1083 161V161C1075.27 168.732 1075.27 181.268 1083 189V189C1090.73 196.732 1090.73 209.268 1083 217V217C1075.27 224.732 1075.27 237.268 1083 245V245C1090.73 252.732 1090.73 265.268 1083 273V273C1075.27 280.732 1075.27 293.268 1083 301V301C1090.73 308.732 1090.73 321.268 1083 329V329C1075.27 336.732 1075.27 349.268 1083 357V357C1090.73 364.732 1090.73 377.268 1083 385V385C1075.27 392.732 1075.27 405.268 1083 413V413C1090.73 420.732 1090.73 433.268 1083 441V441C1075.27 448.732 1075.27 461.268 1083 469V469C1090.73 476.732 1090.73 489.268 1083 497V497C1075.27 504.732 1075.27 517.268 1083 525L1097 539" stroke="#DBFF00" stroke-width="6" stroke-linecap="round"/>
<path d="M1041 -273L1055 -259C1062.73 -251.268 1062.73 -238.732 1055 -231V-231C1047.27 -223.268 1047.27 -210.732 1055 -203V-203C1062.73 -195.268 1062.73 -182.732 1055 -175V-175C1047.27 -167.268 1047.27 -154.732 1055 -147V-147C1062.73 -139.268 1062.73 -126.732 1055 -119V-119C1047.27 -111.268 1047.27 -98.732 1055 -91V-91C1062.73 -83.268 1062.73 -70.732 1055 -63V-63C1047.27 -55.268 1047.27 -42.732 1055 -35V-35C1062.73 -27.268 1062.73 -14.732 1055 -7V-7C1047.27 0.731986 1047.27 13.268 1055 21V21C1062.73 28.732 1062.73 41.268 1055 49V49C1047.27 56.732 1047.27 69.268 1055 77V77C1062.73 84.732 1062.73 97.268 1055 105V105C1047.27 112.732 1047.27 125.268 1055 133V133C1062.73 140.732 1062.73 153.268 1055 161V161C1047.27 168.732 1047.27 181.268 1055 189V189C1062.73 196.732 1062.73 209.268 1055 217V217C1047.27 224.732 1047.27 237.268 1055 245V245C1062.73 252.732 1062.73 265.268 1055 273V273C1047.27 280.732 1047.27 293.268 1055 301V301C1062.73 308.732 1062.73 321.268 1055 329V329C1047.27 336.732 1047.27 349.268 1055 357V357C1062.73 364.732 1062.73 377.268 1055 385V385C1047.27 392.732 1047.27 405.268 1055 413V413C1062.73 420.732 1062.73 433.268 1055 441V441C1047.27 448.732 1047.27 461.268 1055 469V469C1062.73 476.732 1062.73 489.268 1055 497V497C1047.27 504.732 1047.27 517.268 1055 525L1069 539" stroke="#DBFF00" stroke-width="6" stroke-linecap="round"/>
<path d="M455.999 1212.09L446.1 1229.24C440.632 1238.71 428.523 1241.95 419.054 1236.49V1236.49C409.584 1231.02 397.475 1234.26 392.008 1243.73V1243.73C386.54 1253.2 374.432 1256.45 364.962 1250.98V1250.98C355.492 1245.51 343.383 1248.76 337.916 1258.23V1258.23C332.449 1267.7 320.34 1270.94 310.87 1265.47V1265.47C301.4 1260.01 289.291 1263.25 283.824 1272.72V1272.72C278.357 1282.19 266.248 1285.43 256.778 1279.97V1279.97C247.308 1274.5 235.2 1277.74 229.732 1287.21V1287.21C224.265 1296.68 212.156 1299.93 202.686 1294.46V1294.46C193.217 1288.99 181.108 1292.24 175.64 1301.71L165.741 1318.85" stroke="#DBFF00" stroke-width="6" stroke-linecap="round"/>
<path d="M448.753 1185.05L438.854 1202.19C433.386 1211.66 421.277 1214.91 411.808 1209.44V1209.44C402.338 1203.97 390.229 1207.22 384.762 1216.69V1216.69C379.294 1226.16 367.186 1229.4 357.716 1223.93V1223.93C348.246 1218.47 336.137 1221.71 330.67 1231.18V1231.18C325.203 1240.65 313.094 1243.89 303.624 1238.43V1238.43C294.154 1232.96 282.045 1236.2 276.578 1245.67V1245.67C271.111 1255.14 259.002 1258.39 249.532 1252.92V1252.92C240.062 1247.45 227.954 1250.7 222.486 1260.17V1260.17C217.019 1269.64 204.91 1272.88 195.44 1267.41V1267.41C185.971 1261.95 173.862 1265.19 168.394 1274.66L158.495 1291.81" stroke="#DBFF00" stroke-width="6" stroke-linecap="round"/>
<path d="M441.505 1158L431.606 1175.15C426.138 1184.62 414.029 1187.86 404.56 1182.39V1182.39C395.09 1176.93 382.981 1180.17 377.514 1189.64V1189.64C372.046 1199.11 359.937 1202.35 350.468 1196.89V1196.89C340.998 1191.42 328.889 1194.66 323.422 1204.13V1204.13C317.954 1213.6 305.846 1216.85 296.376 1211.38V1211.38C286.906 1205.91 274.797 1209.16 269.33 1218.63V1218.63C263.863 1228.1 251.754 1231.34 242.284 1225.87V1225.87C232.814 1220.41 220.705 1223.65 215.238 1233.12V1233.12C209.771 1242.59 197.662 1245.84 188.192 1240.37V1240.37C178.723 1234.9 166.614 1238.15 161.146 1247.62L151.247 1264.76" stroke="#DBFF00" stroke-width="6" stroke-linecap="round"/>
<path d="M1467 1904L1453 1918C1445.27 1925.73 1432.73 1925.73 1425 1918V1918C1417.27 1910.27 1404.73 1910.27 1397 1918V1918C1389.27 1925.73 1376.73 1925.73 1369 1918V1918C1361.27 1910.27 1348.73 1910.27 1341 1918V1918C1333.27 1925.73 1320.73 1925.73 1313 1918V1918C1305.27 1910.27 1292.73 1910.27 1285 1918V1918C1277.27 1925.73 1264.73 1925.73 1257 1918V1918C1249.27 1910.27 1236.73 1910.27 1229 1918V1918C1221.27 1925.73 1208.73 1925.73 1201 1918V1918C1193.27 1910.27 1180.73 1910.27 1173 1918L1159 1932" stroke="#DBFF00" stroke-width="6" stroke-linecap="round"/>
<path d="M1467 1876L1453 1890C1445.27 1897.73 1432.73 1897.73 1425 1890V1890C1417.27 1882.27 1404.73 1882.27 1397 1890V1890C1389.27 1897.73 1376.73 1897.73 1369 1890V1890C1361.27 1882.27 1348.73 1882.27 1341 1890V1890C1333.27 1897.73 1320.73 1897.73 1313 1890V1890C1305.27 1882.27 1292.73 1882.27 1285 1890V1890C1277.27 1897.73 1264.73 1897.73 1257 1890V1890C1249.27 1882.27 1236.73 1882.27 1229 1890V1890C1221.27 1897.73 1208.73 1897.73 1201 1890V1890C1193.27 1882.27 1180.73 1882.27 1173 1890L1159 1904" stroke="#DBFF00" stroke-width="6" stroke-linecap="round"/>
<path d="M1467 1848L1453 1862C1445.27 1869.73 1432.73 1869.73 1425 1862V1862C1417.27 1854.27 1404.73 1854.27 1397 1862V1862C1389.27 1869.73 1376.73 1869.73 1369 1862V1862C1361.27 1854.27 1348.73 1854.27 1341 1862V1862C1333.27 1869.73 1320.73 1869.73 1313 1862V1862C1305.27 1854.27 1292.73 1854.27 1285 1862V1862C1277.27 1869.73 1264.73 1869.73 1257 1862V1862C1249.27 1854.27 1236.73 1854.27 1229 1862V1862C1221.27 1869.73 1208.73 1869.73 1201 1862V1862C1193.27 1854.27 1180.73 1854.27 1173 1862L1159 1876" stroke="#DBFF00" stroke-width="6" stroke-linecap="round"/>
</g>
<defs>
<clipPath id="clip0_492_3231">
<rect width="1440" height="1979" fill="white"/>
</clipPath>
</defs>
</svg>
