<svg width="60" height="60" viewBox="0 0 60 60" fill="none" xmlns="http://www.w3.org/2000/svg">
<g clip-path="url(#clip0_410_5735)">
<path d="M30 55C32.75 55 35 52.75 35 50H25C25 52.75 27.25 55 30 55ZM45 40V27.5C45 19.825 40.925 13.4 33.75 11.7V10C33.75 7.925 32.075 6.25 30 6.25C27.925 6.25 26.25 7.925 26.25 10V11.7C19.1 13.4 15 19.8 15 27.5V40L10 45V47.5H50V45L45 40ZM40 42.5H20V27.5C20 21.3 23.775 16.25 30 16.25C36.225 16.25 40 21.3 40 27.5V42.5Z" fill="#21383E"/>
</g>
<defs>
<clipPath id="clip0_410_5735">
<rect width="60" height="60" fill="white"/>
</clipPath>
</defs>
</svg>
