<svg width="60" height="60" viewBox="0 0 60 60" fill="none" xmlns="http://www.w3.org/2000/svg">
<g clip-path="url(#clip0_202_2887)">
<path d="M50 38.7748C46.9 38.7748 43.875 38.2748 41.075 37.3498C40.825 37.2498 40.55 37.2248 40.3 37.2248C39.65 37.2248 39.025 37.4748 38.525 37.9498L33.025 43.4498C25.95 39.8248 20.15 34.0498 16.55 26.9748L22.05 21.4748C22.75 20.7748 22.95 19.7998 22.675 18.9248C21.75 16.1248 21.25 13.1248 21.25 9.9998C21.25 8.6248 20.125 7.4998 18.75 7.4998H10C8.625 7.4998 7.5 8.6248 7.5 9.9998C7.5 33.4748 26.525 52.4998 50 52.4998C51.375 52.4998 52.5 51.3748 52.5 49.9998V41.2748C52.5 39.8998 51.375 38.7748 50 38.7748ZM12.575 12.4998H16.325C16.5 14.7248 16.875 16.8998 17.475 18.9748L14.475 21.9748C13.45 18.9748 12.8 15.7998 12.575 12.4998ZM47.5 47.4248C44.2 47.1998 41.025 46.5498 38 45.5498L40.975 42.5748C43.1 43.1748 45.275 43.5498 47.475 43.6998V47.4248H47.5ZM45 22.4998H38.525L51.075 9.9498L47.55 6.4248L35 18.9748V12.4998H30V27.4998H45V22.4998Z" fill="#C1DB29"/>
</g>
<defs>
<clipPath id="clip0_202_2887">
<rect width="60" height="60" fill="white"/>
</clipPath>
</defs>
</svg>
