<svg width="60" height="60" viewBox="0 0 60 60" fill="none" xmlns="http://www.w3.org/2000/svg">
<g clip-path="url(#clip0_410_5678)">
<path d="M39.63 10.83C39.33 11.85 39 13.05 39 15.36L47.64 24H49.5V32.4L43.65 33.69L40.08 46.5H34.5V42H21V46.5H15.39C13.47 39.78 10.5 28.38 10.5 24C10.5 19.05 14.55 15 19.5 15H34.2C35.19 13.29 36.99 11.55 39.63 10.83ZM42 6C35.49 6 31.95 10.5 31.95 10.5H19.5C12.15 10.5 6 16.41 6 24C6 30.99 12 51 12 51H25.5V46.5H30V51H43.5L47.25 37.5L54 36V19.5H49.5L43.5 13.5C43.5 12.42 45 10.56 45 9C45 7.35 43.65 6 42 6ZM33 22.5H21V18H33V22.5ZM39.75 27C38.52 27 37.5 25.98 37.5 24.75C37.5 23.52 38.52 22.5 39.75 22.5C40.98 22.5 42 23.52 42 24.75C42 25.98 40.98 27 39.75 27Z" fill="#21383E"/>
</g>
<defs>
<clipPath id="clip0_410_5678">
<rect width="60" height="60" fill="white"/>
</clipPath>
</defs>
</svg>
