<svg width="160" height="160" viewBox="0 0 160 160" fill="none" xmlns="http://www.w3.org/2000/svg">
<g clip-path="url(#clip0_444_643)">
<path d="M105.68 28.88C104.88 31.6 104 34.8 104 40.96L127.04 64H132V86.4L116.4 89.84L106.88 124H92V112H56V124H41.04C35.92 106.08 28 75.68 28 64C28 50.8 38.8 40 52 40H91.2C93.84 35.44 98.64 30.8 105.68 28.88ZM112 16C94.64 16 85.2 28 85.2 28H52C32.4 28 16 43.76 16 64C16 82.64 32 136 32 136H68V124H80V136H116L126 100L144 96V52H132L116 36C116 33.12 120 28.16 120 24C120 19.6 116.4 16 112 16ZM88 60H56V48H88V60ZM106 72C102.72 72 100 69.28 100 66C100 62.72 102.72 60 106 60C109.28 60 112 62.72 112 66C112 69.28 109.28 72 106 72Z" fill="#21383E"/>
</g>
<defs>
<clipPath id="clip0_444_643">
<rect width="160" height="160" fill="white"/>
</clipPath>
</defs>
</svg>
