<svg width="60" height="60" viewBox="0 0 60 60" fill="none" xmlns="http://www.w3.org/2000/svg">
<g clip-path="url(#clip0_326_214)">
<path d="M32.5 7.5H27.5V32.5H32.5V7.5ZM44.575 12.925L41.025 16.475C44.975 19.65 47.5 24.525 47.5 30C47.5 39.675 39.675 47.5 30 47.5C20.325 47.5 12.5 39.675 12.5 30C12.5 24.525 15.025 19.65 18.95 16.45L15.425 12.925C10.575 17.05 7.5 23.15 7.5 30C7.5 42.425 17.575 52.5 30 52.5C42.425 52.5 52.5 42.425 52.5 30C52.5 23.15 49.425 17.05 44.575 12.925Z" fill="#05171B" fill-opacity="0.7"/>
</g>
<defs>
<clipPath id="clip0_326_214">
<rect width="60" height="60" fill="white"/>
</clipPath>
</defs>
</svg>
