<svg width="60" height="60" viewBox="0 0 60 60" fill="none" xmlns="http://www.w3.org/2000/svg">
<path d="M28.125 32.625V7.25H31.875V32.625H28.125ZM30 52.625C26.9167 52.625 24.0104 52.0312 21.2812 50.8438C18.5521 49.6562 16.1667 48.0417 14.125 46C12.0833 43.9583 10.4688 41.5729 9.28125 38.8438C8.09375 36.1146 7.5 33.2083 7.5 30.125C7.5 26.7917 8.20833 23.6771 9.625 20.7812C11.0417 17.8854 13.0417 15.3125 15.625 13.0625L18.25 15.6875C16.0417 17.4792 14.3229 19.6146 13.0938 22.0938C11.8646 24.5729 11.25 27.2495 11.25 30.1236C11.25 35.3329 13.0729 39.7604 16.7188 43.4062C20.3646 47.0521 24.7917 48.875 30 48.875C35.2232 48.875 39.654 47.0521 43.2924 43.4062C46.9308 39.7604 48.75 35.3329 48.75 30.1236C48.75 27.2495 48.1354 24.5521 46.9062 22.0312C45.6771 19.5104 44 17.3958 41.875 15.6875L44.5625 13.0625C47.0625 15.1875 49.0104 17.7292 50.4062 20.6875C51.8021 23.6458 52.5 26.7917 52.5 30.125C52.5 33.2083 51.9062 36.1146 50.7188 38.8438C49.5312 41.5729 47.9271 43.9583 45.9062 46C43.8854 48.0417 41.5104 49.6562 38.7812 50.8438C36.0521 52.0312 33.125 52.625 30 52.625Z" fill="#05171B" fill-opacity="0.7"/>
</svg>
