<svg width="60" height="60" viewBox="0 0 60 60" fill="none" xmlns="http://www.w3.org/2000/svg">
<g clip-path="url(#clip0_202_2968)">
<path d="M47.5 20H45V7.5H15V20H12.5C8.35 20 5 23.35 5 27.5V42.5H15V52.5H45V42.5H55V27.5C55 23.35 51.65 20 47.5 20ZM20 12.5H40V20H20V12.5ZM40 42.5V47.5H20V37.5H40V42.5ZM45 37.5V32.5H15V37.5H10V27.5C10 26.125 11.125 25 12.5 25H47.5C48.875 25 50 26.125 50 27.5V37.5H45Z" fill="#C1DB29"/>
<path d="M45 31.25C46.3807 31.25 47.5 30.1307 47.5 28.75C47.5 27.3693 46.3807 26.25 45 26.25C43.6193 26.25 42.5 27.3693 42.5 28.75C42.5 30.1307 43.6193 31.25 45 31.25Z" fill="#C1DB29"/>
</g>
<defs>
<clipPath id="clip0_202_2968">
<rect width="60" height="60" fill="white"/>
</clipPath>
</defs>
</svg>
