<svg width="60" height="60" viewBox="0 0 60 60" fill="none" xmlns="http://www.w3.org/2000/svg">
<g clip-path="url(#clip0_326_285)">
<path d="M30 5C16.2 5 5 16.2 5 30C5 43.8 16.2 55 30 55C43.8 55 55 43.8 55 30C55 16.2 43.8 5 30 5ZM17.675 45.7C18.75 43.45 25.3 41.25 30 41.25C34.7 41.25 41.275 43.45 42.325 45.7C38.925 48.4 34.65 50 30 50C25.35 50 21.075 48.4 17.675 45.7ZM45.9 42.075C42.325 37.725 33.65 36.25 30 36.25C26.35 36.25 17.675 37.725 14.1 42.075C11.55 38.725 10 34.55 10 30C10 18.975 18.975 10 30 10C41.025 10 50 18.975 50 30C50 34.55 48.45 38.725 45.9 42.075ZM30 15C25.15 15 21.25 18.9 21.25 23.75C21.25 28.6 25.15 32.5 30 32.5C34.85 32.5 38.75 28.6 38.75 23.75C38.75 18.9 34.85 15 30 15ZM30 27.5C27.925 27.5 26.25 25.825 26.25 23.75C26.25 21.675 27.925 20 30 20C32.075 20 33.75 21.675 33.75 23.75C33.75 25.825 32.075 27.5 30 27.5Z" fill="#C1DB29"/>
</g>
<defs>
<clipPath id="clip0_326_285">
<rect width="60" height="60" fill="white"/>
</clipPath>
</defs>
</svg>
