<svg width="60" height="60" viewBox="0 0 60 60" fill="none" xmlns="http://www.w3.org/2000/svg">
<g clip-path="url(#clip0_410_5732)">
<path d="M44.1254 15.875C40.5004 12.25 35.5254 10 30.0004 10C18.9504 10 10.0254 18.95 10.0254 30C10.0254 41.05 18.9504 50 30.0004 50C39.3254 50 47.1004 43.625 49.3254 35H44.1254C42.0754 40.825 36.5254 45 30.0004 45C21.7254 45 15.0004 38.275 15.0004 30C15.0004 21.725 21.7254 15 30.0004 15C34.1504 15 37.8504 16.725 40.5504 19.45L32.5004 27.5H50.0004V10L44.1254 15.875Z" fill="#21383E"/>
</g>
<defs>
<clipPath id="clip0_410_5732">
<rect width="60" height="60" fill="white"/>
</clipPath>
</defs>
</svg>
