<svg width="60" height="60" viewBox="0 0 60 60" fill="none" xmlns="http://www.w3.org/2000/svg">
<path d="M49.5 38.25C49.0859 38.25 48.75 38.5859 48.75 39V47.7C48.7494 48.3084 48.2562 48.8016 47.6475 48.8022H39.0332C38.6187 48.8022 38.2832 49.1381 38.2832 49.5522C38.2832 49.9667 38.6187 50.3022 39.0332 50.3022H47.6458C48.3368 50.3019 48.9991 50.027 49.4876 49.5382C49.9758 49.0493 50.25 48.3863 50.2497 47.6953V38.9953C50.2473 38.5828 49.9122 38.25 49.4997 38.25L49.5 38.25Z" fill="#05171B" fill-opacity="0.7"/>
<path d="M49.4997 37.25C49.4952 37.25 49.4908 37.25 49.4864 37.2501C48.5262 37.2574 47.75 38.0381 47.75 39L47.75 47.6989C47.75 47.699 47.75 47.6992 47.75 47.6993C47.7498 47.7558 47.7039 47.802 47.6469 47.8022C47.6467 47.8022 47.6466 47.8022 47.6465 47.8022L39.0332 47.8022C38.0661 47.8022 37.2832 48.5861 37.2832 49.5522C37.2832 50.519 38.0664 51.3022 39.0332 51.3022L47.6458 51.3022L47.6463 51.3022C48.6027 51.3018 49.5192 50.9213 50.195 50.245L50.1952 50.2448C50.8706 49.5685 51.25 48.6513 51.2497 47.6953C51.2497 47.6951 51.2497 47.695 51.2497 47.6948V38.9953H51.2497L51.2496 38.9896C51.2442 38.0263 50.4614 37.25 49.4997 37.25Z" stroke="#05171B" stroke-opacity="0.7" stroke-width="2" stroke-linejoin="round"/>
<path d="M47.7977 9.75006H39C38.5858 9.75006 38.25 10.0859 38.25 10.5001C38.25 10.9142 38.5858 11.2501 39 11.2501H47.7917C48.4004 11.2507 48.8936 11.7439 48.8943 12.3526V20.8336C48.8943 21.2478 49.2301 21.5836 49.6443 21.5836C50.0584 21.5836 50.3943 21.2478 50.3943 20.8336V12.3526C50.3936 11.6635 50.12 11.0029 49.6332 10.5154C49.1467 10.0276 48.4868 9.75241 47.7977 9.75006Z" fill="#05171B" fill-opacity="0.7"/>
<path d="M47.8011 8.75006H47.7977H39C38.0335 8.75006 37.25 9.5336 37.25 10.5001C37.25 11.4665 38.0335 12.2501 39 12.2501H47.7908C47.8479 12.2502 47.894 12.2963 47.8943 12.3534C47.8943 12.3535 47.8943 12.3536 47.8943 12.3537L47.8943 20.8336C47.8943 21.8001 48.6778 22.5836 49.6443 22.5836C50.6107 22.5836 51.3943 21.8001 51.3943 20.8336L51.3943 12.3526L51.3943 12.3516C51.3933 11.3983 51.0149 10.4842 50.3413 9.80927C49.668 9.13409 48.7546 8.75332 47.8011 8.75006Z" stroke="#05171B" stroke-opacity="0.7" stroke-width="2" stroke-linejoin="round"/>
<path d="M10.5004 21.6435C10.6992 21.6435 10.8901 21.5645 11.0307 21.4239C11.1713 21.2833 11.2504 21.0924 11.2504 20.8935V12.3525C11.251 11.7438 11.7442 11.2507 12.3529 11.25H20.9766H20.9763C21.3905 11.25 21.7263 10.9142 21.7263 10.5C21.7263 10.0858 21.3905 9.75 20.9763 9.75H12.3526C11.6625 9.75067 11.0009 10.0252 10.5131 10.5131C10.0253 11.0009 9.75067 11.6625 9.75 12.3526V20.8936C9.75 21.0925 9.82902 21.2833 9.96964 21.4239C10.1103 21.5645 10.3011 21.6436 10.5 21.6436L10.5004 21.6435Z" fill="#05171B" fill-opacity="0.7"/>
<path d="M20.9763 12.25C20.9764 12.25 20.9765 12.25 20.9766 12.25C21.9429 12.2498 22.7263 11.4663 22.7263 10.5C22.7263 9.53354 21.9427 8.75 20.9763 8.75L12.3526 8.75L12.3516 8.75C11.3966 8.75093 10.481 9.13086 9.80592 9.80597C9.13094 10.481 8.75093 11.3965 8.75 12.3516V12.3526V20.8936C8.75 21.3575 8.93429 21.8028 9.26254 22.131C9.59078 22.4593 10.036 22.6436 10.5 22.6436C10.5035 22.6436 10.507 22.6435 10.5105 22.6435C10.9708 22.6409 11.412 22.4569 11.7378 22.131C12.0661 21.8028 12.2504 21.3575 12.2504 20.8935V12.3534C12.2505 12.2964 12.2967 12.2502 12.3538 12.25H20.9763Z" stroke="#05171B" stroke-opacity="0.7" stroke-width="2" stroke-linejoin="round"/>
<path d="M20.9763 48.7383H12.3525C11.7438 48.7376 11.2507 48.2444 11.25 47.6357V39C11.25 38.5858 10.9142 38.25 10.5 38.25C10.0858 38.25 9.75 38.5858 9.75 39V47.634C9.75033 48.3241 10.0246 48.986 10.5127 49.4742C11.0006 49.9624 11.6621 50.2373 12.3526 50.2379H20.9763C21.3905 50.2379 21.726 49.9021 21.726 49.4879C21.726 49.0738 21.3904 48.7383 20.9763 48.7383Z" fill="#05171B" fill-opacity="0.7"/>
<path d="M8.75 47.634L8.75 47.6345C8.75046 48.5895 9.12998 49.5056 9.80557 50.1813C10.4805 50.8566 11.396 51.237 12.3516 51.2379H12.3526H20.9763C21.9433 51.2379 22.726 50.4538 22.726 49.4879C22.726 48.5214 21.9427 47.7383 20.9763 47.7383L12.3536 47.7383C12.3535 47.7383 12.3534 47.7383 12.3533 47.7383C12.2963 47.738 12.2502 47.6919 12.25 47.6348V39C12.25 38.0335 11.4665 37.25 10.5 37.25C9.53354 37.25 8.75 38.0335 8.75 39L8.75 47.634Z" stroke="#05171B" stroke-opacity="0.7" stroke-width="2" stroke-linejoin="round"/>
<path d="M45 29.25H15C14.5858 29.25 14.25 29.5858 14.25 30C14.25 30.4142 14.5858 30.75 15 30.75H45C45.4142 30.75 45.75 30.4142 45.75 30C45.75 29.5858 45.4142 29.25 45 29.25Z" fill="#05171B" fill-opacity="0.7"/>
<path d="M45 28.25H15C14.0335 28.25 13.25 29.0335 13.25 30C13.25 30.9665 14.0335 31.75 15 31.75H45C45.9665 31.75 46.75 30.9665 46.75 30C46.75 29.0335 45.9665 28.25 45 28.25Z" stroke="#05171B" stroke-opacity="0.7" stroke-width="2" stroke-linejoin="round"/>
</svg>
