<svg width="60" height="60" viewBox="0 0 60 60" fill="none" xmlns="http://www.w3.org/2000/svg">
<path d="M49.4997 37.25C49.4952 37.25 49.4908 37.25 49.4864 37.2501C48.5262 37.2574 47.75 38.0381 47.75 39L47.75 47.6989C47.75 47.699 47.75 47.6992 47.75 47.6993C47.7498 47.7558 47.7039 47.802 47.6469 47.8022C47.6467 47.8022 47.6466 47.8022 47.6465 47.8022L39.0332 47.8022C38.0661 47.8022 37.2832 48.5861 37.2832 49.5522C37.2832 50.519 38.0664 51.3022 39.0332 51.3022L47.6458 51.3022L47.6463 51.3022C48.6027 51.3018 49.5192 50.9213 50.195 50.245L50.1952 50.2448C50.8706 49.5685 51.25 48.6513 51.2497 47.6953C51.2497 47.6951 51.2497 47.695 51.2497 47.6948V38.9953H51.2497L51.2496 38.9896C51.2442 38.0263 50.4614 37.25 49.4997 37.25Z" fill="#C1DB29" stroke="#C1DB29" stroke-width="2" stroke-linejoin="round"/>
<path d="M47.8011 8.75006H47.7977H39C38.0335 8.75006 37.25 9.5336 37.25 10.5001C37.25 11.4665 38.0335 12.2501 39 12.2501H47.7908C47.8479 12.2502 47.894 12.2963 47.8943 12.3534C47.8943 12.3535 47.8943 12.3536 47.8943 12.3537L47.8943 20.8336C47.8943 21.8001 48.6778 22.5836 49.6443 22.5836C50.6107 22.5836 51.3943 21.8001 51.3943 20.8336L51.3943 12.3526L51.3943 12.3516C51.3933 11.3983 51.0149 10.4842 50.3413 9.80927C49.668 9.13409 48.7546 8.75332 47.8011 8.75006Z" fill="#C1DB29" stroke="#C1DB29" stroke-width="2" stroke-linejoin="round"/>
<path d="M20.9763 12.25C20.9764 12.25 20.9765 12.25 20.9766 12.25C21.9429 12.2498 22.7263 11.4663 22.7263 10.5C22.7263 9.53354 21.9427 8.75 20.9763 8.75L12.3526 8.75L12.3516 8.75C11.3966 8.75093 10.481 9.13086 9.80592 9.80597C9.13094 10.481 8.75093 11.3965 8.75 12.3516V12.3526V20.8936C8.75 21.3575 8.93429 21.8028 9.26254 22.131C9.59078 22.4593 10.036 22.6436 10.5 22.6436C10.5035 22.6436 10.507 22.6435 10.5105 22.6435C10.9708 22.6409 11.412 22.4569 11.7378 22.131C12.0661 21.8028 12.2504 21.3575 12.2504 20.8935V12.3534C12.2505 12.2964 12.2967 12.2502 12.3538 12.25H20.9763Z" fill="#C1DB29" stroke="#C1DB29" stroke-width="2" stroke-linejoin="round"/>
<path d="M8.75 47.634L8.75 47.6345C8.75046 48.5895 9.12998 49.5056 9.80557 50.1813C10.4805 50.8566 11.396 51.237 12.3516 51.2379H12.3526H20.9763C21.9433 51.2379 22.726 50.4538 22.726 49.4879C22.726 48.5214 21.9427 47.7383 20.9763 47.7383L12.3536 47.7383C12.3535 47.7383 12.3534 47.7383 12.3533 47.7383C12.2963 47.738 12.2502 47.6919 12.25 47.6348V39C12.25 38.0335 11.4665 37.25 10.5 37.25C9.53354 37.25 8.75 38.0335 8.75 39L8.75 47.634Z" fill="#C1DB29" stroke="#C1DB29" stroke-width="2" stroke-linejoin="round"/>
<path d="M45 28.25H15C14.0335 28.25 13.25 29.0335 13.25 30C13.25 30.9665 14.0335 31.75 15 31.75H45C45.9665 31.75 46.75 30.9665 46.75 30C46.75 29.0335 45.9665 28.25 45 28.25Z" fill="#C1DB29" stroke="#C1DB29" stroke-width="2" stroke-linejoin="round"/>
</svg>
