<svg width="60" height="60" viewBox="0 0 60 60" fill="none" xmlns="http://www.w3.org/2000/svg">
<g clip-path="url(#clip0_326_253)">
<path d="M48.5751 32.45C48.6751 31.65 48.7501 30.85 48.7501 30C48.7501 29.15 48.6751 28.35 48.5751 27.55L53.8501 23.425C54.3251 23.05 54.4501 22.375 54.1501 21.825L49.1501 13.175C48.9251 12.775 48.5001 12.55 48.0501 12.55C47.9001 12.55 47.7501 12.575 47.6251 12.625L41.4001 15.125C40.1001 14.125 38.7001 13.3 37.1751 12.675L36.2251 6.05C36.1501 5.45 35.6251 5 35.0001 5H25.0001C24.3751 5 23.8501 5.45 23.7751 6.05L22.8251 12.675C21.3001 13.3 19.9001 14.15 18.6001 15.125L12.3751 12.625C12.2251 12.575 12.0751 12.55 11.9251 12.55C11.5001 12.55 11.0751 12.775 10.8501 13.175L5.85009 21.825C5.52509 22.375 5.67509 23.05 6.15009 23.425L11.4251 27.55C11.3251 28.35 11.2501 29.175 11.2501 30C11.2501 30.825 11.3251 31.65 11.4251 32.45L6.15009 36.575C5.67509 36.95 5.55009 37.625 5.85009 38.175L10.8501 46.825C11.0751 47.225 11.5001 47.45 11.9501 47.45C12.1001 47.45 12.2501 47.425 12.3751 47.375L18.6001 44.875C19.9001 45.875 21.3001 46.7 22.8251 47.325L23.7751 53.95C23.8501 54.55 24.3751 55 25.0001 55H35.0001C35.6251 55 36.1501 54.55 36.2251 53.95L37.1751 47.325C38.7001 46.7 40.1001 45.85 41.4001 44.875L47.6251 47.375C47.7751 47.425 47.9251 47.45 48.0751 47.45C48.5001 47.45 48.9251 47.225 49.1501 46.825L54.1501 38.175C54.4501 37.625 54.3251 36.95 53.8501 36.575L48.5751 32.45ZM43.6251 28.175C43.7251 28.95 43.7501 29.475 43.7501 30C43.7501 30.525 43.7001 31.075 43.6251 31.825L43.2751 34.65L45.5001 36.4L48.2001 38.5L46.4501 41.525L43.2751 40.25L40.6751 39.2L38.4251 40.9C37.3501 41.7 36.3251 42.3 35.3001 42.725L32.6501 43.8L32.2501 46.625L31.7501 50H28.2501L27.7751 46.625L27.3751 43.8L24.7251 42.725C23.6501 42.275 22.6501 41.7 21.6501 40.95L19.3751 39.2L16.7251 40.275L13.5501 41.55L11.8001 38.525L14.5001 36.425L16.7251 34.675L16.3751 31.85C16.3001 31.075 16.2501 30.5 16.2501 30C16.2501 29.5 16.3001 28.925 16.3751 28.175L16.7251 25.35L14.5001 23.6L11.8001 21.5L13.5501 18.475L16.7251 19.75L19.3251 20.8L21.5751 19.1C22.6501 18.3 23.6751 17.7 24.7001 17.275L27.3501 16.2L27.7501 13.375L28.2501 10H31.7251L32.2001 13.375L32.6001 16.2L35.2501 17.275C36.3251 17.725 37.3251 18.3 38.3251 19.05L40.6001 20.8L43.2501 19.725L46.4251 18.45L48.1751 21.475L45.5001 23.6L43.2751 25.35L43.6251 28.175ZM30.0001 20C24.4751 20 20.0001 24.475 20.0001 30C20.0001 35.525 24.4751 40 30.0001 40C35.5251 40 40.0001 35.525 40.0001 30C40.0001 24.475 35.5251 20 30.0001 20ZM30.0001 35C27.2501 35 25.0001 32.75 25.0001 30C25.0001 27.25 27.2501 25 30.0001 25C32.7501 25 35.0001 27.25 35.0001 30C35.0001 32.75 32.7501 35 30.0001 35Z" fill="#05171B" fill-opacity="0.7"/>
</g>
<defs>
<clipPath id="clip0_326_253">
<rect width="60" height="60" fill="white"/>
</clipPath>
</defs>
</svg>
