<svg width="60" height="60" viewBox="0 0 60 60" fill="none" xmlns="http://www.w3.org/2000/svg">
<path d="M24.25 55L23 47.125C22.2083 46.8333 21.375 46.4375 20.5 45.9375C19.625 45.4375 18.8542 44.9167 18.1875 44.375L10.8125 47.75L5 37.5L11.75 32.5625C11.6667 32.1875 11.6146 31.7604 11.5938 31.2812C11.5729 30.8021 11.5625 30.375 11.5625 30C11.5625 29.625 11.5729 29.1979 11.5938 28.7188C11.6146 28.2396 11.6667 27.8125 11.75 27.4375L5 22.5L10.8125 12.25L18.1875 15.625C18.8542 15.0833 19.625 14.5625 20.5 14.0625C21.375 13.5625 22.2083 13.1875 23 12.9375L24.25 5H35.75L37 12.875C37.7917 13.1667 38.6354 13.5521 39.5312 14.0312C40.4271 14.5104 41.1875 15.0417 41.8125 15.625L49.1875 12.25L55 22.5L48.25 27.3125C48.3333 27.7292 48.3854 28.1771 48.4062 28.6562C48.4271 29.1354 48.4375 29.5833 48.4375 30C48.4375 30.4167 48.4271 30.8542 48.4062 31.3125C48.3854 31.7708 48.3333 32.2083 48.25 32.625L55 37.5L49.1875 47.75L41.8125 44.375C41.1458 44.9167 40.3854 45.4479 39.5312 45.9688C38.6771 46.4896 37.8333 46.875 37 47.125L35.75 55H24.25ZM30 38.125C32.25 38.125 34.1667 37.3333 35.75 35.75C37.3333 34.1667 38.125 32.25 38.125 30C38.125 27.75 37.3333 25.8333 35.75 24.25C34.1667 22.6667 32.25 21.875 30 21.875C27.75 21.875 25.8333 22.6667 24.25 24.25C22.6667 25.8333 21.875 27.75 21.875 30C21.875 32.25 22.6667 34.1667 24.25 35.75C25.8333 37.3333 27.75 38.125 30 38.125ZM30 34.375C28.7917 34.375 27.7604 33.9479 26.9062 33.0938C26.0521 32.2396 25.625 31.2083 25.625 30C25.625 28.7917 26.0521 27.7604 26.9062 26.9062C27.7604 26.0521 28.7917 25.625 30 25.625C31.2083 25.625 32.2396 26.0521 33.0938 26.9062C33.9479 27.7604 34.375 28.7917 34.375 30C34.375 31.2083 33.9479 32.2396 33.0938 33.0938C32.2396 33.9479 31.2083 34.375 30 34.375ZM27.25 51.25H32.75L33.625 44.25C35 43.9167 36.3021 43.3958 37.5312 42.6875C38.7604 41.9792 39.875 41.125 40.875 40.125L47.5 43L50 38.5L44.125 34.1875C44.2917 33.4792 44.4271 32.7812 44.5312 32.0938C44.6354 31.4062 44.6875 30.7083 44.6875 30C44.6875 29.2917 44.6458 28.5938 44.5625 27.9062C44.4792 27.2188 44.3333 26.5208 44.125 25.8125L50 21.5L47.5 17L40.875 19.875C39.9167 18.7917 38.8333 17.8854 37.625 17.1562C36.4167 16.4271 35.0833 15.9583 33.625 15.75L32.75 8.75H27.25L26.375 15.75C24.9583 16.0417 23.6354 16.5417 22.4062 17.25C21.1771 17.9583 20.0833 18.8333 19.125 19.875L12.5 17L10 21.5L15.875 25.8125C15.7083 26.5208 15.5729 27.2188 15.4688 27.9062C15.3646 28.5938 15.3125 29.2917 15.3125 30C15.3125 30.7083 15.3646 31.4062 15.4688 32.0938C15.5729 32.7812 15.7083 33.4792 15.875 34.1875L10 38.5L12.5 43L19.125 40.125C20.125 41.125 21.2396 41.9792 22.4688 42.6875C23.6979 43.3958 25 43.9167 26.375 44.25L27.25 51.25Z" fill="#C1DB29"/>
</svg>
