<svg width="60" height="60" viewBox="0 0 60 60" fill="none" xmlns="http://www.w3.org/2000/svg">
<path d="M45.4375 55C43.4583 55 41.776 54.3053 40.3906 52.9159C39.0052 51.5264 38.3125 49.8392 38.3125 47.8543C38.3125 47.5764 38.3438 47.2366 38.4062 46.8348C38.4688 46.433 38.5625 46.0714 38.6875 45.75L19.75 34.75C19.125 35.4583 18.3542 36.0312 17.4375 36.4688C16.5208 36.9062 15.5833 37.125 14.625 37.125C12.6458 37.125 10.9635 36.4323 9.57812 35.0469C8.19271 33.6615 7.5 31.9792 7.5 30C7.5 28.0208 8.19271 26.3385 9.57812 24.9531C10.9635 23.5677 12.6458 22.875 14.625 22.875C15.5833 22.875 16.5 23.0625 17.375 23.4375C18.25 23.8125 19.0417 24.3542 19.75 25.0625L38.6875 14.1875C38.5625 13.8929 38.4688 13.5614 38.4062 13.1931C38.3438 12.8248 38.3125 12.4688 38.3125 12.125C38.3125 10.1458 39.0052 8.46354 40.3906 7.07812C41.776 5.69271 43.4583 5 45.4375 5C47.4167 5 49.099 5.69271 50.4844 7.07812C51.8698 8.46354 52.5625 10.1458 52.5625 12.125C52.5625 14.1042 51.8698 15.7865 50.4844 17.1719C49.099 18.5573 47.4167 19.25 45.4375 19.25C44.4644 19.25 43.5336 19.0938 42.6452 18.7812C41.7567 18.4688 41 17.9583 40.375 17.25L21.4375 27.75C21.5208 28.0833 21.5938 28.4688 21.6562 28.9062C21.7188 29.3438 21.75 29.7134 21.75 30.0151C21.75 30.3168 21.7188 30.6293 21.6562 30.9526C21.5938 31.2759 21.5208 31.6042 21.4375 31.9375L40.375 42.6875C41 42.1042 41.7292 41.6354 42.5625 41.2812C43.3958 40.9271 44.3542 40.75 45.4375 40.75C47.4167 40.75 49.099 41.4427 50.4844 42.8281C51.8698 44.2135 52.5625 45.8958 52.5625 47.875C52.5625 49.8542 51.8698 51.5365 50.4844 52.9219C49.099 54.3073 47.4167 55 45.4375 55ZM45.4397 15.5C46.3966 15.5 47.1979 15.1764 47.8438 14.5291C48.4896 13.8818 48.8125 13.0797 48.8125 12.1228C48.8125 11.1659 48.4889 10.3646 47.8416 9.71875C47.1943 9.07292 46.3922 8.75 45.4353 8.75C44.4784 8.75 43.6771 9.07365 43.0312 9.72094C42.3854 10.3682 42.0625 11.1703 42.0625 12.1272C42.0625 13.0841 42.3861 13.8854 43.0334 14.5312C43.6807 15.1771 44.4828 15.5 45.4397 15.5ZM14.6272 33.375C15.5841 33.375 16.3854 33.0514 17.0312 32.4041C17.6771 31.7568 18 30.9547 18 29.9978C18 29.0409 17.6764 28.2396 17.0291 27.5938C16.3818 26.9479 15.5797 26.625 14.6228 26.625C13.6659 26.625 12.8646 26.9486 12.2188 27.5959C11.5729 28.2432 11.25 29.0453 11.25 30.0022C11.25 30.9591 11.5736 31.7604 12.2209 32.4062C12.8682 33.0521 13.6703 33.375 14.6272 33.375ZM45.4397 51.25C46.3966 51.25 47.1979 50.9264 47.8438 50.2791C48.4896 49.6318 48.8125 48.8297 48.8125 47.8728C48.8125 46.9159 48.4889 46.1146 47.8416 45.4688C47.1943 44.8229 46.3922 44.5 45.4353 44.5C44.4784 44.5 43.6771 44.8236 43.0312 45.4709C42.3854 46.1182 42.0625 46.9203 42.0625 47.8772C42.0625 48.8341 42.3861 49.6354 43.0334 50.2812C43.6807 50.9271 44.4828 51.25 45.4397 51.25Z" fill="#05171B" fill-opacity="0.7"/>
</svg>
