<svg width="60" height="60" viewBox="0 0 60 60" fill="none" xmlns="http://www.w3.org/2000/svg">
<g clip-path="url(#clip0_326_206)">
<path d="M45 40.2C43.1 40.2 41.4 40.95 40.1 42.125L22.275 31.75C22.4 31.175 22.5 30.6 22.5 30C22.5 29.4 22.4 28.825 22.275 28.25L39.9 17.975C41.25 19.225 43.025 20 45 20C49.15 20 52.5 16.65 52.5 12.5C52.5 8.35 49.15 5 45 5C40.85 5 37.5 8.35 37.5 12.5C37.5 13.1 37.6 13.675 37.725 14.25L20.1 24.525C18.75 23.275 16.975 22.5 15 22.5C10.85 22.5 7.5 25.85 7.5 30C7.5 34.15 10.85 37.5 15 37.5C16.975 37.5 18.75 36.725 20.1 35.475L37.9 45.875C37.775 46.4 37.7 46.95 37.7 47.5C37.7 51.525 40.975 54.8 45 54.8C49.025 54.8 52.3 51.525 52.3 47.5C52.3 43.475 49.025 40.2 45 40.2ZM45 10C46.375 10 47.5 11.125 47.5 12.5C47.5 13.875 46.375 15 45 15C43.625 15 42.5 13.875 42.5 12.5C42.5 11.125 43.625 10 45 10ZM15 32.5C13.625 32.5 12.5 31.375 12.5 30C12.5 28.625 13.625 27.5 15 27.5C16.375 27.5 17.5 28.625 17.5 30C17.5 31.375 16.375 32.5 15 32.5ZM45 50.05C43.625 50.05 42.5 48.925 42.5 47.55C42.5 46.175 43.625 45.05 45 45.05C46.375 45.05 47.5 46.175 47.5 47.55C47.5 48.925 46.375 50.05 45 50.05Z" fill="#05171B" fill-opacity="0.7"/>
</g>
<defs>
<clipPath id="clip0_326_206">
<rect width="60" height="60" fill="white"/>
</clipPath>
</defs>
</svg>
