<svg width="60" height="60" viewBox="0 0 60 60" fill="none" xmlns="http://www.w3.org/2000/svg">
<path d="M30 52.5C26.875 52.5 24.1979 51.3854 21.9688 49.1562C19.7396 46.9271 18.625 44.25 18.625 41.125C18.625 39.125 19.125 37.2292 20.125 35.4375C21.125 33.6458 22.5 32.2083 24.25 31.125V13.25C24.25 11.6667 24.8125 10.3125 25.9375 9.1875C27.0625 8.0625 28.4167 7.5 30 7.5C31.5833 7.5 32.9375 8.0625 34.0625 9.1875C35.1875 10.3125 35.75 11.6667 35.75 13.25V31.125C37.5 32.2083 38.875 33.6458 39.875 35.4375C40.875 37.2292 41.375 39.125 41.375 41.125C41.375 44.25 40.2604 46.9271 38.0312 49.1562C35.8021 51.3854 33.125 52.5 30 52.5ZM30 48.8125C32 48.8125 33.7708 48.0312 35.3125 46.4688C36.8542 44.9062 37.625 43.125 37.625 41.125C37.625 39.6667 37.2292 38.2188 36.4375 36.7812C35.6458 35.3438 34.5833 34.3333 33.25 33.75L32 33.1875V13.25C32 12.6667 31.8125 12.1875 31.4375 11.8125C31.0625 11.4375 30.5833 11.25 30 11.25C29.4167 11.25 28.9375 11.4375 28.5625 11.8125C28.1875 12.1875 28 12.6667 28 13.25V33.1875L26.75 33.75C25.4167 34.3333 24.3542 35.3438 23.5625 36.7812C22.7708 38.2188 22.375 39.6667 22.375 41.125C22.375 43.125 23.1458 44.9062 24.6875 46.4688C26.2292 48.0312 28 48.8125 30 48.8125Z" fill="#05171B" fill-opacity="0.7"/>
</svg>
