<svg width="60" height="60" viewBox="0 0 60 60" fill="none" xmlns="http://www.w3.org/2000/svg">
<path d="M23 32.4991L24.5014 34.498L25.5 33.748V32.4991H23ZM38 32.4991H35.5V33.748L36.4986 34.498L38 32.4991ZM25.5 13.5C25.5 10.7386 27.7386 8.5 30.5 8.5V3.5C24.9772 3.5 20.5 7.97715 20.5 13.5H25.5ZM25.5 32.4991V13.5H20.5V32.4991H25.5ZM20.5 42.5C20.5 39.23 22.0669 36.3266 24.5014 34.498L21.4986 30.5002C17.8609 33.2326 15.5 37.5909 15.5 42.5H20.5ZM30.5 52.5C24.9772 52.5 20.5 48.0228 20.5 42.5H15.5C15.5 50.7843 22.2157 57.5 30.5 57.5V52.5ZM40.5 42.5C40.5 48.0228 36.0228 52.5 30.5 52.5V57.5C38.7843 57.5 45.5 50.7843 45.5 42.5H40.5ZM36.4986 34.498C38.9331 36.3266 40.5 39.23 40.5 42.5H45.5C45.5 37.5909 43.1391 33.2326 39.5014 30.5002L36.4986 34.498ZM35.5 13.5V32.4991H40.5V13.5H35.5ZM30.5 8.5C33.2614 8.5 35.5 10.7386 35.5 13.5H40.5C40.5 7.97715 36.0228 3.5 30.5 3.5V8.5Z" fill="#05171B" fill-opacity="0.7"/>
<path fill-rule="evenodd" clip-rule="evenodd" d="M33 27H28V37.5997C26.2192 38.5101 25 40.3627 25 42.5C25 45.5376 27.4624 48 30.5 48C33.5376 48 36 45.5376 36 42.5C36 40.3627 34.7808 38.5101 33 37.5997V27Z" fill="#05171B" fill-opacity="0.7"/>
</svg>
