<svg width="160" height="160" viewBox="0 0 160 160" fill="none" xmlns="http://www.w3.org/2000/svg">
<g clip-path="url(#clip0_451_742)">
<path d="M85.7994 100.467L68.866 83.7335L69.066 83.5335C80.666 70.6002 88.9327 55.7335 93.7994 40.0002H113.333V26.6668H66.666V13.3335H53.3327V26.6668H6.66602V39.9335H81.1327C76.666 52.8002 69.5994 65.0002 59.9994 75.6668C53.7994 68.8002 48.666 61.2668 44.5994 53.3335H31.266C36.1327 64.2002 42.7994 74.4668 51.1327 83.7335L17.1993 117.2L26.666 126.667L59.9994 93.3335L80.7327 114.067L85.7994 100.467ZM123.333 66.6668H109.999L79.9994 146.667H93.3327L100.799 126.667H132.466L139.999 146.667H153.333L123.333 66.6668ZM105.866 113.333L116.666 84.4668L127.466 113.333H105.866Z" fill="#21383E"/>
</g>
<defs>
<clipPath id="clip0_451_742">
<rect width="160" height="160" fill="white"/>
</clipPath>
</defs>
</svg>
