<svg width="60" height="60" viewBox="0 0 60 60" fill="none" xmlns="http://www.w3.org/2000/svg">
<g clip-path="url(#clip0_202_2927)">
<path d="M32.175 37.675L25.825 31.4L25.9 31.325C30.25 26.475 33.35 20.9 35.175 15H42.5V10H25V5H20V10H2.5V14.975H30.425C28.75 19.8 26.1 24.375 22.5 28.375C20.175 25.8 18.25 22.975 16.725 20H11.725C13.55 24.075 16.05 27.925 19.175 31.4L6.45 43.95L10 47.5L22.5 35L30.275 42.775L32.175 37.675ZM46.25 25H41.25L30 55H35L37.8 47.5H49.675L52.5 55H57.5L46.25 25ZM39.7 42.5L43.75 31.675L47.8 42.5H39.7Z" fill="#05171B" fill-opacity="0.7"/>
</g>
<defs>
<clipPath id="clip0_202_2927">
<rect width="60" height="60" fill="white"/>
</clipPath>
</defs>
</svg>
