<svg width="50" height="50" viewBox="0 0 50 50" fill="none" xmlns="http://www.w3.org/2000/svg">
<path d="M43.5751 27.45C43.6751 26.65 43.7501 25.85 43.7501 25C43.7501 24.15 43.6751 23.35 43.5751 22.55L48.8501 18.425C49.3251 18.05 49.4501 17.375 49.1501 16.825L44.1501 8.175C43.9251 7.775 43.5001 7.55 43.0501 7.55C42.9001 7.55 42.7501 7.575 42.6251 7.625L36.4001 10.125C35.1001 9.125 33.7001 8.3 32.1751 7.675L31.2251 1.05C31.1501 0.45 30.6251 0 30.0001 0H20.0001C19.3751 0 18.8501 0.45 18.7751 1.05L17.8251 7.675C16.3001 8.3 14.9001 9.15 13.6001 10.125L7.37509 7.625C7.22509 7.575 7.07509 7.55 6.92509 7.55C6.50009 7.55 6.07509 7.775 5.85009 8.175L0.850087 16.825C0.525087 17.375 0.675087 18.05 1.15009 18.425L6.42509 22.55C6.32509 23.35 6.25009 24.175 6.25009 25C6.25009 25.825 6.32509 26.65 6.42509 27.45L1.15009 31.575C0.675087 31.95 0.550087 32.625 0.850087 33.175L5.85009 41.825C6.07509 42.225 6.50009 42.45 6.95009 42.45C7.10009 42.45 7.25009 42.425 7.37509 42.375L13.6001 39.875C14.9001 40.875 16.3001 41.7 17.8251 42.325L18.7751 48.95C18.8501 49.55 19.3751 50 20.0001 50H30.0001C30.6251 50 31.1501 49.55 31.2251 48.95L32.1751 42.325C33.7001 41.7 35.1001 40.85 36.4001 39.875L42.6251 42.375C42.7751 42.425 42.9251 42.45 43.0751 42.45C43.5001 42.45 43.9251 42.225 44.1501 41.825L49.1501 33.175C49.4501 32.625 49.3251 31.95 48.8501 31.575L43.5751 27.45ZM38.6251 23.175C38.7251 23.95 38.7501 24.475 38.7501 25C38.7501 25.525 38.7001 26.075 38.6251 26.825L38.2751 29.65L40.5001 31.4L43.2001 33.5L41.4501 36.525L38.2751 35.25L35.6751 34.2L33.4251 35.9C32.3501 36.7 31.3251 37.3 30.3001 37.725L27.6501 38.8L27.2501 41.625L26.7501 45H23.2501L22.7751 41.625L22.3751 38.8L19.7251 37.725C18.6501 37.275 17.6501 36.7 16.6501 35.95L14.3751 34.2L11.7251 35.275L8.55009 36.55L6.80009 33.525L9.50009 31.425L11.7251 29.675L11.3751 26.85C11.3001 26.075 11.2501 25.5 11.2501 25C11.2501 24.5 11.3001 23.925 11.3751 23.175L11.7251 20.35L9.50009 18.6L6.80009 16.5L8.55009 13.475L11.7251 14.75L14.3251 15.8L16.5751 14.1C17.6501 13.3 18.6751 12.7 19.7001 12.275L22.3501 11.2L22.7501 8.375L23.2501 5H26.7251L27.2001 8.375L27.6001 11.2L30.2501 12.275C31.3251 12.725 32.3251 13.3 33.3251 14.05L35.6001 15.8L38.2501 14.725L41.4251 13.45L43.1751 16.475L40.5001 18.6L38.2751 20.35L38.6251 23.175ZM25.0001 15C19.4751 15 15.0001 19.475 15.0001 25C15.0001 30.525 19.4751 35 25.0001 35C30.5251 35 35.0001 30.525 35.0001 25C35.0001 19.475 30.5251 15 25.0001 15ZM25.0001 30C22.2501 30 20.0001 27.75 20.0001 25C20.0001 22.25 22.2501 20 25.0001 20C27.7501 20 30.0001 22.25 30.0001 25C30.0001 27.75 27.7501 30 25.0001 30Z" fill="#C1DB29"/>
</svg>
