<svg width="1390" height="818" viewBox="0 0 1390 818" fill="none" xmlns="http://www.w3.org/2000/svg">
<path d="M1127 3L1141 17C1148.73 24.732 1148.73 37.268 1141 45V45C1133.27 52.732 1133.27 65.268 1141 73V73C1148.73 80.732 1148.73 93.268 1141 101V101C1133.27 108.732 1133.27 121.268 1141 129V129C1148.73 136.732 1148.73 149.268 1141 157V157C1133.27 164.732 1133.27 177.268 1141 185V185C1148.73 192.732 1148.73 205.268 1141 213V213C1133.27 220.732 1133.27 233.268 1141 241V241C1148.73 248.732 1148.73 261.268 1141 269V269C1133.27 276.732 1133.27 289.268 1141 297V297C1148.73 304.732 1148.73 317.268 1141 325V325C1133.27 332.732 1133.27 345.268 1141 353V353C1148.73 360.732 1148.73 373.268 1141 381V381C1133.27 388.732 1133.27 401.268 1141 409V409C1148.73 416.732 1148.73 429.268 1141 437V437C1133.27 444.732 1133.27 457.268 1141 465V465C1148.73 472.732 1148.73 485.268 1141 493V493C1133.27 500.732 1133.27 513.268 1141 521V521C1148.73 528.732 1148.73 541.268 1141 549V549C1133.27 556.732 1133.27 569.268 1141 577V577C1148.73 584.732 1148.73 597.268 1141 605V605C1133.27 612.732 1133.27 625.268 1141 633V633C1148.73 640.732 1148.73 653.268 1141 661V661C1133.27 668.732 1133.27 681.268 1141 689V689C1148.73 696.732 1148.73 709.268 1141 717V717C1133.27 724.732 1133.27 737.268 1141 745V745C1148.73 752.732 1148.73 765.268 1141 773V773C1133.27 780.732 1133.27 793.268 1141 801L1155 815" stroke="#DBFF00" stroke-width="6" stroke-linecap="round"/>
<path d="M1099 3L1113 17C1120.73 24.732 1120.73 37.268 1113 45V45C1105.27 52.732 1105.27 65.268 1113 73V73C1120.73 80.732 1120.73 93.268 1113 101V101C1105.27 108.732 1105.27 121.268 1113 129V129C1120.73 136.732 1120.73 149.268 1113 157V157C1105.27 164.732 1105.27 177.268 1113 185V185C1120.73 192.732 1120.73 205.268 1113 213V213C1105.27 220.732 1105.27 233.268 1113 241V241C1120.73 248.732 1120.73 261.268 1113 269V269C1105.27 276.732 1105.27 289.268 1113 297V297C1120.73 304.732 1120.73 317.268 1113 325V325C1105.27 332.732 1105.27 345.268 1113 353V353C1120.73 360.732 1120.73 373.268 1113 381V381C1105.27 388.732 1105.27 401.268 1113 409V409C1120.73 416.732 1120.73 429.268 1113 437V437C1105.27 444.732 1105.27 457.268 1113 465V465C1120.73 472.732 1120.73 485.268 1113 493V493C1105.27 500.732 1105.27 513.268 1113 521V521C1120.73 528.732 1120.73 541.268 1113 549V549C1105.27 556.732 1105.27 569.268 1113 577V577C1120.73 584.732 1120.73 597.268 1113 605V605C1105.27 612.732 1105.27 625.268 1113 633V633C1120.73 640.732 1120.73 653.268 1113 661V661C1105.27 668.732 1105.27 681.268 1113 689V689C1120.73 696.732 1120.73 709.268 1113 717V717C1105.27 724.732 1105.27 737.268 1113 745V745C1120.73 752.732 1120.73 765.268 1113 773V773C1105.27 780.732 1105.27 793.268 1113 801L1127 815" stroke="#DBFF00" stroke-width="6" stroke-linecap="round"/>
<path d="M1071 3L1085 17C1092.73 24.732 1092.73 37.268 1085 45V45C1077.27 52.732 1077.27 65.268 1085 73V73C1092.73 80.732 1092.73 93.268 1085 101V101C1077.27 108.732 1077.27 121.268 1085 129V129C1092.73 136.732 1092.73 149.268 1085 157V157C1077.27 164.732 1077.27 177.268 1085 185V185C1092.73 192.732 1092.73 205.268 1085 213V213C1077.27 220.732 1077.27 233.268 1085 241V241C1092.73 248.732 1092.73 261.268 1085 269V269C1077.27 276.732 1077.27 289.268 1085 297V297C1092.73 304.732 1092.73 317.268 1085 325V325C1077.27 332.732 1077.27 345.268 1085 353V353C1092.73 360.732 1092.73 373.268 1085 381V381C1077.27 388.732 1077.27 401.268 1085 409V409C1092.73 416.732 1092.73 429.268 1085 437V437C1077.27 444.732 1077.27 457.268 1085 465V465C1092.73 472.732 1092.73 485.268 1085 493V493C1077.27 500.732 1077.27 513.268 1085 521V521C1092.73 528.732 1092.73 541.268 1085 549V549C1077.27 556.732 1077.27 569.268 1085 577V577C1092.73 584.732 1092.73 597.268 1085 605V605C1077.27 612.732 1077.27 625.268 1085 633V633C1092.73 640.732 1092.73 653.268 1085 661V661C1077.27 668.732 1077.27 681.268 1085 689V689C1092.73 696.732 1092.73 709.268 1085 717V717C1077.27 724.732 1077.27 737.268 1085 745V745C1092.73 752.732 1092.73 765.268 1085 773V773C1077.27 780.732 1077.27 793.268 1085 801L1099 815" stroke="#DBFF00" stroke-width="6" stroke-linecap="round"/>
</svg>
