<svg width="90" height="542" viewBox="0 0 90 542" fill="none" xmlns="http://www.w3.org/2000/svg">
<path d="M59 -273L73 -259C80.732 -251.268 80.732 -238.732 73 -231V-231C65.268 -223.268 65.268 -210.732 73 -203V-203C80.732 -195.268 80.732 -182.732 73 -175V-175C65.268 -167.268 65.268 -154.732 73 -147V-147C80.732 -139.268 80.732 -126.732 73 -119V-119C65.268 -111.268 65.268 -98.732 73 -91V-91C80.732 -83.268 80.732 -70.732 73 -63V-63C65.268 -55.268 65.268 -42.732 73 -35V-35C80.732 -27.268 80.732 -14.732 73 -7V-7C65.268 0.731986 65.268 13.268 73 21V21C80.732 28.732 80.732 41.268 73 49V49C65.268 56.732 65.268 69.268 73 77V77C80.732 84.732 80.732 97.268 73 105V105C65.268 112.732 65.268 125.268 73 133V133C80.732 140.732 80.732 153.268 73 161V161C65.268 168.732 65.268 181.268 73 189V189C80.732 196.732 80.732 209.268 73 217V217C65.268 224.732 65.268 237.268 73 245V245C80.732 252.732 80.732 265.268 73 273V273C65.268 280.732 65.268 293.268 73 301V301C80.732 308.732 80.732 321.268 73 329V329C65.268 336.732 65.268 349.268 73 357V357C80.732 364.732 80.732 377.268 73 385V385C65.268 392.732 65.268 405.268 73 413V413C80.732 420.732 80.732 433.268 73 441V441C65.268 448.732 65.268 461.268 73 469V469C80.732 476.732 80.732 489.268 73 497V497C65.268 504.732 65.268 517.268 73 525L87 539" stroke="#DBFF00" stroke-width="6" stroke-linecap="round"/>
<path d="M31 -273L45 -259C52.732 -251.268 52.732 -238.732 45 -231V-231C37.268 -223.268 37.268 -210.732 45 -203V-203C52.732 -195.268 52.732 -182.732 45 -175V-175C37.268 -167.268 37.268 -154.732 45 -147V-147C52.732 -139.268 52.732 -126.732 45 -119V-119C37.268 -111.268 37.268 -98.732 45 -91V-91C52.732 -83.268 52.732 -70.732 45 -63V-63C37.268 -55.268 37.268 -42.732 45 -35V-35C52.732 -27.268 52.732 -14.732 45 -7V-7C37.268 0.731986 37.268 13.268 45 21V21C52.732 28.732 52.732 41.268 45 49V49C37.268 56.732 37.268 69.268 45 77V77C52.732 84.732 52.732 97.268 45 105V105C37.268 112.732 37.268 125.268 45 133V133C52.732 140.732 52.732 153.268 45 161V161C37.268 168.732 37.268 181.268 45 189V189C52.732 196.732 52.732 209.268 45 217V217C37.268 224.732 37.268 237.268 45 245V245C52.732 252.732 52.732 265.268 45 273V273C37.268 280.732 37.268 293.268 45 301V301C52.732 308.732 52.732 321.268 45 329V329C37.268 336.732 37.268 349.268 45 357V357C52.732 364.732 52.732 377.268 45 385V385C37.268 392.732 37.268 405.268 45 413V413C52.732 420.732 52.732 433.268 45 441V441C37.268 448.732 37.268 461.268 45 469V469C52.732 476.732 52.732 489.268 45 497V497C37.268 504.732 37.268 517.268 45 525L59 539" stroke="#DBFF00" stroke-width="6" stroke-linecap="round"/>
<path d="M3 -273L17 -259C24.732 -251.268 24.732 -238.732 17 -231V-231C9.26801 -223.268 9.26801 -210.732 17 -203V-203C24.732 -195.268 24.732 -182.732 17 -175V-175C9.26801 -167.268 9.26801 -154.732 17 -147V-147C24.732 -139.268 24.732 -126.732 17 -119V-119C9.26801 -111.268 9.26801 -98.732 17 -91V-91C24.732 -83.268 24.732 -70.732 17 -63V-63C9.268 -55.268 9.268 -42.732 17 -35V-35C24.732 -27.268 24.732 -14.732 17 -7V-7C9.268 0.731986 9.268 13.268 17 21V21C24.732 28.732 24.732 41.268 17 49V49C9.268 56.732 9.268 69.268 17 77V77C24.732 84.732 24.732 97.268 17 105V105C9.268 112.732 9.268 125.268 17 133V133C24.732 140.732 24.732 153.268 17 161V161C9.26799 168.732 9.26799 181.268 17 189V189C24.732 196.732 24.732 209.268 17 217V217C9.26799 224.732 9.26799 237.268 17 245V245C24.732 252.732 24.732 265.268 17 273V273C9.26799 280.732 9.26799 293.268 17 301V301C24.732 308.732 24.732 321.268 17 329V329C9.26799 336.732 9.26799 349.268 17 357V357C24.732 364.732 24.732 377.268 17 385V385C9.26798 392.732 9.26798 405.268 17 413V413C24.732 420.732 24.732 433.268 17 441V441C9.26798 448.732 9.26798 461.268 17 469V469C24.732 476.732 24.732 489.268 17 497V497C9.26798 504.732 9.26798 517.268 17 525L31 539" stroke="#DBFF00" stroke-width="6" stroke-linecap="round"/>
</svg>
