<svg width="770" height="388" viewBox="0 0 770 388" fill="none" xmlns="http://www.w3.org/2000/svg">
<path d="M3 236L31 208L59 236L87 208L115 236L143 208L171 236L199 208L227 236L255 208L283 236L311 208L339 236L367 208L395 236L423 208L451 236L479 208L507 236L535 208L563 236L591 208L619 236L647 208L675 236L703 208L731 236L759 208L787 236L815 208" stroke="#DBFF00" stroke-width="6" stroke-linecap="round"/>
<path d="M3 180L31 152L59 180L87 152L115 180L143 152L171 180L199 152L227 180L255 152L283 180L311 152L339 180L367 152L395 180L423 152L451 180L479 152L507 180L535 152L563 180L591 152L619 180L647 152L675 180L703 152L731 180L759 152L787 180L815 152" stroke="#DBFF00" stroke-width="6" stroke-linecap="round"/>
<path d="M3 208L31 180L59 208L87 180L115 208L143 180L171 208L199 180L227 208L255 180L283 208L311 180L339 208L367 180L395 208L423 180L451 208L479 180L507 208L535 180L563 208L591 180L619 208L647 180L675 208L703 180L731 208L759 180L787 208L815 180" stroke="#DBFF00" stroke-width="6" stroke-linecap="round"/>
</svg>
