<svg width="300" height="300" viewBox="0 0 300 300" fill="none" xmlns="http://www.w3.org/2000/svg">
<circle cx="73.5157" cy="67.5743" r="67.5743" fill="#53F4B6"/>
<circle cx="159.653" cy="181.931" r="69.0594" fill="#383E21"/>
<circle cx="59.4061" cy="166.337" r="29.703" fill="#F899A3"/>
<circle cx="276.237" cy="121.782" r="23.7624" fill="#53F4B6"/>
<circle cx="152.971" cy="54.9504" r="7.42574" fill="#ABD0D6"/>
<circle cx="89.1093" cy="261.386" r="14.8515" fill="#8957F4"/>
<circle cx="24.7526" cy="136.139" r="9.90099" fill="#8957F4"/>
<circle cx="20.7929" cy="157.426" r="7.42574" fill="#ABD0D6"/>
<circle cx="111.387" cy="246.535" r="7.42574" fill="#8957F4"/>
<circle cx="141" cy="266" r="15" fill="#F899A3"/>
<ellipse cx="230" cy="266.5" rx="33" ry="33.5" fill="#53F4B6"/>
<circle cx="53.4648" cy="265.841" r="14.8515" fill="#FFBB63"/>
<circle cx="77.2284" cy="212.376" r="14.8515" fill="#FFBB63"/>
<circle cx="234.654" cy="37.1288" r="29.703" fill="#FFBB63"/>
<circle cx="276.237" cy="215.347" r="23.7624" fill="#FFBB63"/>
<circle cx="178.219" cy="268.812" r="14.8515" fill="#FFBB63"/>
<circle cx="237.623" cy="142.574" r="14.8515" fill="#F899A3"/>
<circle cx="255.445" cy="86.1386" r="14.8515" fill="#ABD0D6"/>
<circle cx="29.703" cy="221.287" r="29.703" fill="#53F4B6"/>
<circle cx="94.5553" cy="234.158" r="9.90099" fill="#F899A3"/>
<circle cx="67.8209" cy="241.584" r="9.90099" fill="#53F4B6"/>
<circle cx="237.13" cy="214.851" r="9.90099" fill="#ABD0D6"/>
<circle cx="249.506" cy="187.129" r="14.8515" fill="#8957F4"/>
<circle cx="245.049" cy="161.881" r="7.42574" fill="#8957F4"/>
<circle cx="276.238" cy="172.277" r="14.8515" fill="#8957F4"/>
<circle cx="216.831" cy="105.445" r="23.7624" fill="#ABD0D6"/>
<circle cx="169.307" cy="86.1386" r="23.7624" fill="#8957F4"/>
<circle cx="204.456" cy="67.8219" r="9.90099" fill="#F899A3"/>
</svg>
