<svg width="234" height="245" viewBox="0 0 234 245" fill="none" xmlns="http://www.w3.org/2000/svg">
<circle cx="125" cy="117" r="85" fill="#383E21"/>
<circle cx="43" cy="65" r="10" fill="#F899A3"/>
<circle cx="207" cy="50" r="20" fill="#53F4B6"/>
<circle cx="57.6667" cy="26.6667" r="26.6667" fill="#ABD0D6"/>
<circle cx="48" cy="177" r="10" fill="#8957F4"/>
<circle cx="36.6667" cy="84.6667" r="6.66667" fill="#8957F4"/>
<circle cx="135" cy="225" r="20" fill="#8957F4"/>
<circle cx="20" cy="135" r="20" fill="#F899A3"/>
<circle cx="178" cy="201" r="10" fill="#53F4B6"/>
<circle cx="197" cy="185" r="10" fill="#FFBB63"/>
<circle cx="30" cy="103" r="10" fill="#FFBB63"/>
<circle cx="99" cy="22" r="10" fill="#FFBB63"/>
<circle cx="224" cy="101" r="10" fill="#FFBB63"/>
<circle cx="68" cy="193" r="10" fill="#FFBB63"/>
<circle cx="119" cy="19" r="10" fill="#F899A3"/>
<circle cx="180" cy="33" r="10" fill="#ABD0D6"/>
<circle cx="105.667" cy="210.667" r="6.66667" fill="#53F4B6"/>
<circle cx="84.6667" cy="203.667" r="6.66667" fill="#F899A3"/>
<circle cx="39.6667" cy="157.667" r="6.66667" fill="#53F4B6"/>
<circle cx="159.667" cy="204.667" r="6.66667" fill="#ABD0D6"/>
<circle cx="203.667" cy="168.667" r="6.66667" fill="#8957F4"/>
<circle cx="213.667" cy="83.3334" r="6.66667" fill="#ABD0D6"/>
<circle cx="157.667" cy="29.6667" r="6.66667" fill="#8957F4"/>
<circle cx="138.667" cy="22.6667" r="6.66667" fill="#F899A3"/>
</svg>
