<svg width="300" height="300" viewBox="0 0 300 300" fill="none" xmlns="http://www.w3.org/2000/svg">
<circle cx="153.062" cy="143.265" r="104.082" fill="#383E21"/>
<circle cx="52.6531" cy="79.5918" r="12.2449" fill="#F899A3"/>
<circle cx="253.47" cy="61.2244" r="24.4898" fill="#53F4B6"/>
<circle cx="70.612" cy="32.6531" r="32.6531" fill="#ABD0D6"/>
<circle cx="58.7761" cy="216.735" r="12.2449" fill="#8957F4"/>
<circle cx="44.8976" cy="103.674" r="8.16327" fill="#8957F4"/>
<circle cx="165.306" cy="275.51" r="24.4898" fill="#8957F4"/>
<circle cx="24.4898" cy="165.306" r="24.4898" fill="#F899A3"/>
<circle cx="217.96" cy="246.122" r="12.2449" fill="#53F4B6"/>
<circle cx="284" cy="180" r="16" fill="#53F4B6"/>
<circle cx="237.245" cy="227.245" r="12.2449" fill="#FFBB63"/>
<circle cx="36.7351" cy="126.122" r="12.2449" fill="#FFBB63"/>
<circle cx="121.225" cy="26.9387" r="12.2449" fill="#FFBB63"/>
<circle cx="279.5" cy="131.5" r="19.5" fill="#FFBB63"/>
<circle cx="83.2644" cy="236.326" r="12.2449" fill="#FFBB63"/>
<circle cx="145.714" cy="23.2654" r="12.2449" fill="#F899A3"/>
<circle cx="220.409" cy="40.4082" r="12.2449" fill="#ABD0D6"/>
<circle cx="129.388" cy="257.959" r="8.16327" fill="#53F4B6"/>
<circle cx="103.673" cy="249.388" r="8.16327" fill="#F899A3"/>
<circle cx="48.5715" cy="193.061" r="8.16327" fill="#53F4B6"/>
<circle cx="194.511" cy="253.612" r="8.16327" fill="#ABD0D6"/>
<circle cx="249.388" cy="206.531" r="8.16327" fill="#8957F4"/>
<circle cx="261.632" cy="102.041" r="8.16327" fill="#ABD0D6"/>
<circle cx="267.163" cy="159.163" r="8.16327" fill="#ABD0D6"/>
<circle cx="259.163" cy="190.163" r="8.16327" fill="#F899A3"/>
<circle cx="193.062" cy="36.3266" r="8.16327" fill="#8957F4"/>
<circle cx="169.796" cy="27.7551" r="8.16327" fill="#F899A3"/>
</svg>
