<svg width="202" height="209" viewBox="0 0 202 209" fill="none" xmlns="http://www.w3.org/2000/svg">
<circle cx="49.5" cy="45.5" r="45.5" fill="#53F4B6"/>
<circle cx="107.5" cy="122.5" r="46.5" fill="#383E21"/>
<circle cx="40" cy="112" r="20" fill="#F899A3"/>
<circle cx="186" cy="82" r="16" fill="#53F4B6"/>
<circle cx="103" cy="37" r="5" fill="#ABD0D6"/>
<circle cx="60" cy="176" r="10" fill="#8957F4"/>
<circle cx="16.6667" cy="91.6667" r="6.66667" fill="#8957F4"/>
<circle cx="14" cy="106" r="5" fill="#ABD0D6"/>
<circle cx="75" cy="166" r="5" fill="#8957F4"/>
<circle cx="90" cy="189" r="20" fill="#F899A3"/>
<circle cx="157.667" cy="179.667" r="26.6667" fill="#53F4B6"/>
<circle cx="36" cy="179" r="10" fill="#FFBB63"/>
<circle cx="52" cy="143" r="10" fill="#FFBB63"/>
<circle cx="158" cy="25" r="20" fill="#FFBB63"/>
<circle cx="186" cy="145" r="16" fill="#FFBB63"/>
<circle cx="120" cy="181" r="10" fill="#FFBB63"/>
<circle cx="160" cy="96" r="10" fill="#F899A3"/>
<circle cx="172" cy="58" r="10" fill="#ABD0D6"/>
<circle cx="20" cy="149" r="20" fill="#53F4B6"/>
<circle cx="63.6667" cy="157.667" r="6.66667" fill="#F899A3"/>
<circle cx="45.6667" cy="162.667" r="6.66667" fill="#53F4B6"/>
<circle cx="159.667" cy="144.667" r="6.66667" fill="#ABD0D6"/>
<circle cx="168" cy="126" r="10" fill="#8957F4"/>
<circle cx="165" cy="109" r="5" fill="#8957F4"/>
<circle cx="186" cy="116" r="10" fill="#8957F4"/>
<circle cx="146" cy="71" r="16" fill="#ABD0D6"/>
<circle cx="114" cy="58" r="16" fill="#8957F4"/>
<circle cx="137.667" cy="45.6667" r="6.66667" fill="#F899A3"/>
</svg>
