<svg width="587" height="550" viewBox="0 0 587 550" fill="none" xmlns="http://www.w3.org/2000/svg">
<g filter="url(#filter0_d_535_340)">
<rect x="3" y="39" width="575" height="496" rx="20" fill="white"/>
<rect x="1.5" y="37.5" width="578" height="499" rx="21.5" stroke="#21383E" stroke-width="3"/>
</g>
<circle cx="126.174" cy="268" r="3" fill="#DBFF00"/>
<circle cx="126.174" cy="280" r="3" fill="#DBFF00"/>
<circle cx="126.174" cy="292" r="3" fill="#DBFF00"/>
<circle cx="126.174" cy="304" r="3" fill="#DBFF00"/>
<circle cx="126.174" cy="316" r="3" fill="#DBFF00"/>
<circle cx="126.174" cy="328" r="3" fill="#DBFF00"/>
<circle cx="126.174" cy="340" r="3" fill="#DBFF00"/>
<circle cx="126.174" cy="352" r="3" fill="#DBFF00"/>
<circle cx="126.174" cy="364" r="3" fill="#DBFF00"/>
<circle cx="126.174" cy="376" r="3" fill="#DBFF00"/>
<circle cx="138.174" cy="262" r="3" fill="#DBFF00"/>
<circle cx="138.174" cy="274" r="3" fill="#DBFF00"/>
<circle cx="138.174" cy="286" r="3" fill="#DBFF00"/>
<circle cx="138.174" cy="298" r="3" fill="#DBFF00"/>
<circle cx="138.174" cy="310" r="3" fill="#DBFF00"/>
<circle cx="138.174" cy="322" r="3" fill="#DBFF00"/>
<circle cx="138.174" cy="334" r="3" fill="#DBFF00"/>
<circle cx="138.174" cy="346" r="3" fill="#DBFF00"/>
<circle cx="138.174" cy="358" r="3" fill="#DBFF00"/>
<circle cx="138.174" cy="370" r="3" fill="#DBFF00"/>
<circle cx="138.174" cy="382" r="3" fill="#DBFF00"/>
<circle cx="150.174" cy="256" r="3" fill="#DBFF00"/>
<circle cx="150.174" cy="268" r="3" fill="#DBFF00"/>
<circle cx="150.174" cy="280" r="3" fill="#DBFF00"/>
<circle cx="150.174" cy="292" r="3" fill="#DBFF00"/>
<circle cx="150.174" cy="304" r="3" fill="#DBFF00"/>
<circle cx="150.174" cy="316" r="3" fill="#DBFF00"/>
<circle cx="150.174" cy="328" r="3" fill="#DBFF00"/>
<circle cx="150.174" cy="340" r="3" fill="#DBFF00"/>
<circle cx="150.174" cy="352" r="3" fill="#DBFF00"/>
<circle cx="150.174" cy="364" r="3" fill="#DBFF00"/>
<circle cx="150.174" cy="376" r="3" fill="#DBFF00"/>
<circle cx="150.174" cy="388" r="3" fill="#DBFF00"/>
<circle cx="162.174" cy="250" r="3" fill="#DBFF00"/>
<circle cx="162.174" cy="262" r="3" fill="#DBFF00"/>
<circle cx="162.174" cy="274" r="3" fill="#DBFF00"/>
<circle cx="162.174" cy="286" r="3" fill="#DBFF00"/>
<circle cx="162.174" cy="298" r="3" fill="#DBFF00"/>
<circle cx="162.174" cy="310" r="3" fill="#DBFF00"/>
<circle cx="162.174" cy="322" r="3" fill="#DBFF00"/>
<circle cx="162.174" cy="334" r="3" fill="#DBFF00"/>
<circle cx="162.174" cy="346" r="3" fill="#DBFF00"/>
<circle cx="162.174" cy="358" r="3" fill="#DBFF00"/>
<circle cx="162.174" cy="370" r="3" fill="#DBFF00"/>
<circle cx="162.174" cy="382" r="3" fill="#DBFF00"/>
<circle cx="162.174" cy="394" r="3" fill="#DBFF00"/>
<circle cx="174.174" cy="244" r="3" fill="#DBFF00"/>
<circle cx="174.174" cy="256" r="3" fill="#DBFF00"/>
<circle cx="174.174" cy="268" r="3" fill="#DBFF00"/>
<circle cx="174.174" cy="280" r="3" fill="#DBFF00"/>
<circle cx="174.174" cy="292" r="3" fill="#DBFF00"/>
<circle cx="174.174" cy="304" r="3" fill="#DBFF00"/>
<circle cx="174.174" cy="316" r="3" fill="#DBFF00"/>
<circle cx="174.174" cy="328" r="3" fill="#DBFF00"/>
<circle cx="174.174" cy="340" r="3" fill="#DBFF00"/>
<circle cx="174.174" cy="352" r="3" fill="#DBFF00"/>
<circle cx="174.174" cy="364" r="3" fill="#DBFF00"/>
<circle cx="174.174" cy="376" r="3" fill="#DBFF00"/>
<circle cx="174.174" cy="388" r="3" fill="#DBFF00"/>
<circle cx="174.174" cy="400" r="3" fill="#DBFF00"/>
<circle cx="186.174" cy="238" r="3" fill="#DBFF00"/>
<circle cx="186.174" cy="250" r="3" fill="#DBFF00"/>
<circle cx="186.174" cy="262" r="3" fill="#DBFF00"/>
<circle cx="186.174" cy="274" r="3" fill="#DBFF00"/>
<circle cx="186.174" cy="286" r="3" fill="#DBFF00"/>
<circle cx="186.174" cy="298" r="3" fill="#DBFF00"/>
<circle cx="186.174" cy="310" r="3" fill="#DBFF00"/>
<circle cx="186.174" cy="322" r="3" fill="#DBFF00"/>
<circle cx="186.174" cy="334" r="3" fill="#DBFF00"/>
<circle cx="186.174" cy="346" r="3" fill="#DBFF00"/>
<circle cx="186.174" cy="358" r="3" fill="#DBFF00"/>
<circle cx="186.174" cy="370" r="3" fill="#DBFF00"/>
<circle cx="186.174" cy="382" r="3" fill="#DBFF00"/>
<circle cx="186.174" cy="394" r="3" fill="#DBFF00"/>
<circle cx="186.174" cy="406" r="3" fill="#DBFF00"/>
<circle cx="198.174" cy="232" r="3" fill="#DBFF00"/>
<circle cx="198.174" cy="244" r="3" fill="#DBFF00"/>
<circle cx="198.174" cy="256" r="3" fill="#DBFF00"/>
<circle cx="198.174" cy="268" r="3" fill="#DBFF00"/>
<circle cx="198.174" cy="280" r="3" fill="#DBFF00"/>
<circle cx="198.174" cy="292" r="3" fill="#DBFF00"/>
<circle cx="198.174" cy="304" r="3" fill="#DBFF00"/>
<circle cx="198.174" cy="316" r="3" fill="#DBFF00"/>
<circle cx="198.174" cy="328" r="3" fill="#DBFF00"/>
<circle cx="198.174" cy="340" r="3" fill="#DBFF00"/>
<circle cx="198.174" cy="352" r="3" fill="#DBFF00"/>
<circle cx="198.174" cy="364" r="3" fill="#DBFF00"/>
<circle cx="198.174" cy="376" r="3" fill="#DBFF00"/>
<circle cx="198.174" cy="388" r="3" fill="#DBFF00"/>
<circle cx="198.174" cy="400" r="3" fill="#DBFF00"/>
<circle cx="198.174" cy="412" r="3" fill="#DBFF00"/>
<circle cx="210.174" cy="226" r="3" fill="#DBFF00"/>
<circle cx="210.174" cy="238" r="3" fill="#DBFF00"/>
<circle cx="210.174" cy="250" r="3" fill="#DBFF00"/>
<circle cx="210.174" cy="262" r="3" fill="#DBFF00"/>
<circle cx="210.174" cy="274" r="3" fill="#DBFF00"/>
<circle cx="210.174" cy="286" r="3" fill="#DBFF00"/>
<circle cx="210.174" cy="298" r="3" fill="#DBFF00"/>
<circle cx="210.174" cy="310" r="3" fill="#DBFF00"/>
<circle cx="210.174" cy="322" r="3" fill="#DBFF00"/>
<circle cx="210.174" cy="334" r="3" fill="#DBFF00"/>
<circle cx="210.174" cy="346" r="3" fill="#DBFF00"/>
<circle cx="210.174" cy="358" r="3" fill="#DBFF00"/>
<circle cx="210.174" cy="370" r="3" fill="#DBFF00"/>
<circle cx="210.174" cy="382" r="3" fill="#DBFF00"/>
<circle cx="210.174" cy="394" r="3" fill="#DBFF00"/>
<circle cx="210.174" cy="406" r="3" fill="#DBFF00"/>
<circle cx="210.174" cy="418" r="3" fill="#DBFF00"/>
<circle cx="222.174" cy="220" r="3" fill="#DBFF00"/>
<circle cx="222.174" cy="232" r="3" fill="#DBFF00"/>
<circle cx="222.174" cy="244" r="3" fill="#DBFF00"/>
<circle cx="222.174" cy="256" r="3" fill="#DBFF00"/>
<circle cx="222.174" cy="268" r="3" fill="#DBFF00"/>
<circle cx="222.174" cy="280" r="3" fill="#DBFF00"/>
<circle cx="222.174" cy="292" r="3" fill="#DBFF00"/>
<circle cx="222.174" cy="304" r="3" fill="#DBFF00"/>
<circle cx="222.174" cy="316" r="3" fill="#DBFF00"/>
<circle cx="222.174" cy="328" r="3" fill="#DBFF00"/>
<circle cx="222.174" cy="340" r="3" fill="#DBFF00"/>
<circle cx="222.174" cy="352" r="3" fill="#DBFF00"/>
<circle cx="222.174" cy="364" r="3" fill="#DBFF00"/>
<circle cx="222.174" cy="376" r="3" fill="#DBFF00"/>
<circle cx="222.174" cy="388" r="3" fill="#DBFF00"/>
<circle cx="222.174" cy="400" r="3" fill="#DBFF00"/>
<circle cx="222.174" cy="412" r="3" fill="#DBFF00"/>
<circle cx="222.174" cy="424" r="3" fill="#DBFF00"/>
<circle cx="234.174" cy="214" r="3" fill="#DBFF00"/>
<circle cx="234.174" cy="226" r="3" fill="#DBFF00"/>
<circle cx="234.174" cy="238" r="3" fill="#DBFF00"/>
<circle cx="234.174" cy="250" r="3" fill="#DBFF00"/>
<circle cx="234.174" cy="262" r="3" fill="#DBFF00"/>
<circle cx="234.174" cy="274" r="3" fill="#DBFF00"/>
<circle cx="234.174" cy="286" r="3" fill="#DBFF00"/>
<circle cx="234.174" cy="298" r="3" fill="#DBFF00"/>
<circle cx="234.174" cy="310" r="3" fill="#DBFF00"/>
<circle cx="234.174" cy="322" r="3" fill="#DBFF00"/>
<circle cx="234.174" cy="334" r="3" fill="#DBFF00"/>
<circle cx="234.174" cy="346" r="3" fill="#DBFF00"/>
<circle cx="234.174" cy="358" r="3" fill="#DBFF00"/>
<circle cx="234.174" cy="370" r="3" fill="#DBFF00"/>
<circle cx="234.174" cy="382" r="3" fill="#DBFF00"/>
<circle cx="234.174" cy="394" r="3" fill="#DBFF00"/>
<circle cx="234.174" cy="406" r="3" fill="#DBFF00"/>
<circle cx="234.174" cy="418" r="3" fill="#DBFF00"/>
<circle cx="234.174" cy="430" r="3" fill="#DBFF00"/>
<circle cx="246.174" cy="214" r="3" fill="#DBFF00"/>
<circle cx="246.174" cy="226" r="3" fill="#DBFF00"/>
<circle cx="246.174" cy="238" r="3" fill="#DBFF00"/>
<circle cx="246.174" cy="250" r="3" fill="#DBFF00"/>
<circle cx="246.174" cy="262" r="3" fill="#DBFF00"/>
<circle cx="246.174" cy="274" r="3" fill="#DBFF00"/>
<circle cx="246.174" cy="286" r="3" fill="#DBFF00"/>
<circle cx="246.174" cy="298" r="3" fill="#DBFF00"/>
<circle cx="246.174" cy="310" r="3" fill="#DBFF00"/>
<circle cx="246.174" cy="322" r="3" fill="#DBFF00"/>
<circle cx="246.174" cy="334" r="3" fill="#DBFF00"/>
<circle cx="246.174" cy="346" r="3" fill="#DBFF00"/>
<circle cx="246.174" cy="358" r="3" fill="#DBFF00"/>
<circle cx="246.174" cy="370" r="3" fill="#DBFF00"/>
<circle cx="246.174" cy="382" r="3" fill="#DBFF00"/>
<circle cx="246.174" cy="394" r="3" fill="#DBFF00"/>
<circle cx="246.174" cy="406" r="3" fill="#DBFF00"/>
<circle cx="246.174" cy="418" r="3" fill="#DBFF00"/>
<circle cx="246.174" cy="430" r="3" fill="#DBFF00"/>
<circle cx="258.174" cy="220" r="3" fill="#DBFF00"/>
<circle cx="258.174" cy="232" r="3" fill="#DBFF00"/>
<circle cx="258.174" cy="244" r="3" fill="#DBFF00"/>
<circle cx="258.174" cy="256" r="3" fill="#DBFF00"/>
<circle cx="258.174" cy="268" r="3" fill="#DBFF00"/>
<circle cx="258.174" cy="280" r="3" fill="#DBFF00"/>
<circle cx="258.174" cy="292" r="3" fill="#DBFF00"/>
<circle cx="258.174" cy="304" r="3" fill="#DBFF00"/>
<circle cx="258.174" cy="316" r="3" fill="#DBFF00"/>
<circle cx="258.174" cy="328" r="3" fill="#DBFF00"/>
<circle cx="258.174" cy="340" r="3" fill="#DBFF00"/>
<circle cx="258.174" cy="352" r="3" fill="#DBFF00"/>
<circle cx="258.174" cy="364" r="3" fill="#DBFF00"/>
<circle cx="258.174" cy="376" r="3" fill="#DBFF00"/>
<circle cx="258.174" cy="388" r="3" fill="#DBFF00"/>
<circle cx="258.174" cy="400" r="3" fill="#DBFF00"/>
<circle cx="258.174" cy="412" r="3" fill="#DBFF00"/>
<circle cx="258.174" cy="424" r="3" fill="#DBFF00"/>
<circle cx="270.174" cy="226" r="3" fill="#DBFF00"/>
<circle cx="270.174" cy="238" r="3" fill="#DBFF00"/>
<circle cx="270.174" cy="250" r="3" fill="#DBFF00"/>
<circle cx="270.174" cy="262" r="3" fill="#DBFF00"/>
<circle cx="270.174" cy="274" r="3" fill="#DBFF00"/>
<circle cx="270.174" cy="286" r="3" fill="#DBFF00"/>
<circle cx="270.174" cy="298" r="3" fill="#DBFF00"/>
<circle cx="270.174" cy="310" r="3" fill="#DBFF00"/>
<circle cx="270.174" cy="322" r="3" fill="#DBFF00"/>
<circle cx="270.174" cy="334" r="3" fill="#DBFF00"/>
<circle cx="270.174" cy="346" r="3" fill="#DBFF00"/>
<circle cx="270.174" cy="358" r="3" fill="#DBFF00"/>
<circle cx="270.174" cy="370" r="3" fill="#DBFF00"/>
<circle cx="270.174" cy="382" r="3" fill="#DBFF00"/>
<circle cx="270.174" cy="394" r="3" fill="#DBFF00"/>
<circle cx="270.174" cy="406" r="3" fill="#DBFF00"/>
<circle cx="270.174" cy="418" r="3" fill="#DBFF00"/>
<circle cx="282.174" cy="232" r="3" fill="#DBFF00"/>
<circle cx="282.174" cy="244" r="3" fill="#DBFF00"/>
<circle cx="282.174" cy="256" r="3" fill="#DBFF00"/>
<circle cx="282.174" cy="268" r="3" fill="#DBFF00"/>
<circle cx="282.174" cy="280" r="3" fill="#DBFF00"/>
<circle cx="282.174" cy="292" r="3" fill="#DBFF00"/>
<circle cx="282.174" cy="304" r="3" fill="#DBFF00"/>
<circle cx="282.174" cy="316" r="3" fill="#DBFF00"/>
<circle cx="282.174" cy="328" r="3" fill="#DBFF00"/>
<circle cx="282.174" cy="340" r="3" fill="#DBFF00"/>
<circle cx="282.174" cy="352" r="3" fill="#DBFF00"/>
<circle cx="282.174" cy="364" r="3" fill="#DBFF00"/>
<circle cx="282.174" cy="376" r="3" fill="#DBFF00"/>
<circle cx="282.174" cy="388" r="3" fill="#DBFF00"/>
<circle cx="282.174" cy="400" r="3" fill="#DBFF00"/>
<circle cx="282.174" cy="412" r="3" fill="#DBFF00"/>
<circle cx="294.174" cy="238" r="3" fill="#DBFF00"/>
<circle cx="294.174" cy="250" r="3" fill="#DBFF00"/>
<circle cx="294.174" cy="262" r="3" fill="#DBFF00"/>
<circle cx="294.174" cy="274" r="3" fill="#DBFF00"/>
<circle cx="294.174" cy="286" r="3" fill="#DBFF00"/>
<circle cx="294.174" cy="298" r="3" fill="#DBFF00"/>
<circle cx="294.174" cy="310" r="3" fill="#DBFF00"/>
<circle cx="294.174" cy="322" r="3" fill="#DBFF00"/>
<circle cx="294.174" cy="334" r="3" fill="#DBFF00"/>
<circle cx="294.174" cy="346" r="3" fill="#DBFF00"/>
<circle cx="294.174" cy="358" r="3" fill="#DBFF00"/>
<circle cx="294.174" cy="370" r="3" fill="#DBFF00"/>
<circle cx="294.174" cy="382" r="3" fill="#DBFF00"/>
<circle cx="294.174" cy="394" r="3" fill="#DBFF00"/>
<circle cx="294.174" cy="406" r="3" fill="#DBFF00"/>
<circle cx="306.174" cy="244" r="3" fill="#DBFF00"/>
<circle cx="306.174" cy="256" r="3" fill="#DBFF00"/>
<circle cx="306.174" cy="268" r="3" fill="#DBFF00"/>
<circle cx="306.174" cy="280" r="3" fill="#DBFF00"/>
<circle cx="306.174" cy="292" r="3" fill="#DBFF00"/>
<circle cx="306.174" cy="304" r="3" fill="#DBFF00"/>
<circle cx="306.174" cy="316" r="3" fill="#DBFF00"/>
<circle cx="306.174" cy="328" r="3" fill="#DBFF00"/>
<circle cx="306.174" cy="340" r="3" fill="#DBFF00"/>
<circle cx="306.174" cy="352" r="3" fill="#DBFF00"/>
<circle cx="306.174" cy="364" r="3" fill="#DBFF00"/>
<circle cx="306.174" cy="376" r="3" fill="#DBFF00"/>
<circle cx="306.174" cy="388" r="3" fill="#DBFF00"/>
<circle cx="306.174" cy="400" r="3" fill="#DBFF00"/>
<circle cx="318.174" cy="250" r="3" fill="#DBFF00"/>
<circle cx="318.174" cy="262" r="3" fill="#DBFF00"/>
<circle cx="318.174" cy="274" r="3" fill="#DBFF00"/>
<circle cx="318.174" cy="286" r="3" fill="#DBFF00"/>
<circle cx="318.174" cy="298" r="3" fill="#DBFF00"/>
<circle cx="318.174" cy="310" r="3" fill="#DBFF00"/>
<circle cx="318.174" cy="322" r="3" fill="#DBFF00"/>
<circle cx="318.174" cy="334" r="3" fill="#DBFF00"/>
<circle cx="318.174" cy="346" r="3" fill="#DBFF00"/>
<circle cx="318.174" cy="358" r="3" fill="#DBFF00"/>
<circle cx="318.174" cy="370" r="3" fill="#DBFF00"/>
<circle cx="318.174" cy="382" r="3" fill="#DBFF00"/>
<circle cx="318.174" cy="394" r="3" fill="#DBFF00"/>
<circle cx="330.174" cy="256" r="3" fill="#DBFF00"/>
<circle cx="330.174" cy="268" r="3" fill="#DBFF00"/>
<circle cx="330.174" cy="280" r="3" fill="#DBFF00"/>
<circle cx="330.174" cy="292" r="3" fill="#DBFF00"/>
<circle cx="330.174" cy="304" r="3" fill="#DBFF00"/>
<circle cx="330.174" cy="316" r="3" fill="#DBFF00"/>
<circle cx="330.174" cy="328" r="3" fill="#DBFF00"/>
<circle cx="330.174" cy="340" r="3" fill="#DBFF00"/>
<circle cx="330.174" cy="352" r="3" fill="#DBFF00"/>
<circle cx="330.174" cy="364" r="3" fill="#DBFF00"/>
<circle cx="330.174" cy="376" r="3" fill="#DBFF00"/>
<circle cx="330.174" cy="388" r="3" fill="#DBFF00"/>
<circle cx="342.174" cy="262" r="3" fill="#DBFF00"/>
<circle cx="342.174" cy="274" r="3" fill="#DBFF00"/>
<circle cx="342.174" cy="286" r="3" fill="#DBFF00"/>
<circle cx="342.174" cy="298" r="3" fill="#DBFF00"/>
<circle cx="342.174" cy="310" r="3" fill="#DBFF00"/>
<circle cx="342.174" cy="322" r="3" fill="#DBFF00"/>
<circle cx="342.174" cy="334" r="3" fill="#DBFF00"/>
<circle cx="342.174" cy="346" r="3" fill="#DBFF00"/>
<circle cx="342.174" cy="358" r="3" fill="#DBFF00"/>
<circle cx="342.174" cy="370" r="3" fill="#DBFF00"/>
<circle cx="342.174" cy="382" r="3" fill="#DBFF00"/>
<circle cx="354.174" cy="268" r="3" fill="#DBFF00"/>
<circle cx="354.174" cy="280" r="3" fill="#DBFF00"/>
<circle cx="354.174" cy="292" r="3" fill="#DBFF00"/>
<circle cx="354.174" cy="304" r="3" fill="#DBFF00"/>
<circle cx="354.174" cy="316" r="3" fill="#DBFF00"/>
<circle cx="354.174" cy="328" r="3" fill="#DBFF00"/>
<circle cx="354.174" cy="340" r="3" fill="#DBFF00"/>
<circle cx="354.174" cy="352" r="3" fill="#DBFF00"/>
<circle cx="354.174" cy="364" r="3" fill="#DBFF00"/>
<circle cx="354.174" cy="376" r="3" fill="#DBFF00"/>
<g clip-path="url(#clip0_535_340)">
<path d="M269.251 333.488L284.677 348.317H352.782V422.464H229.375V333.488H269.251ZM275.653 318.659H229.375C220.891 318.659 214.026 325.332 214.026 333.488L213.949 422.464C213.949 430.62 220.891 437.293 229.375 437.293H352.782C361.266 437.293 368.208 430.62 368.208 422.464V348.317C368.208 340.161 361.266 333.488 352.782 333.488H291.079L275.653 318.659Z" fill="#383E21"/>
</g>
<path d="M47.656 182V159.44H62.12V162.096H50.984V169.328H61.384V171.984H50.984V182H47.656ZM71.8425 182.288C70.2425 182.288 68.8558 181.957 67.6825 181.296C66.5092 180.613 65.6025 179.653 64.9625 178.416C64.3225 177.157 64.0025 175.664 64.0025 173.936C64.0025 172.208 64.3225 170.725 64.9625 169.488C65.6025 168.229 66.5092 167.269 67.6825 166.608C68.8558 165.925 70.2425 165.584 71.8425 165.584C73.4425 165.584 74.8292 165.925 76.0025 166.608C77.1972 167.269 78.1145 168.229 78.7545 169.488C79.4158 170.725 79.7465 172.208 79.7465 173.936C79.7465 175.664 79.4158 177.157 78.7545 178.416C78.1145 179.653 77.1972 180.613 76.0025 181.296C74.8292 181.957 73.4425 182.288 71.8425 182.288ZM71.8425 179.76C73.2505 179.76 74.3705 179.269 75.2025 178.288C76.0345 177.307 76.4505 175.856 76.4505 173.936C76.4505 172.016 76.0345 170.576 75.2025 169.616C74.3705 168.635 73.2505 168.144 71.8425 168.144C70.4558 168.144 69.3465 168.635 68.5145 169.616C67.6825 170.576 67.2665 172.016 67.2665 173.936C67.2665 175.856 67.6718 177.307 68.4825 178.288C69.3145 179.269 70.4345 179.76 71.8425 179.76ZM83.5243 182V158.448H86.7563V182H83.5243ZM97.669 182.288C96.261 182.288 95.013 181.957 93.925 181.296C92.8583 180.635 92.0263 179.675 91.429 178.416C90.853 177.157 90.565 175.664 90.565 173.936C90.565 172.187 90.853 170.693 91.429 169.456C92.0263 168.219 92.8583 167.269 93.925 166.608C95.013 165.925 96.261 165.584 97.669 165.584C99.0557 165.584 100.272 165.936 101.317 166.64C102.384 167.323 103.088 168.261 103.429 169.456H103.045V158.448H106.277V182H103.077V178.352H103.461C103.098 179.568 102.394 180.528 101.349 181.232C100.304 181.936 99.077 182.288 97.669 182.288ZM98.469 179.76C99.8557 179.76 100.976 179.269 101.829 178.288C102.682 177.307 103.109 175.856 103.109 173.936C103.109 172.016 102.682 170.576 101.829 169.616C100.976 168.635 99.8557 168.144 98.469 168.144C97.061 168.144 95.9303 168.635 95.077 169.616C94.245 170.576 93.829 172.016 93.829 173.936C93.829 175.856 94.245 177.307 95.077 178.288C95.9303 179.269 97.061 179.76 98.469 179.76ZM118.449 182.288C115.846 182.288 113.798 181.552 112.305 180.08C110.812 178.608 110.065 176.571 110.065 173.968C110.065 172.283 110.385 170.811 111.025 169.552C111.686 168.293 112.593 167.323 113.745 166.64C114.918 165.936 116.273 165.584 117.809 165.584C119.324 165.584 120.593 165.904 121.617 166.544C122.641 167.184 123.42 168.091 123.953 169.264C124.486 170.416 124.753 171.781 124.753 173.36V174.384H112.593V172.528H122.545L122.001 172.944C122.001 171.344 121.638 170.107 120.913 169.232C120.209 168.336 119.185 167.888 117.841 167.888C116.348 167.888 115.196 168.411 114.385 169.456C113.574 170.48 113.169 171.899 113.169 173.712V174.032C113.169 175.931 113.628 177.36 114.545 178.32C115.484 179.28 116.806 179.76 118.513 179.76C119.452 179.76 120.326 179.632 121.137 179.376C121.969 179.099 122.758 178.651 123.505 178.032L124.561 180.24C123.814 180.901 122.908 181.413 121.841 181.776C120.774 182.117 119.644 182.288 118.449 182.288ZM128.398 182V169.872C128.398 169.211 128.376 168.549 128.334 167.888C128.312 167.205 128.27 166.533 128.206 165.872H131.342L131.694 170.032H131.182C131.395 169.029 131.758 168.197 132.27 167.536C132.782 166.875 133.4 166.384 134.126 166.064C134.872 165.744 135.651 165.584 136.462 165.584C136.803 165.584 137.091 165.605 137.326 165.648C137.56 165.669 137.795 165.712 138.03 165.776L137.998 168.656C137.635 168.507 137.315 168.421 137.038 168.4C136.782 168.357 136.462 168.336 136.078 168.336C135.139 168.336 134.339 168.549 133.678 168.976C133.016 169.381 132.515 169.936 132.174 170.64C131.832 171.344 131.662 172.101 131.662 172.912V182H128.398ZM149.056 182V165.872H152.288V182H149.056ZM148.799 162.512V159.152H152.544V162.512H148.799ZM162.56 182.288C161.216 182.288 159.979 182.117 158.848 181.776C157.718 181.435 156.779 180.955 156.032 180.336L157.024 178.128C157.814 178.725 158.688 179.173 159.648 179.472C160.608 179.771 161.59 179.92 162.592 179.92C163.766 179.92 164.651 179.717 165.248 179.312C165.846 178.885 166.144 178.309 166.144 177.584C166.144 177.029 165.952 176.581 165.568 176.24C165.206 175.899 164.598 175.643 163.744 175.472L160.672 174.864C159.307 174.565 158.272 174.053 157.568 173.328C156.864 172.603 156.512 171.675 156.512 170.544C156.512 169.584 156.768 168.731 157.28 167.984C157.814 167.237 158.56 166.651 159.52 166.224C160.502 165.797 161.643 165.584 162.944 165.584C164.139 165.584 165.248 165.755 166.272 166.096C167.296 166.437 168.15 166.928 168.832 167.568L167.808 169.712C167.147 169.157 166.4 168.731 165.568 168.432C164.736 168.112 163.894 167.952 163.04 167.952C161.846 167.952 160.96 168.176 160.384 168.624C159.808 169.072 159.52 169.659 159.52 170.384C159.52 170.939 159.691 171.397 160.032 171.76C160.395 172.101 160.96 172.368 161.728 172.56L164.8 173.168C166.251 173.467 167.339 173.957 168.064 174.64C168.79 175.323 169.152 176.24 169.152 177.392C169.152 178.395 168.875 179.269 168.32 180.016C167.766 180.763 166.998 181.328 166.016 181.712C165.035 182.096 163.883 182.288 162.56 182.288ZM181.493 182V169.744C181.493 169.125 181.461 168.496 181.397 167.856C181.354 167.195 181.301 166.533 181.237 165.872H184.373L184.661 169.264H184.277C184.768 168.069 185.525 167.163 186.549 166.544C187.573 165.904 188.757 165.584 190.101 165.584C192 165.584 193.429 166.107 194.389 167.152C195.37 168.197 195.861 169.819 195.861 172.016V182H192.629V172.208C192.629 170.779 192.341 169.755 191.765 169.136C191.21 168.496 190.357 168.176 189.205 168.176C187.84 168.176 186.752 168.603 185.941 169.456C185.13 170.288 184.725 171.419 184.725 172.848V182H181.493ZM207.374 182.288C205.774 182.288 204.387 181.957 203.214 181.296C202.04 180.613 201.134 179.653 200.494 178.416C199.854 177.157 199.534 175.664 199.534 173.936C199.534 172.208 199.854 170.725 200.494 169.488C201.134 168.229 202.04 167.269 203.214 166.608C204.387 165.925 205.774 165.584 207.374 165.584C208.974 165.584 210.36 165.925 211.534 166.608C212.728 167.269 213.646 168.229 214.286 169.488C214.947 170.725 215.278 172.208 215.278 173.936C215.278 175.664 214.947 177.157 214.286 178.416C213.646 179.653 212.728 180.613 211.534 181.296C210.36 181.957 208.974 182.288 207.374 182.288ZM207.374 179.76C208.782 179.76 209.902 179.269 210.734 178.288C211.566 177.307 211.982 175.856 211.982 173.936C211.982 172.016 211.566 170.576 210.734 169.616C209.902 168.635 208.782 168.144 207.374 168.144C205.987 168.144 204.878 168.635 204.046 169.616C203.214 170.576 202.798 172.016 202.798 173.936C202.798 175.856 203.203 177.307 204.014 178.288C204.846 179.269 205.966 179.76 207.374 179.76ZM225.171 182.288C223.422 182.288 222.099 181.819 221.203 180.88C220.307 179.92 219.859 178.491 219.859 176.592V168.368H216.723V165.872H219.859V161.616L223.091 160.752V165.872H227.571V168.368H223.091V176.304C223.091 177.499 223.305 178.352 223.731 178.864C224.158 179.376 224.777 179.632 225.587 179.632C225.993 179.632 226.345 179.6 226.643 179.536C226.963 179.451 227.251 179.355 227.507 179.248V181.872C227.187 182 226.814 182.096 226.387 182.16C225.961 182.245 225.555 182.288 225.171 182.288ZM246.128 182.288C244.506 182.288 243.088 181.957 241.872 181.296C240.677 180.613 239.749 179.643 239.088 178.384C238.448 177.104 238.128 175.589 238.128 173.84C238.128 172.112 238.458 170.629 239.12 169.392C239.781 168.155 240.709 167.216 241.904 166.576C243.098 165.915 244.506 165.584 246.128 165.584C247.173 165.584 248.186 165.765 249.168 166.128C250.149 166.469 250.96 166.96 251.6 167.6L250.544 169.872C249.946 169.296 249.274 168.869 248.528 168.592C247.781 168.293 247.056 168.144 246.352 168.144C244.816 168.144 243.61 168.635 242.736 169.616C241.861 170.597 241.424 172.016 241.424 173.872C241.424 175.749 241.861 177.189 242.736 178.192C243.61 179.195 244.816 179.696 246.352 179.696C247.034 179.696 247.749 179.568 248.496 179.312C249.242 179.035 249.925 178.597 250.544 178L251.6 180.272C250.938 180.912 250.106 181.413 249.104 181.776C248.122 182.117 247.13 182.288 246.128 182.288ZM255.024 182V158.448H258.256V182H255.024ZM270.449 182.288C267.846 182.288 265.798 181.552 264.305 180.08C262.812 178.608 262.065 176.571 262.065 173.968C262.065 172.283 262.385 170.811 263.025 169.552C263.686 168.293 264.593 167.323 265.745 166.64C266.918 165.936 268.273 165.584 269.809 165.584C271.324 165.584 272.593 165.904 273.617 166.544C274.641 167.184 275.42 168.091 275.953 169.264C276.486 170.416 276.753 171.781 276.753 173.36V174.384H264.593V172.528H274.545L274.001 172.944C274.001 171.344 273.638 170.107 272.913 169.232C272.209 168.336 271.185 167.888 269.841 167.888C268.348 167.888 267.196 168.411 266.385 169.456C265.574 170.48 265.169 171.899 265.169 173.712V174.032C265.169 175.931 265.628 177.36 266.545 178.32C267.484 179.28 268.806 179.76 270.513 179.76C271.452 179.76 272.326 179.632 273.137 179.376C273.969 179.099 274.758 178.651 275.505 178.032L276.561 180.24C275.814 180.901 274.908 181.413 273.841 181.776C272.774 182.117 271.644 182.288 270.449 182.288ZM286.638 182.288C285.208 182.288 283.96 181.957 282.894 181.296C281.827 180.635 280.995 179.675 280.398 178.416C279.822 177.157 279.534 175.664 279.534 173.936C279.534 172.187 279.822 170.693 280.398 169.456C280.995 168.219 281.827 167.269 282.894 166.608C283.96 165.925 285.208 165.584 286.638 165.584C288.046 165.584 289.272 165.936 290.318 166.64C291.363 167.344 292.056 168.304 292.398 169.52H292.046L292.366 165.872H295.502C295.438 166.533 295.374 167.195 295.31 167.856C295.267 168.496 295.246 169.125 295.246 169.744V182H292.014V178.416H292.366C292.024 179.611 291.32 180.56 290.254 181.264C289.208 181.947 288.003 182.288 286.638 182.288ZM287.438 179.76C288.824 179.76 289.934 179.269 290.766 178.288C291.619 177.307 292.046 175.856 292.046 173.936C292.046 172.016 291.619 170.576 290.766 169.616C289.934 168.635 288.824 168.144 287.438 168.144C286.03 168.144 284.899 168.635 284.046 169.616C283.214 170.576 282.798 172.016 282.798 173.936C282.798 175.856 283.214 177.307 284.046 178.288C284.878 179.269 286.008 179.76 287.438 179.76ZM299.898 182V169.872C299.898 169.211 299.876 168.549 299.834 167.888C299.812 167.205 299.77 166.533 299.706 165.872H302.842L303.194 170.032H302.682C302.895 169.029 303.258 168.197 303.77 167.536C304.282 166.875 304.9 166.384 305.626 166.064C306.372 165.744 307.151 165.584 307.962 165.584C308.303 165.584 308.591 165.605 308.826 165.648C309.06 165.669 309.295 165.712 309.53 165.776L309.498 168.656C309.135 168.507 308.815 168.421 308.538 168.4C308.282 168.357 307.962 168.336 307.578 168.336C306.639 168.336 305.839 168.549 305.178 168.976C304.516 169.381 304.015 169.936 303.674 170.64C303.332 171.344 303.162 172.101 303.162 172.912V182H299.898ZM324.94 182L318.828 165.872H322.188L326.956 179.312H326.124L331.02 165.872H333.516L338.38 179.312H337.58L342.348 165.872H345.58L339.436 182H336.492L331.436 168.304H332.94L327.948 182H324.94ZM348.556 182V165.872H351.788V182H348.556ZM348.299 162.512V159.152H352.044V162.512H348.299ZM362.796 182.288C361.047 182.288 359.724 181.819 358.828 180.88C357.932 179.92 357.484 178.491 357.484 176.592V168.368H354.348V165.872H357.484V161.616L360.716 160.752V165.872H365.196V168.368H360.716V176.304C360.716 177.499 360.93 178.352 361.356 178.864C361.783 179.376 362.402 179.632 363.212 179.632C363.618 179.632 363.97 179.6 364.268 179.536C364.588 179.451 364.876 179.355 365.132 179.248V181.872C364.812 182 364.439 182.096 364.012 182.16C363.586 182.245 363.18 182.288 362.796 182.288ZM368.149 182V158.448H371.381V169.296H370.933C371.403 168.08 372.16 167.163 373.205 166.544C374.251 165.904 375.456 165.584 376.821 165.584C378.741 165.584 380.171 166.117 381.109 167.184C382.048 168.229 382.517 169.819 382.517 171.952V182H379.285V172.144C379.285 170.757 379.008 169.755 378.453 169.136C377.92 168.496 377.067 168.176 375.893 168.176C374.528 168.176 373.429 168.603 372.597 169.456C371.787 170.288 371.381 171.397 371.381 172.784V182H368.149ZM395.649 182V165.872H398.881V182H395.649ZM395.393 162.512V159.152H399.137V162.512H395.393ZM409.89 182.288C408.141 182.288 406.818 181.819 405.922 180.88C405.026 179.92 404.578 178.491 404.578 176.592V168.368H401.442V165.872H404.578V161.616L407.81 160.752V165.872H412.29V168.368H407.81V176.304C407.81 177.499 408.023 178.352 408.45 178.864C408.877 179.376 409.495 179.632 410.306 179.632C410.711 179.632 411.063 179.6 411.362 179.536C411.682 179.451 411.97 179.355 412.226 179.248V181.872C411.906 182 411.533 182.096 411.106 182.16C410.679 182.245 410.274 182.288 409.89 182.288ZM420.779 182.288C419.435 182.288 418.198 182.117 417.067 181.776C415.936 181.435 414.998 180.955 414.251 180.336L415.243 178.128C416.032 178.725 416.907 179.173 417.867 179.472C418.827 179.771 419.808 179.92 420.811 179.92C421.984 179.92 422.87 179.717 423.467 179.312C424.064 178.885 424.363 178.309 424.363 177.584C424.363 177.029 424.171 176.581 423.787 176.24C423.424 175.899 422.816 175.643 421.963 175.472L418.891 174.864C417.526 174.565 416.491 174.053 415.787 173.328C415.083 172.603 414.731 171.675 414.731 170.544C414.731 169.584 414.987 168.731 415.499 167.984C416.032 167.237 416.779 166.651 417.739 166.224C418.72 165.797 419.862 165.584 421.163 165.584C422.358 165.584 423.467 165.755 424.491 166.096C425.515 166.437 426.368 166.928 427.051 167.568L426.027 169.712C425.366 169.157 424.619 168.731 423.787 168.432C422.955 168.112 422.112 167.952 421.259 167.952C420.064 167.952 419.179 168.176 418.603 168.624C418.027 169.072 417.739 169.659 417.739 170.384C417.739 170.939 417.91 171.397 418.251 171.76C418.614 172.101 419.179 172.368 419.947 172.56L423.019 173.168C424.47 173.467 425.558 173.957 426.283 174.64C427.008 175.323 427.371 176.24 427.371 177.392C427.371 178.395 427.094 179.269 426.539 180.016C425.984 180.763 425.216 181.328 424.235 181.712C423.254 182.096 422.102 182.288 420.779 182.288ZM47.368 222V209.744C47.368 209.125 47.336 208.496 47.272 207.856C47.2293 207.195 47.176 206.533 47.112 205.872H50.248L50.536 209.264H50.152C50.6 208.091 51.2827 207.184 52.2 206.544C53.1387 205.904 54.2587 205.584 55.56 205.584C56.8827 205.584 57.96 205.904 58.792 206.544C59.6453 207.163 60.232 208.123 60.552 209.424H60.04C60.4667 208.251 61.192 207.323 62.216 206.64C63.24 205.936 64.424 205.584 65.768 205.584C67.56 205.584 68.904 206.107 69.8 207.152C70.696 208.197 71.144 209.819 71.144 212.016V222H67.912V212.176C67.912 210.768 67.6667 209.755 67.176 209.136C66.7067 208.496 65.9387 208.176 64.872 208.176C63.6347 208.176 62.6533 208.603 61.928 209.456C61.2027 210.309 60.84 211.461 60.84 212.912V222H57.608V212.176C57.608 210.768 57.3627 209.755 56.872 209.136C56.4027 208.496 55.6347 208.176 54.568 208.176C53.3307 208.176 52.36 208.603 51.656 209.456C50.952 210.309 50.6 211.461 50.6 212.912V222H47.368ZM83.2303 222.288C80.6276 222.288 78.5796 221.552 77.0863 220.08C75.5929 218.608 74.8463 216.571 74.8463 213.968C74.8463 212.283 75.1663 210.811 75.8063 209.552C76.4676 208.293 77.3743 207.323 78.5263 206.64C79.6996 205.936 81.0543 205.584 82.5903 205.584C84.1049 205.584 85.3743 205.904 86.3983 206.544C87.4223 207.184 88.2009 208.091 88.7343 209.264C89.2676 210.416 89.5343 211.781 89.5343 213.36V214.384H77.3743V212.528H87.3263L86.7823 212.944C86.7823 211.344 86.4196 210.107 85.6943 209.232C84.9903 208.336 83.9663 207.888 82.6223 207.888C81.1289 207.888 79.9769 208.411 79.1663 209.456C78.3556 210.48 77.9503 211.899 77.9503 213.712V214.032C77.9503 215.931 78.4089 217.36 79.3263 218.32C80.2649 219.28 81.5876 219.76 83.2943 219.76C84.2329 219.76 85.1076 219.632 85.9183 219.376C86.7503 219.099 87.5396 218.651 88.2863 218.032L89.3423 220.24C88.5956 220.901 87.6889 221.413 86.6223 221.776C85.5556 222.117 84.4249 222.288 83.2303 222.288ZM99.419 222.288C97.9897 222.288 96.7417 221.957 95.675 221.296C94.6083 220.635 93.7763 219.675 93.179 218.416C92.603 217.157 92.315 215.664 92.315 213.936C92.315 212.187 92.603 210.693 93.179 209.456C93.7763 208.219 94.6083 207.269 95.675 206.608C96.7417 205.925 97.9897 205.584 99.419 205.584C100.827 205.584 102.054 205.936 103.099 206.64C104.144 207.344 104.838 208.304 105.179 209.52H104.827L105.147 205.872H108.283C108.219 206.533 108.155 207.195 108.091 207.856C108.048 208.496 108.027 209.125 108.027 209.744V222H104.795V218.416H105.147C104.806 219.611 104.102 220.56 103.035 221.264C101.99 221.947 100.784 222.288 99.419 222.288ZM100.219 219.76C101.606 219.76 102.715 219.269 103.547 218.288C104.4 217.307 104.827 215.856 104.827 213.936C104.827 212.016 104.4 210.576 103.547 209.616C102.715 208.635 101.606 208.144 100.219 208.144C98.811 208.144 97.6803 208.635 96.827 209.616C95.995 210.576 95.579 212.016 95.579 213.936C95.579 215.856 95.995 217.307 96.827 218.288C97.659 219.269 98.7897 219.76 100.219 219.76ZM112.743 222V209.744C112.743 209.125 112.711 208.496 112.647 207.856C112.604 207.195 112.551 206.533 112.487 205.872H115.623L115.911 209.264H115.527C116.018 208.069 116.775 207.163 117.799 206.544C118.823 205.904 120.007 205.584 121.351 205.584C123.25 205.584 124.679 206.107 125.639 207.152C126.62 208.197 127.111 209.819 127.111 212.016V222H123.879V212.208C123.879 210.779 123.591 209.755 123.015 209.136C122.46 208.496 121.607 208.176 120.455 208.176C119.09 208.176 118.002 208.603 117.191 209.456C116.38 210.288 115.975 211.419 115.975 212.848V222H112.743ZM131.712 222V205.872H134.944V222H131.712ZM131.456 202.512V199.152H135.2V202.512H131.456ZM139.681 222V209.744C139.681 209.125 139.649 208.496 139.585 207.856C139.542 207.195 139.489 206.533 139.424 205.872H142.561L142.849 209.264H142.465C142.955 208.069 143.713 207.163 144.737 206.544C145.761 205.904 146.945 205.584 148.289 205.584C150.187 205.584 151.617 206.107 152.577 207.152C153.558 208.197 154.049 209.819 154.049 212.016V222H150.817V212.208C150.817 210.779 150.529 209.755 149.953 209.136C149.398 208.496 148.545 208.176 147.393 208.176C146.027 208.176 144.939 208.603 144.129 209.456C143.318 210.288 142.913 211.419 142.913 212.848V222H139.681ZM165.913 229.168C164.463 229.168 163.14 228.997 161.945 228.656C160.772 228.315 159.716 227.803 158.777 227.12L159.577 224.752C160.239 225.2 160.889 225.552 161.529 225.808C162.169 226.085 162.841 226.288 163.545 226.416C164.249 226.544 164.975 226.608 165.721 226.608C167.257 226.608 168.409 226.213 169.177 225.424C169.967 224.656 170.361 223.536 170.361 222.064V217.744H170.681C170.34 218.939 169.636 219.888 168.569 220.592C167.524 221.275 166.308 221.616 164.921 221.616C163.449 221.616 162.169 221.296 161.081 220.656C160.015 219.995 159.183 219.067 158.585 217.872C158.009 216.656 157.721 215.227 157.721 213.584C157.721 211.941 158.009 210.523 158.585 209.328C159.183 208.133 160.015 207.216 161.081 206.576C162.169 205.915 163.449 205.584 164.921 205.584C166.329 205.584 167.545 205.936 168.569 206.64C169.615 207.323 170.308 208.261 170.649 209.456L170.361 209.2L170.649 205.872H173.785C173.7 206.533 173.636 207.195 173.593 207.856C173.551 208.496 173.529 209.125 173.529 209.744V221.68C173.529 224.112 172.879 225.968 171.577 227.248C170.297 228.528 168.409 229.168 165.913 229.168ZM165.689 219.088C167.097 219.088 168.217 218.608 169.049 217.648C169.903 216.688 170.329 215.333 170.329 213.584C170.329 211.835 169.903 210.491 169.049 209.552C168.217 208.613 167.097 208.144 165.689 208.144C164.239 208.144 163.087 208.613 162.233 209.552C161.401 210.491 160.985 211.835 160.985 213.584C160.985 215.333 161.401 216.688 162.233 217.648C163.087 218.608 164.239 219.088 165.689 219.088ZM195.382 222.288C193.974 222.288 192.748 221.936 191.702 221.232C190.657 220.528 189.964 219.568 189.622 218.352H189.974V222H186.774V198.448H190.006V209.456H189.622C189.985 208.261 190.678 207.323 191.702 206.64C192.748 205.936 193.974 205.584 195.382 205.584C196.812 205.584 198.06 205.925 199.126 206.608C200.193 207.269 201.014 208.229 201.59 209.488C202.188 210.725 202.486 212.219 202.486 213.968C202.486 215.696 202.188 217.189 201.59 218.448C201.014 219.685 200.182 220.635 199.094 221.296C198.028 221.957 196.79 222.288 195.382 222.288ZM194.582 219.76C195.969 219.76 197.089 219.28 197.942 218.32C198.796 217.339 199.222 215.888 199.222 213.968C199.222 212.027 198.796 210.576 197.942 209.616C197.089 208.635 195.969 208.144 194.582 208.144C193.174 208.144 192.044 208.635 191.19 209.616C190.358 210.576 189.942 212.016 189.942 213.936C189.942 215.856 190.358 217.307 191.19 218.288C192.044 219.269 193.174 219.76 194.582 219.76ZM213.73 222.288C211.128 222.288 209.08 221.552 207.586 220.08C206.093 218.608 205.346 216.571 205.346 213.968C205.346 212.283 205.666 210.811 206.306 209.552C206.968 208.293 207.874 207.323 209.026 206.64C210.2 205.936 211.554 205.584 213.09 205.584C214.605 205.584 215.874 205.904 216.898 206.544C217.922 207.184 218.701 208.091 219.234 209.264C219.768 210.416 220.034 211.781 220.034 213.36V214.384H207.874V212.528H217.826L217.282 212.944C217.282 211.344 216.92 210.107 216.194 209.232C215.49 208.336 214.466 207.888 213.122 207.888C211.629 207.888 210.477 208.411 209.666 209.456C208.856 210.48 208.45 211.899 208.45 213.712V214.032C208.45 215.931 208.909 217.36 209.826 218.32C210.765 219.28 212.088 219.76 213.794 219.76C214.733 219.76 215.608 219.632 216.418 219.376C217.25 219.099 218.04 218.651 218.786 218.032L219.842 220.24C219.096 220.901 218.189 221.413 217.122 221.776C216.056 222.117 214.925 222.288 213.73 222.288ZM230.815 222.288C229.194 222.288 227.775 221.957 226.559 221.296C225.364 220.613 224.436 219.643 223.775 218.384C223.135 217.104 222.815 215.589 222.815 213.84C222.815 212.112 223.146 210.629 223.807 209.392C224.468 208.155 225.396 207.216 226.591 206.576C227.786 205.915 229.194 205.584 230.815 205.584C231.86 205.584 232.874 205.765 233.855 206.128C234.836 206.469 235.647 206.96 236.287 207.6L235.231 209.872C234.634 209.296 233.962 208.869 233.215 208.592C232.468 208.293 231.743 208.144 231.039 208.144C229.503 208.144 228.298 208.635 227.423 209.616C226.548 210.597 226.111 212.016 226.111 213.872C226.111 215.749 226.548 217.189 227.423 218.192C228.298 219.195 229.503 219.696 231.039 219.696C231.722 219.696 232.436 219.568 233.183 219.312C233.93 219.035 234.612 218.597 235.231 218L236.287 220.272C235.626 220.912 234.794 221.413 233.791 221.776C232.81 222.117 231.818 222.288 230.815 222.288ZM245.763 222.288C244.333 222.288 243.085 221.957 242.019 221.296C240.952 220.635 240.12 219.675 239.523 218.416C238.947 217.157 238.659 215.664 238.659 213.936C238.659 212.187 238.947 210.693 239.523 209.456C240.12 208.219 240.952 207.269 242.019 206.608C243.085 205.925 244.333 205.584 245.763 205.584C247.171 205.584 248.397 205.936 249.443 206.64C250.488 207.344 251.181 208.304 251.523 209.52H251.171L251.491 205.872H254.627C254.563 206.533 254.499 207.195 254.435 207.856C254.392 208.496 254.371 209.125 254.371 209.744V222H251.139V218.416H251.491C251.149 219.611 250.445 220.56 249.379 221.264C248.333 221.947 247.128 222.288 245.763 222.288ZM246.563 219.76C247.949 219.76 249.059 219.269 249.891 218.288C250.744 217.307 251.171 215.856 251.171 213.936C251.171 212.016 250.744 210.576 249.891 209.616C249.059 208.635 247.949 208.144 246.563 208.144C245.155 208.144 244.024 208.635 243.171 209.616C242.339 210.576 241.923 212.016 241.923 213.936C241.923 215.856 242.339 217.307 243.171 218.288C244.003 219.269 245.133 219.76 246.563 219.76ZM264.815 222.288C262.873 222.288 261.412 221.765 260.431 220.72C259.471 219.653 258.991 218.021 258.991 215.824V205.872H262.223V215.76C262.223 217.104 262.5 218.096 263.055 218.736C263.609 219.376 264.452 219.696 265.583 219.696C266.863 219.696 267.897 219.269 268.687 218.416C269.476 217.563 269.871 216.432 269.871 215.024V205.872H273.103V222H269.967V218.544H270.383C269.935 219.739 269.22 220.667 268.239 221.328C267.257 221.968 266.116 222.288 264.815 222.288ZM283.373 222.288C282.029 222.288 280.791 222.117 279.661 221.776C278.53 221.435 277.591 220.955 276.845 220.336L277.837 218.128C278.626 218.725 279.501 219.173 280.461 219.472C281.421 219.771 282.402 219.92 283.405 219.92C284.578 219.92 285.463 219.717 286.061 219.312C286.658 218.885 286.957 218.309 286.957 217.584C286.957 217.029 286.765 216.581 286.381 216.24C286.018 215.899 285.41 215.643 284.557 215.472L281.485 214.864C280.119 214.565 279.085 214.053 278.381 213.328C277.677 212.603 277.325 211.675 277.325 210.544C277.325 209.584 277.581 208.731 278.093 207.984C278.626 207.237 279.373 206.651 280.333 206.224C281.314 205.797 282.455 205.584 283.757 205.584C284.951 205.584 286.061 205.755 287.085 206.096C288.109 206.437 288.962 206.928 289.645 207.568L288.621 209.712C287.959 209.157 287.213 208.731 286.381 208.432C285.549 208.112 284.706 207.952 283.853 207.952C282.658 207.952 281.773 208.176 281.197 208.624C280.621 209.072 280.333 209.659 280.333 210.384C280.333 210.939 280.503 211.397 280.845 211.76C281.207 212.101 281.773 212.368 282.541 212.56L285.613 213.168C287.063 213.467 288.151 213.957 288.877 214.64C289.602 215.323 289.965 216.24 289.965 217.392C289.965 218.395 289.687 219.269 289.133 220.016C288.578 220.763 287.81 221.328 286.829 221.712C285.847 222.096 284.695 222.288 283.373 222.288ZM301.23 222.288C298.628 222.288 296.58 221.552 295.086 220.08C293.593 218.608 292.846 216.571 292.846 213.968C292.846 212.283 293.166 210.811 293.806 209.552C294.468 208.293 295.374 207.323 296.526 206.64C297.7 205.936 299.054 205.584 300.59 205.584C302.105 205.584 303.374 205.904 304.398 206.544C305.422 207.184 306.201 208.091 306.734 209.264C307.268 210.416 307.534 211.781 307.534 213.36V214.384H295.374V212.528H305.326L304.782 212.944C304.782 211.344 304.42 210.107 303.694 209.232C302.99 208.336 301.966 207.888 300.622 207.888C299.129 207.888 297.977 208.411 297.166 209.456C296.356 210.48 295.95 211.899 295.95 213.712V214.032C295.95 215.931 296.409 217.36 297.326 218.32C298.265 219.28 299.588 219.76 301.294 219.76C302.233 219.76 303.108 219.632 303.918 219.376C304.75 219.099 305.54 218.651 306.286 218.032L307.342 220.24C306.596 220.901 305.689 221.413 304.622 221.776C303.556 222.117 302.425 222.288 301.23 222.288ZM319.774 228.912V209.744C319.774 209.125 319.742 208.496 319.678 207.856C319.636 207.195 319.582 206.533 319.518 205.872H322.654L322.974 209.52H322.622C322.964 208.304 323.646 207.344 324.67 206.64C325.716 205.936 326.953 205.584 328.382 205.584C329.812 205.584 331.06 205.925 332.126 206.608C333.193 207.269 334.014 208.219 334.59 209.456C335.188 210.693 335.486 212.187 335.486 213.936C335.486 215.664 335.188 217.157 334.59 218.416C334.014 219.675 333.193 220.635 332.126 221.296C331.06 221.957 329.812 222.288 328.382 222.288C326.974 222.288 325.748 221.947 324.702 221.264C323.678 220.56 322.996 219.611 322.654 218.416H323.006V228.912H319.774ZM327.582 219.76C328.99 219.76 330.11 219.269 330.942 218.288C331.796 217.307 332.222 215.856 332.222 213.936C332.222 212.016 331.796 210.576 330.942 209.616C330.11 208.635 328.99 208.144 327.582 208.144C326.174 208.144 325.044 208.635 324.19 209.616C323.358 210.576 322.942 212.016 322.942 213.936C322.942 215.856 323.358 217.307 324.19 218.288C325.044 219.269 326.174 219.76 327.582 219.76ZM346.73 222.288C344.128 222.288 342.08 221.552 340.586 220.08C339.093 218.608 338.346 216.571 338.346 213.968C338.346 212.283 338.666 210.811 339.306 209.552C339.968 208.293 340.874 207.323 342.026 206.64C343.2 205.936 344.554 205.584 346.09 205.584C347.605 205.584 348.874 205.904 349.898 206.544C350.922 207.184 351.701 208.091 352.234 209.264C352.768 210.416 353.034 211.781 353.034 213.36V214.384H340.874V212.528H350.826L350.282 212.944C350.282 211.344 349.92 210.107 349.194 209.232C348.49 208.336 347.466 207.888 346.122 207.888C344.629 207.888 343.477 208.411 342.666 209.456C341.856 210.48 341.45 211.899 341.45 213.712V214.032C341.45 215.931 341.909 217.36 342.826 218.32C343.765 219.28 345.088 219.76 346.794 219.76C347.733 219.76 348.608 219.632 349.418 219.376C350.25 219.099 351.04 218.651 351.786 218.032L352.842 220.24C352.096 220.901 351.189 221.413 350.122 221.776C349.056 222.117 347.925 222.288 346.73 222.288ZM363.655 222.288C362.055 222.288 360.668 221.957 359.495 221.296C358.322 220.613 357.415 219.653 356.775 218.416C356.135 217.157 355.815 215.664 355.815 213.936C355.815 212.208 356.135 210.725 356.775 209.488C357.415 208.229 358.322 207.269 359.495 206.608C360.668 205.925 362.055 205.584 363.655 205.584C365.255 205.584 366.642 205.925 367.815 206.608C369.01 207.269 369.927 208.229 370.567 209.488C371.228 210.725 371.559 212.208 371.559 213.936C371.559 215.664 371.228 217.157 370.567 218.416C369.927 219.653 369.01 220.613 367.815 221.296C366.642 221.957 365.255 222.288 363.655 222.288ZM363.655 219.76C365.063 219.76 366.183 219.269 367.015 218.288C367.847 217.307 368.263 215.856 368.263 213.936C368.263 212.016 367.847 210.576 367.015 209.616C366.183 208.635 365.063 208.144 363.655 208.144C362.268 208.144 361.159 208.635 360.327 209.616C359.495 210.576 359.079 212.016 359.079 213.936C359.079 215.856 359.484 217.307 360.295 218.288C361.127 219.269 362.247 219.76 363.655 219.76ZM375.337 228.912V209.744C375.337 209.125 375.305 208.496 375.241 207.856C375.198 207.195 375.145 206.533 375.081 205.872H378.217L378.537 209.52H378.185C378.526 208.304 379.209 207.344 380.233 206.64C381.278 205.936 382.515 205.584 383.945 205.584C385.374 205.584 386.622 205.925 387.689 206.608C388.755 207.269 389.577 208.219 390.153 209.456C390.75 210.693 391.049 212.187 391.049 213.936C391.049 215.664 390.75 217.157 390.153 218.416C389.577 219.675 388.755 220.635 387.689 221.296C386.622 221.957 385.374 222.288 383.945 222.288C382.537 222.288 381.31 221.947 380.265 221.264C379.241 220.56 378.558 219.611 378.217 218.416H378.569V228.912H375.337ZM383.145 219.76C384.553 219.76 385.673 219.269 386.505 218.288C387.358 217.307 387.785 215.856 387.785 213.936C387.785 212.016 387.358 210.576 386.505 209.616C385.673 208.635 384.553 208.144 383.145 208.144C381.737 208.144 380.606 208.635 379.753 209.616C378.921 210.576 378.505 212.016 378.505 213.936C378.505 215.856 378.921 217.307 379.753 218.288C380.606 219.269 381.737 219.76 383.145 219.76ZM394.837 222V198.448H398.069V222H394.837ZM410.262 222.288C407.659 222.288 405.611 221.552 404.118 220.08C402.624 218.608 401.878 216.571 401.878 213.968C401.878 212.283 402.198 210.811 402.838 209.552C403.499 208.293 404.406 207.323 405.558 206.64C406.731 205.936 408.086 205.584 409.622 205.584C411.136 205.584 412.406 205.904 413.43 206.544C414.454 207.184 415.232 208.091 415.766 209.264C416.299 210.416 416.566 211.781 416.566 213.36V214.384H404.406V212.528H414.358L413.814 212.944C413.814 211.344 413.451 210.107 412.726 209.232C412.022 208.336 410.998 207.888 409.654 207.888C408.16 207.888 407.008 208.411 406.198 209.456C405.387 210.48 404.982 211.899 404.982 213.712V214.032C404.982 215.931 405.44 217.36 406.358 218.32C407.296 219.28 408.619 219.76 410.326 219.76C411.264 219.76 412.139 219.632 412.95 219.376C413.782 219.099 414.571 218.651 415.318 218.032L416.374 220.24C415.627 220.901 414.72 221.413 413.654 221.776C412.587 222.117 411.456 222.288 410.262 222.288ZM54.44 262.288C52.8187 262.288 51.4 261.957 50.184 261.296C48.9893 260.613 48.0613 259.643 47.4 258.384C46.76 257.104 46.44 255.589 46.44 253.84C46.44 252.112 46.7707 250.629 47.432 249.392C48.0933 248.155 49.0213 247.216 50.216 246.576C51.4107 245.915 52.8187 245.584 54.44 245.584C55.4853 245.584 56.4987 245.765 57.48 246.128C58.4613 246.469 59.272 246.96 59.912 247.6L58.856 249.872C58.2587 249.296 57.5867 248.869 56.84 248.592C56.0933 248.293 55.368 248.144 54.664 248.144C53.128 248.144 51.9227 248.635 51.048 249.616C50.1733 250.597 49.736 252.016 49.736 253.872C49.736 255.749 50.1733 257.189 51.048 258.192C51.9227 259.195 53.128 259.696 54.664 259.696C55.3467 259.696 56.0613 259.568 56.808 259.312C57.5547 259.035 58.2373 258.597 58.856 258L59.912 260.272C59.2507 260.912 58.4187 261.413 57.416 261.776C56.4347 262.117 55.4427 262.288 54.44 262.288ZM69.9363 262.288C68.3363 262.288 66.9496 261.957 65.7763 261.296C64.6029 260.613 63.6963 259.653 63.0563 258.416C62.4163 257.157 62.0963 255.664 62.0963 253.936C62.0963 252.208 62.4163 250.725 63.0563 249.488C63.6963 248.229 64.6029 247.269 65.7763 246.608C66.9496 245.925 68.3363 245.584 69.9363 245.584C71.5363 245.584 72.9229 245.925 74.0963 246.608C75.2909 247.269 76.2083 248.229 76.8483 249.488C77.5096 250.725 77.8403 252.208 77.8403 253.936C77.8403 255.664 77.5096 257.157 76.8483 258.416C76.2083 259.653 75.2909 260.613 74.0963 261.296C72.9229 261.957 71.5363 262.288 69.9363 262.288ZM69.9363 259.76C71.3443 259.76 72.4643 259.269 73.2963 258.288C74.1283 257.307 74.5443 255.856 74.5443 253.936C74.5443 252.016 74.1283 250.576 73.2963 249.616C72.4643 248.635 71.3443 248.144 69.9363 248.144C68.5496 248.144 67.4403 248.635 66.6083 249.616C65.7763 250.576 65.3602 252.016 65.3602 253.936C65.3602 255.856 65.7656 257.307 66.5763 258.288C67.4083 259.269 68.5283 259.76 69.9363 259.76ZM81.618 262V249.744C81.618 249.125 81.586 248.496 81.522 247.856C81.4793 247.195 81.426 246.533 81.362 245.872H84.498L84.786 249.264H84.402C84.8927 248.069 85.65 247.163 86.674 246.544C87.698 245.904 88.882 245.584 90.226 245.584C92.1247 245.584 93.554 246.107 94.514 247.152C95.4953 248.197 95.986 249.819 95.986 252.016V262H92.754V252.208C92.754 250.779 92.466 249.755 91.89 249.136C91.3353 248.496 90.482 248.176 89.33 248.176C87.9647 248.176 86.8767 248.603 86.066 249.456C85.2553 250.288 84.85 251.419 84.85 252.848V262H81.618ZM101.547 262V248.368H98.4108V245.872H102.443L101.547 246.704V244.144C101.547 242.245 102.027 240.805 102.987 239.824C103.947 238.821 105.355 238.32 107.211 238.32C107.659 238.32 108.128 238.352 108.619 238.416C109.109 238.48 109.515 238.587 109.835 238.736V241.36C109.579 241.253 109.259 241.168 108.875 241.104C108.512 241.019 108.139 240.976 107.755 240.976C107.136 240.976 106.603 241.104 106.155 241.36C105.707 241.595 105.355 241.957 105.099 242.448C104.864 242.939 104.747 243.568 104.747 244.336V246.512L104.267 245.872H109.131V248.368H104.779V262H101.547ZM117.565 262.288C115.623 262.288 114.162 261.765 113.181 260.72C112.221 259.653 111.741 258.021 111.741 255.824V245.872H114.973V255.76C114.973 257.104 115.25 258.096 115.805 258.736C116.359 259.376 117.202 259.696 118.333 259.696C119.613 259.696 120.647 259.269 121.437 258.416C122.226 257.563 122.621 256.432 122.621 255.024V245.872H125.853V262H122.717V258.544H123.133C122.685 259.739 121.97 260.667 120.989 261.328C120.007 261.968 118.866 262.288 117.565 262.288ZM136.123 262.288C134.779 262.288 133.541 262.117 132.411 261.776C131.28 261.435 130.341 260.955 129.595 260.336L130.587 258.128C131.376 258.725 132.251 259.173 133.211 259.472C134.171 259.771 135.152 259.92 136.155 259.92C137.328 259.92 138.213 259.717 138.811 259.312C139.408 258.885 139.707 258.309 139.707 257.584C139.707 257.029 139.515 256.581 139.131 256.24C138.768 255.899 138.16 255.643 137.307 255.472L134.235 254.864C132.869 254.565 131.835 254.053 131.131 253.328C130.427 252.603 130.075 251.675 130.075 250.544C130.075 249.584 130.331 248.731 130.843 247.984C131.376 247.237 132.123 246.651 133.083 246.224C134.064 245.797 135.205 245.584 136.507 245.584C137.701 245.584 138.811 245.755 139.835 246.096C140.859 246.437 141.712 246.928 142.395 247.568L141.371 249.712C140.709 249.157 139.963 248.731 139.131 248.432C138.299 248.112 137.456 247.952 136.603 247.952C135.408 247.952 134.523 248.176 133.947 248.624C133.371 249.072 133.083 249.659 133.083 250.384C133.083 250.939 133.253 251.397 133.595 251.76C133.957 252.101 134.523 252.368 135.291 252.56L138.363 253.168C139.813 253.467 140.901 253.957 141.627 254.64C142.352 255.323 142.715 256.24 142.715 257.392C142.715 258.395 142.437 259.269 141.883 260.016C141.328 260.763 140.56 261.328 139.579 261.712C138.597 262.096 137.445 262.288 136.123 262.288ZM153.98 262.288C151.378 262.288 149.33 261.552 147.836 260.08C146.343 258.608 145.596 256.571 145.596 253.968C145.596 252.283 145.916 250.811 146.556 249.552C147.218 248.293 148.124 247.323 149.276 246.64C150.45 245.936 151.804 245.584 153.34 245.584C154.855 245.584 156.124 245.904 157.148 246.544C158.172 247.184 158.951 248.091 159.484 249.264C160.018 250.416 160.284 251.781 160.284 253.36V254.384H148.124V252.528H158.076L157.532 252.944C157.532 251.344 157.17 250.107 156.444 249.232C155.74 248.336 154.716 247.888 153.372 247.888C151.879 247.888 150.727 248.411 149.916 249.456C149.106 250.48 148.7 251.899 148.7 253.712V254.032C148.7 255.931 149.159 257.36 150.076 258.32C151.015 259.28 152.338 259.76 154.044 259.76C154.983 259.76 155.858 259.632 156.668 259.376C157.5 259.099 158.29 258.651 159.036 258.032L160.092 260.24C159.346 260.901 158.439 261.413 157.372 261.776C156.306 262.117 155.175 262.288 153.98 262.288ZM170.169 262.288C168.761 262.288 167.513 261.957 166.425 261.296C165.358 260.635 164.526 259.675 163.929 258.416C163.353 257.157 163.065 255.664 163.065 253.936C163.065 252.187 163.353 250.693 163.929 249.456C164.526 248.219 165.358 247.269 166.425 246.608C167.513 245.925 168.761 245.584 170.169 245.584C171.556 245.584 172.772 245.936 173.817 246.64C174.884 247.323 175.588 248.261 175.929 249.456H175.545V238.448H178.777V262H175.577V258.352H175.961C175.598 259.568 174.894 260.528 173.849 261.232C172.804 261.936 171.577 262.288 170.169 262.288ZM170.969 259.76C172.356 259.76 173.476 259.269 174.329 258.288C175.182 257.307 175.609 255.856 175.609 253.936C175.609 252.016 175.182 250.576 174.329 249.616C173.476 248.635 172.356 248.144 170.969 248.144C169.561 248.144 168.43 248.635 167.577 249.616C166.745 250.576 166.329 252.016 166.329 253.936C166.329 255.856 166.745 257.307 167.577 258.288C168.43 259.269 169.561 259.76 170.969 259.76ZM200.632 262.288C199.224 262.288 197.998 261.936 196.952 261.232C195.907 260.528 195.214 259.568 194.872 258.352H195.224V262H192.024V238.448H195.256V249.456H194.872C195.235 248.261 195.928 247.323 196.952 246.64C197.998 245.936 199.224 245.584 200.632 245.584C202.062 245.584 203.31 245.925 204.376 246.608C205.443 247.269 206.264 248.229 206.84 249.488C207.438 250.725 207.736 252.219 207.736 253.968C207.736 255.696 207.438 257.189 206.84 258.448C206.264 259.685 205.432 260.635 204.344 261.296C203.278 261.957 202.04 262.288 200.632 262.288ZM199.832 259.76C201.219 259.76 202.339 259.28 203.192 258.32C204.046 257.339 204.472 255.888 204.472 253.968C204.472 252.027 204.046 250.576 203.192 249.616C202.339 248.635 201.219 248.144 199.832 248.144C198.424 248.144 197.294 248.635 196.44 249.616C195.608 250.576 195.192 252.016 195.192 253.936C195.192 255.856 195.608 257.307 196.44 258.288C197.294 259.269 198.424 259.76 199.832 259.76ZM218.98 262.288C216.378 262.288 214.33 261.552 212.836 260.08C211.343 258.608 210.596 256.571 210.596 253.968C210.596 252.283 210.916 250.811 211.556 249.552C212.218 248.293 213.124 247.323 214.276 246.64C215.45 245.936 216.804 245.584 218.34 245.584C219.855 245.584 221.124 245.904 222.148 246.544C223.172 247.184 223.951 248.091 224.484 249.264C225.018 250.416 225.284 251.781 225.284 253.36V254.384H213.124V252.528H223.076L222.532 252.944C222.532 251.344 222.17 250.107 221.444 249.232C220.74 248.336 219.716 247.888 218.372 247.888C216.879 247.888 215.727 248.411 214.916 249.456C214.106 250.48 213.7 251.899 213.7 253.712V254.032C213.7 255.931 214.159 257.36 215.076 258.32C216.015 259.28 217.338 259.76 219.044 259.76C219.983 259.76 220.858 259.632 221.668 259.376C222.5 259.099 223.29 258.651 224.036 258.032L225.092 260.24C224.346 260.901 223.439 261.413 222.372 261.776C221.306 262.117 220.175 262.288 218.98 262.288ZM235.234 262.288C233.484 262.288 232.162 261.819 231.266 260.88C230.37 259.92 229.922 258.491 229.922 256.592V248.368H226.786V245.872H229.922V241.616L233.154 240.752V245.872H237.634V248.368H233.154V256.304C233.154 257.499 233.367 258.352 233.794 258.864C234.22 259.376 234.839 259.632 235.65 259.632C236.055 259.632 236.407 259.6 236.706 259.536C237.026 259.451 237.314 259.355 237.57 259.248V261.872C237.25 262 236.876 262.096 236.45 262.16C236.023 262.245 235.618 262.288 235.234 262.288ZM245.19 262L239.078 245.872H242.438L247.206 259.312H246.374L251.27 245.872H253.766L258.63 259.312H257.83L262.598 245.872H265.83L259.686 262H256.742L251.686 248.304H253.19L248.198 262H245.19ZM275.98 262.288C273.378 262.288 271.33 261.552 269.836 260.08C268.343 258.608 267.596 256.571 267.596 253.968C267.596 252.283 267.916 250.811 268.556 249.552C269.218 248.293 270.124 247.323 271.276 246.64C272.45 245.936 273.804 245.584 275.34 245.584C276.855 245.584 278.124 245.904 279.148 246.544C280.172 247.184 280.951 248.091 281.484 249.264C282.018 250.416 282.284 251.781 282.284 253.36V254.384H270.124V252.528H280.076L279.532 252.944C279.532 251.344 279.17 250.107 278.444 249.232C277.74 248.336 276.716 247.888 275.372 247.888C273.879 247.888 272.727 248.411 271.916 249.456C271.106 250.48 270.7 251.899 270.7 253.712V254.032C270.7 255.931 271.159 257.36 272.076 258.32C273.015 259.28 274.338 259.76 276.044 259.76C276.983 259.76 277.858 259.632 278.668 259.376C279.5 259.099 280.29 258.651 281.036 258.032L282.092 260.24C281.346 260.901 280.439 261.413 279.372 261.776C278.306 262.117 277.175 262.288 275.98 262.288ZM293.449 262.288C290.846 262.288 288.798 261.552 287.305 260.08C285.812 258.608 285.065 256.571 285.065 253.968C285.065 252.283 285.385 250.811 286.025 249.552C286.686 248.293 287.593 247.323 288.745 246.64C289.918 245.936 291.273 245.584 292.809 245.584C294.324 245.584 295.593 245.904 296.617 246.544C297.641 247.184 298.42 248.091 298.953 249.264C299.486 250.416 299.753 251.781 299.753 253.36V254.384H287.593V252.528H297.545L297.001 252.944C297.001 251.344 296.638 250.107 295.913 249.232C295.209 248.336 294.185 247.888 292.841 247.888C291.348 247.888 290.196 248.411 289.385 249.456C288.574 250.48 288.169 251.899 288.169 253.712V254.032C288.169 255.931 288.628 257.36 289.545 258.32C290.484 259.28 291.806 259.76 293.513 259.76C294.452 259.76 295.326 259.632 296.137 259.376C296.969 259.099 297.758 258.651 298.505 258.032L299.561 260.24C298.814 260.901 297.908 261.413 296.841 261.776C295.774 262.117 294.644 262.288 293.449 262.288ZM303.462 262V249.744C303.462 249.125 303.43 248.496 303.366 247.856C303.323 247.195 303.27 246.533 303.206 245.872H306.342L306.63 249.264H306.246C306.736 248.069 307.494 247.163 308.518 246.544C309.542 245.904 310.726 245.584 312.07 245.584C313.968 245.584 315.398 246.107 316.358 247.152C317.339 248.197 317.83 249.819 317.83 252.016V262H314.598V252.208C314.598 250.779 314.31 249.755 313.734 249.136C313.179 248.496 312.326 248.176 311.174 248.176C309.808 248.176 308.72 248.603 307.91 249.456C307.099 250.288 306.694 251.419 306.694 252.848V262H303.462ZM330.962 262V245.872H334.194V262H330.962ZM330.706 242.512V239.152H334.45V242.512H330.706ZM345.203 262.288C343.453 262.288 342.131 261.819 341.235 260.88C340.339 259.92 339.891 258.491 339.891 256.592V248.368H336.755V245.872H339.891V241.616L343.123 240.752V245.872H347.603V248.368H343.123V256.304C343.123 257.499 343.336 258.352 343.763 258.864C344.189 259.376 344.808 259.632 345.619 259.632C346.024 259.632 346.376 259.6 346.675 259.536C346.995 259.451 347.283 259.355 347.539 259.248V261.872C347.219 262 346.845 262.096 346.419 262.16C345.992 262.245 345.587 262.288 345.203 262.288ZM365.263 262.288C363.833 262.288 362.585 261.957 361.519 261.296C360.452 260.635 359.62 259.675 359.023 258.416C358.447 257.157 358.159 255.664 358.159 253.936C358.159 252.187 358.447 250.693 359.023 249.456C359.62 248.219 360.452 247.269 361.519 246.608C362.585 245.925 363.833 245.584 365.263 245.584C366.671 245.584 367.897 245.936 368.943 246.64C369.988 247.344 370.681 248.304 371.023 249.52H370.671L370.991 245.872H374.127C374.063 246.533 373.999 247.195 373.935 247.856C373.892 248.496 373.871 249.125 373.871 249.744V262H370.639V258.416H370.991C370.649 259.611 369.945 260.56 368.879 261.264C367.833 261.947 366.628 262.288 365.263 262.288ZM366.063 259.76C367.449 259.76 368.559 259.269 369.391 258.288C370.244 257.307 370.671 255.856 370.671 253.936C370.671 252.016 370.244 250.576 369.391 249.616C368.559 248.635 367.449 248.144 366.063 248.144C364.655 248.144 363.524 248.635 362.671 249.616C361.839 250.576 361.423 252.016 361.423 253.936C361.423 255.856 361.839 257.307 362.671 258.288C363.503 259.269 364.633 259.76 366.063 259.76ZM378.587 262V249.744C378.587 249.125 378.555 248.496 378.491 247.856C378.448 247.195 378.395 246.533 378.331 245.872H381.467L381.755 249.264H381.371C381.861 248.069 382.619 247.163 383.643 246.544C384.667 245.904 385.851 245.584 387.195 245.584C389.093 245.584 390.523 246.107 391.483 247.152C392.464 248.197 392.955 249.819 392.955 252.016V262H389.723V252.208C389.723 250.779 389.435 249.755 388.859 249.136C388.304 248.496 387.451 248.176 386.299 248.176C384.933 248.176 383.845 248.603 383.035 249.456C382.224 250.288 381.819 251.419 381.819 252.848V262H378.587ZM403.732 262.288C402.324 262.288 401.076 261.957 399.988 261.296C398.921 260.635 398.089 259.675 397.492 258.416C396.916 257.157 396.628 255.664 396.628 253.936C396.628 252.187 396.916 250.693 397.492 249.456C398.089 248.219 398.921 247.269 399.988 246.608C401.076 245.925 402.324 245.584 403.732 245.584C405.118 245.584 406.334 245.936 407.38 246.64C408.446 247.323 409.15 248.261 409.492 249.456H409.108V238.448H412.34V262H409.14V258.352H409.524C409.161 259.568 408.457 260.528 407.412 261.232C406.366 261.936 405.14 262.288 403.732 262.288ZM404.532 259.76C405.918 259.76 407.038 259.269 407.892 258.288C408.745 257.307 409.172 255.856 409.172 253.936C409.172 252.016 408.745 250.576 407.892 249.616C407.038 248.635 405.918 248.144 404.532 248.144C403.124 248.144 401.993 248.635 401.14 249.616C400.308 250.576 399.891 252.016 399.891 253.936C399.891 255.856 400.308 257.307 401.14 258.288C401.993 259.269 403.124 259.76 404.532 259.76ZM425.875 262V239.44H440.339V242.096H429.203V249.328H439.603V251.984H429.203V262H425.875ZM444.031 262V239.44H447.359V262H444.031ZM452.656 262V239.44H455.984V259.152H467.056V262H452.656ZM470.312 262V239.44H485.096V242.096H473.544V249.2H484.36V251.888H473.544V259.312H485.096V262H470.312ZM488.763 262V258.192H492.571V262H488.763Z" fill="#05171B" fill-opacity="0.7"/>
<g filter="url(#filter1_ddi_535_340)">
<rect x="32" y="2" width="171" height="60" fill="#DBFF00"/>
</g>
<path d="M64.592 46V20.62H81.836V24.976H70.208V31.168H81.008V35.488H70.208V46H64.592ZM93.0868 46.396C91.1428 46.396 89.4508 46.012 88.0108 45.244C86.5948 44.452 85.4908 43.348 84.6988 41.932C83.9308 40.516 83.5468 38.824 83.5468 36.856C83.5468 34.912 83.9308 33.232 84.6988 31.816C85.4908 30.4 86.5948 29.308 88.0108 28.54C89.4508 27.772 91.1428 27.388 93.0868 27.388C95.0308 27.388 96.7228 27.772 98.1628 28.54C99.6028 29.308 100.707 30.4 101.475 31.816C102.267 33.232 102.663 34.912 102.663 36.856C102.663 38.824 102.267 40.516 101.475 41.932C100.707 43.348 99.6028 44.452 98.1628 45.244C96.7228 46.012 95.0308 46.396 93.0868 46.396ZM93.0868 42.292C94.3348 42.292 95.3188 41.848 96.0388 40.96C96.7828 40.072 97.1548 38.704 97.1548 36.856C97.1548 35.008 96.7828 33.652 96.0388 32.788C95.3188 31.924 94.3348 31.492 93.0868 31.492C91.8388 31.492 90.8428 31.924 90.0988 32.788C89.3788 33.652 89.0188 35.008 89.0188 36.856C89.0188 38.704 89.3788 40.072 90.0988 40.96C90.8428 41.848 91.8388 42.292 93.0868 42.292ZM106.173 46V19.504H111.609V46H106.173ZM123.216 46.396C121.632 46.396 120.228 46.012 119.004 45.244C117.804 44.476 116.856 43.384 116.16 41.968C115.488 40.552 115.152 38.848 115.152 36.856C115.152 34.888 115.488 33.196 116.16 31.78C116.832 30.364 117.78 29.284 119.004 28.54C120.228 27.772 121.632 27.388 123.216 27.388C124.656 27.388 125.94 27.736 127.068 28.432C128.22 29.104 128.988 30.016 129.372 31.168H128.904V19.504H134.34V46H128.976V42.436H129.444C129.06 43.636 128.292 44.596 127.14 45.316C125.988 46.036 124.68 46.396 123.216 46.396ZM124.836 42.292C126.084 42.292 127.092 41.848 127.86 40.96C128.628 40.072 129.012 38.704 129.012 36.856C129.012 35.008 128.628 33.652 127.86 32.788C127.092 31.924 126.084 31.492 124.836 31.492C123.588 31.492 122.568 31.924 121.776 32.788C121.008 33.652 120.624 35.008 120.624 36.856C120.624 38.704 121.008 40.072 121.776 40.96C122.568 41.848 123.588 42.292 124.836 42.292ZM147.978 46.396C144.81 46.396 142.338 45.544 140.562 43.84C138.786 42.136 137.898 39.82 137.898 36.892C137.898 34.996 138.27 33.34 139.014 31.924C139.782 30.508 140.838 29.404 142.182 28.612C143.55 27.796 145.146 27.388 146.97 27.388C148.77 27.388 150.27 27.772 151.47 28.54C152.694 29.308 153.606 30.388 154.206 31.78C154.83 33.148 155.142 34.744 155.142 36.568V37.828H142.362V35.128H151.182L150.57 35.632C150.57 34.12 150.258 32.98 149.634 32.212C149.034 31.42 148.158 31.024 147.006 31.024C145.734 31.024 144.75 31.492 144.054 32.428C143.382 33.364 143.046 34.708 143.046 36.46V37.036C143.046 38.812 143.478 40.132 144.342 40.996C145.23 41.86 146.502 42.292 148.158 42.292C149.142 42.292 150.066 42.172 150.93 41.932C151.818 41.668 152.658 41.26 153.45 40.708L154.962 44.308C154.05 44.98 152.994 45.496 151.794 45.856C150.618 46.216 149.346 46.396 147.978 46.396ZM158.555 46V32.572C158.555 31.78 158.531 30.976 158.483 30.16C158.459 29.344 158.399 28.54 158.303 27.748H163.523L164.135 33.076H163.307C163.547 31.78 163.931 30.712 164.459 29.872C165.011 29.032 165.683 28.408 166.475 28C167.291 27.592 168.215 27.388 169.247 27.388C169.703 27.388 170.063 27.412 170.327 27.46C170.591 27.484 170.855 27.544 171.119 27.64L171.083 32.428C170.579 32.212 170.147 32.08 169.787 32.032C169.451 31.96 169.019 31.924 168.491 31.924C167.483 31.924 166.643 32.116 165.971 32.5C165.323 32.884 164.831 33.448 164.495 34.192C164.183 34.936 164.027 35.836 164.027 36.892V46H158.555Z" fill="#05171B"/>
<defs>
<filter id="filter0_d_535_340" x="0" y="36" width="587" height="508" filterUnits="userSpaceOnUse" color-interpolation-filters="sRGB">
<feFlood flood-opacity="0" result="BackgroundImageFix"/>
<feColorMatrix in="SourceAlpha" type="matrix" values="0 0 0 0 0 0 0 0 0 0 0 0 0 0 0 0 0 0 127 0" result="hardAlpha"/>
<feOffset dx="6" dy="6"/>
<feComposite in2="hardAlpha" operator="out"/>
<feColorMatrix type="matrix" values="0 0 0 0 0.129412 0 0 0 0 0.219608 0 0 0 0 0.243137 0 0 0 1 0"/>
<feBlend mode="normal" in2="BackgroundImageFix" result="effect1_dropShadow_535_340"/>
<feBlend mode="normal" in="SourceGraphic" in2="effect1_dropShadow_535_340" result="shape"/>
</filter>
<filter id="filter1_ddi_535_340" x="30" y="0" width="176" height="68" filterUnits="userSpaceOnUse" color-interpolation-filters="sRGB">
<feFlood flood-opacity="0" result="BackgroundImageFix"/>
<feColorMatrix in="SourceAlpha" type="matrix" values="0 0 0 0 0 0 0 0 0 0 0 0 0 0 0 0 0 0 127 0" result="hardAlpha"/>
<feOffset dx="3" dy="6"/>
<feComposite in2="hardAlpha" operator="out"/>
<feColorMatrix type="matrix" values="0 0 0 0 0.0196078 0 0 0 0 0.0901961 0 0 0 0 0.105882 0 0 0 1 0"/>
<feBlend mode="normal" in2="BackgroundImageFix" result="effect1_dropShadow_535_340"/>
<feColorMatrix in="SourceAlpha" type="matrix" values="0 0 0 0 0 0 0 0 0 0 0 0 0 0 0 0 0 0 127 0" result="hardAlpha"/>
<feMorphology radius="2" operator="dilate" in="SourceAlpha" result="effect2_dropShadow_535_340"/>
<feOffset/>
<feComposite in2="hardAlpha" operator="out"/>
<feColorMatrix type="matrix" values="0 0 0 0 0.129412 0 0 0 0 0.219608 0 0 0 0 0.243137 0 0 0 1 0"/>
<feBlend mode="normal" in2="effect1_dropShadow_535_340" result="effect2_dropShadow_535_340"/>
<feBlend mode="normal" in="SourceGraphic" in2="effect2_dropShadow_535_340" result="shape"/>
<feColorMatrix in="SourceAlpha" type="matrix" values="0 0 0 0 0 0 0 0 0 0 0 0 0 0 0 0 0 0 127 0" result="hardAlpha"/>
<feOffset dx="1" dy="1"/>
<feComposite in2="hardAlpha" operator="arithmetic" k2="-1" k3="1"/>
<feColorMatrix type="matrix" values="0 0 0 0 0.933333 0 0 0 0 1 0 0 0 0 0.517647 0 0 0 1 0"/>
<feBlend mode="normal" in2="shape" result="effect3_innerShadow_535_340"/>
</filter>
<clipPath id="clip0_535_340">
<rect width="185.111" height="177.951" fill="white" transform="translate(198.523 289)"/>
</clipPath>
</defs>
</svg>
