<svg width="69" height="62" viewBox="0 0 69 62" fill="none" xmlns="http://www.w3.org/2000/svg">
<circle cx="3" cy="3" r="3" fill="#21383E"/>
<circle cx="3" cy="10" r="3" fill="#21383E"/>
<circle cx="3" cy="17" r="3" fill="#21383E"/>
<circle cx="3" cy="24" r="3" fill="#21383E"/>
<circle cx="3" cy="31" r="3" fill="#21383E"/>
<circle cx="3" cy="38" r="3" fill="#21383E"/>
<circle cx="3" cy="45" r="3" fill="#21383E"/>
<circle cx="3" cy="52" r="3" fill="#21383E"/>
<circle cx="3" cy="59" r="3" fill="#21383E"/>
<circle cx="10" cy="3" r="3" fill="#21383E"/>
<circle cx="10" cy="10" r="3" fill="#DBFF00"/>
<circle cx="10" cy="17" r="3" fill="#DBFF00"/>
<circle cx="10" cy="24" r="3" fill="#DBFF00"/>
<circle cx="10" cy="31" r="3" fill="#DBFF00"/>
<circle cx="10" cy="38" r="3" fill="#DBFF00"/>
<circle cx="10" cy="45" r="3" fill="#DBFF00"/>
<circle cx="10" cy="52" r="3" fill="#DBFF00"/>
<circle cx="10" cy="59" r="3" fill="#21383E"/>
<circle cx="17" cy="3" r="3" fill="#21383E"/>
<circle cx="17" cy="10" r="3" fill="#DBFF00"/>
<circle cx="17" cy="17" r="3" fill="#21383E"/>
<circle cx="17" cy="24" r="3" fill="#21383E"/>
<circle cx="17" cy="31" r="3" fill="#DBFF00"/>
<circle cx="17" cy="38" r="3" fill="#DBFF00"/>
<circle cx="17" cy="45" r="3" fill="#21383E"/>
<circle cx="17" cy="52" r="3" fill="#21383E"/>
<circle cx="17" cy="59" r="3" fill="#21383E"/>
<circle cx="24" cy="3" r="3" fill="#21383E"/>
<circle cx="24" cy="10" r="3" fill="#DBFF00"/>
<circle cx="24" cy="17" r="3" fill="#21383E"/>
<circle cx="24" cy="24" r="3" fill="#21383E"/>
<circle cx="24" cy="31" r="3" fill="#DBFF00"/>
<circle cx="24" cy="38" r="3" fill="#21383E"/>
<circle cx="24" cy="45" r="3" fill="white"/>
<circle cx="24" cy="52" r="3" fill="white"/>
<circle cx="24" cy="59" r="3" fill="#21383E"/>
<circle cx="31" cy="3" r="3" fill="#21383E"/>
<circle cx="31" cy="10" r="3" fill="#DBFF00"/>
<circle cx="31" cy="17" r="3" fill="#21383E"/>
<circle cx="31" cy="24" r="3" fill="#21383E"/>
<circle cx="31" cy="31" r="3" fill="#DBFF00"/>
<circle cx="31" cy="38" r="3" fill="#21383E"/>
<circle cx="31" cy="45" r="3" fill="white"/>
<circle cx="31" cy="52" r="3" fill="white"/>
<circle cx="31" cy="59" r="3" fill="#21383E"/>
<circle cx="38" cy="3" r="3" fill="#21383E"/>
<circle cx="38" cy="10" r="3" fill="#DBFF00"/>
<circle cx="38" cy="17" r="3" fill="#DBFF00"/>
<circle cx="38" cy="24" r="3" fill="#DBFF00"/>
<circle cx="38" cy="31" r="3" fill="#DBFF00"/>
<circle cx="38" cy="38" r="3" fill="#21383E"/>
<circle cx="38" cy="45" r="3" fill="white"/>
<circle cx="38" cy="52" r="3" fill="white"/>
<circle cx="38" cy="59" r="3" fill="#21383E"/>
<circle cx="45" cy="3" r="3" fill="#21383E"/>
<circle cx="45" cy="10" r="3" fill="#DBFF00"/>
<circle cx="45" cy="17" r="3" fill="#DBFF00"/>
<circle cx="45" cy="24" r="3" fill="#DBFF00"/>
<circle cx="45" cy="31" r="3" fill="#DBFF00"/>
<circle cx="45" cy="38" r="3" fill="#21383E"/>
<circle cx="45" cy="45" r="3" fill="white"/>
<circle cx="45" cy="52" r="3" fill="white"/>
<circle cx="45" cy="59" r="3" fill="#21383E"/>
<circle cx="52" cy="10" r="3" fill="#21383E"/>
<circle cx="52" cy="17" r="3" fill="#DBFF00"/>
<circle cx="52" cy="24" r="3" fill="#DBFF00"/>
<circle cx="52" cy="31" r="3" fill="#DBFF00"/>
<circle cx="52" cy="38" r="3" fill="#DBFF00"/>
<circle cx="52" cy="45" r="3" fill="#21383E"/>
<circle cx="52" cy="52" r="3" fill="#21383E"/>
<circle cx="52" cy="59" r="3" fill="#21383E"/>
<circle cx="59" cy="17" r="3" fill="#21383E"/>
<circle cx="59" cy="24" r="3" fill="#DBFF00"/>
<circle cx="59" cy="31" r="3" fill="#DBFF00"/>
<circle cx="59" cy="38" r="3" fill="#DBFF00"/>
<circle cx="59" cy="45" r="3" fill="#DBFF00"/>
<circle cx="59" cy="52" r="3" fill="#DBFF00"/>
<circle cx="59" cy="59" r="3" fill="#21383E"/>
<circle cx="66" cy="24" r="3" fill="#21383E"/>
<circle cx="66" cy="31" r="3" fill="#21383E"/>
<circle cx="66" cy="38" r="3" fill="#21383E"/>
<circle cx="66" cy="45" r="3" fill="#21383E"/>
<circle cx="66" cy="52" r="3" fill="#21383E"/>
<circle cx="66" cy="59" r="3" fill="#21383E"/>
</svg>
