<svg width="409" height="404" viewBox="0 0 409 404" fill="none" xmlns="http://www.w3.org/2000/svg">
<rect y="104" width="409" height="300" fill="#8957F4"/>
<rect width="161" height="90" fill="#F899A3"/>
<rect x="183" width="226" height="90" fill="#53F4B6"/>
<path d="M45.464 205V169.416H31.768V159.88H71V169.416H57.304V205H45.464ZM87.422 205.704C81.534 205.704 76.9473 204.189 73.662 201.16C70.4193 198.131 68.798 193.971 68.798 188.68C68.798 185.395 69.4807 182.472 70.846 179.912C72.2113 177.352 74.1313 175.368 76.606 173.96C79.0807 172.509 81.982 171.784 85.31 171.784C88.5953 171.784 91.326 172.509 93.502 173.96C95.7207 175.368 97.3847 177.331 98.494 179.848C99.6033 182.323 100.158 185.203 100.158 188.488V190.92H78.334V185.544H91.774L90.686 186.44C90.686 184.008 90.2167 182.216 89.278 181.064C88.382 179.869 87.102 179.272 85.438 179.272C83.518 179.272 82.046 179.997 81.022 181.448C80.0407 182.856 79.55 184.989 79.55 187.848V189C79.55 191.859 80.254 193.949 81.662 195.272C83.07 196.595 85.0967 197.256 87.742 197.256C89.4487 197.256 91.0487 197.064 92.542 196.68C94.078 196.296 95.5287 195.677 96.894 194.824L99.838 202.248C98.2167 203.357 96.3393 204.211 94.206 204.808C92.0727 205.405 89.8113 205.704 87.422 205.704ZM118.062 205.704C115.033 205.704 112.281 205.405 109.807 204.808C107.375 204.168 105.305 203.315 103.599 202.248L106.351 194.824C108.015 195.763 109.871 196.531 111.919 197.128C114.009 197.725 116.079 198.024 118.127 198.024C119.748 198.024 120.921 197.789 121.647 197.32C122.415 196.808 122.799 196.147 122.799 195.336C122.799 194.696 122.564 194.184 122.095 193.8C121.625 193.416 120.921 193.139 119.983 192.968L113.071 191.752C110.34 191.24 108.207 190.237 106.671 188.744C105.177 187.208 104.431 185.224 104.431 182.792C104.431 180.573 105.028 178.653 106.223 177.032C107.417 175.368 109.124 174.088 111.343 173.192C113.561 172.253 116.185 171.784 119.215 171.784C121.689 171.784 124.036 172.061 126.255 172.616C128.516 173.171 130.479 174.045 132.143 175.24L129.199 182.472C127.876 181.576 126.319 180.851 124.527 180.296C122.777 179.699 121.135 179.4 119.599 179.4C117.764 179.4 116.463 179.677 115.695 180.232C114.927 180.744 114.543 181.384 114.543 182.152C114.543 182.749 114.756 183.261 115.183 183.688C115.609 184.072 116.292 184.349 117.231 184.52L124.143 185.736C126.959 186.205 129.113 187.187 130.607 188.68C132.143 190.131 132.911 192.115 132.911 194.632C132.911 196.979 132.271 198.984 130.991 200.648C129.753 202.269 128.025 203.528 125.807 204.424C123.588 205.277 121.007 205.704 118.062 205.704ZM154.285 205.704C149.677 205.704 146.2 204.616 143.853 202.44C141.549 200.221 140.397 196.872 140.397 192.392V180.872H134.317V172.488H140.397V164.808L151.789 162.12V172.488H159.725V180.872H151.789V191.944C151.789 193.821 152.216 195.08 153.069 195.72C153.922 196.317 154.946 196.616 156.141 196.616C156.866 196.616 157.485 196.573 157.997 196.488C158.552 196.36 159.128 196.189 159.725 195.976V204.744C158.786 205.128 157.848 205.384 156.909 205.512C156.013 205.64 155.138 205.704 154.285 205.704Z" fill="white"/>
</svg>
