<svg width="300" height="274" viewBox="0 0 300 274" fill="none" xmlns="http://www.w3.org/2000/svg">
<rect y="178" width="300" height="96" fill="#8957F4"/>
<rect width="190" height="164" fill="#F899A3"/>
<rect x="204" width="96" height="164" fill="#53F4B6"/>
<path d="M39.2 229.44C37.2 229.44 35.2667 229.173 33.4 228.64C31.56 228.08 30.08 227.333 28.96 226.4L31.2 220.96C32.3733 221.787 33.6133 222.4 34.92 222.8C36.2267 223.2 37.5733 223.4 38.96 223.4C40.4 223.4 41.48 223.16 42.2 222.68C42.92 222.173 43.28 221.427 43.28 220.44C43.28 219.507 42.9467 218.813 42.28 218.36C41.64 217.907 40.68 217.68 39.4 217.68H34.44V211.92H38.68C39.8267 211.92 40.7333 211.68 41.4 211.2C42.0667 210.693 42.4 209.987 42.4 209.08C42.4 208.2 42.08 207.533 41.44 207.08C40.8 206.627 39.8667 206.4 38.64 206.4C36.08 206.4 33.76 207.213 31.68 208.84L29.44 203.48C30.64 202.493 32.12 201.733 33.88 201.2C35.64 200.64 37.4667 200.36 39.36 200.36C42.5067 200.36 44.9733 201.053 46.76 202.44C48.5467 203.8 49.44 205.693 49.44 208.12C49.44 209.747 48.9733 211.147 48.04 212.32C47.1333 213.493 45.88 214.267 44.28 214.64V214.08C46.1467 214.373 47.6133 215.16 48.68 216.44C49.7467 217.693 50.28 219.267 50.28 221.16C50.28 223.72 49.2933 225.747 47.32 227.24C45.3467 228.707 42.64 229.44 39.2 229.44ZM64.7844 229V224.24H53.1844V219.12L65.9044 200.8H71.7844V218.76H75.4644V224.24H71.7844V229H64.7844ZM64.7844 218.76V209.52H65.8244L58.3444 220.44V218.76H64.7844ZM90.0088 229H84.0888L100.569 200.8H106.489L90.0088 229ZM84.6888 217.6C82.2888 217.6 80.4221 216.813 79.0888 215.24C77.7554 213.64 77.0888 211.533 77.0888 208.92C77.0888 206.28 77.7554 204.2 79.0888 202.68C80.4488 201.133 82.3154 200.36 84.6888 200.36C87.0621 200.36 88.9154 201.147 90.2488 202.72C91.5821 204.293 92.2488 206.36 92.2488 208.92C92.2488 211.533 91.5821 213.64 90.2488 215.24C88.9154 216.813 87.0621 217.6 84.6888 217.6ZM84.6888 213.28C85.3021 213.28 85.7688 212.96 86.0888 212.32C86.4354 211.653 86.6088 210.52 86.6088 208.92C86.6088 207.32 86.4354 206.213 86.0888 205.6C85.7421 204.987 85.2754 204.68 84.6888 204.68C84.0488 204.68 83.5688 204.973 83.2488 205.56C82.9288 206.147 82.7688 207.267 82.7688 208.92C82.7688 210.573 82.9288 211.72 83.2488 212.36C83.5688 212.973 84.0488 213.28 84.6888 213.28ZM105.889 229.44C103.515 229.44 101.662 228.653 100.329 227.08C98.9954 225.48 98.3288 223.373 98.3288 220.76C98.3288 218.12 98.9954 216.04 100.329 214.52C101.689 212.973 103.542 212.2 105.889 212.2C108.289 212.2 110.142 212.987 111.449 214.56C112.782 216.133 113.449 218.2 113.449 220.76C113.449 223.373 112.782 225.48 111.449 227.08C110.142 228.653 108.289 229.44 105.889 229.44ZM105.889 225.12C106.529 225.12 107.009 224.8 107.329 224.16C107.649 223.493 107.809 222.36 107.809 220.76C107.809 219.16 107.635 218.053 107.289 217.44C106.969 216.827 106.502 216.52 105.889 216.52C105.275 216.52 104.795 216.827 104.449 217.44C104.129 218.027 103.969 219.133 103.969 220.76C103.969 222.413 104.129 223.56 104.449 224.2C104.795 224.813 105.275 225.12 105.889 225.12Z" fill="white"/>
</svg>
